<?xml version="1.0" encoding="UTF-8"?>
<svg id="Layer_5" data-name="Layer 5" xmlns="http://www.w3.org/2000/svg" viewBox="0 0 890.49 1235.41">
  <defs>
    <style>
      .cls-1 {
        fill: #231f20;
      }
    </style>
  </defs>
  <path class="cls-1" d="M559.49,758.63c9.08,6.18,20.79-9.09,21.74-16.44,3.12-24.13-5.09-42.79,4.36-43.69,12.59-1.2,4.11,20.16,15.58,42.63,3.84,7.52,14.91,16.05,22.37,9.12,26.11-24.24-4.25-64.55,17.2-58.43,9.07,2.59,14.8,72.78-23.3,73.71-9.43.23-17.22-6.17-24.99-13.39-6.53,11.92-24.11,27.49-38.49,18.55-24.84-15.44-32.01-68.64-18.79-69.14,2.6-.1,6.59,1.37,6.29,6.34-.99,16.63,1.53,39.5,18.04,50.74Z"/>
</svg>