<?xml version="1.0" encoding="UTF-8"?>
<svg id="Layer_5" data-name="Layer 5" xmlns="http://www.w3.org/2000/svg" viewBox="0 0 890.49 1093.76">
  <defs>
    <style>
      .cls-1 {
        fill: #0f0e11;
      }

      .cls-2 {
        fill: #0f0f11;
      }

      .cls-3 {
        fill: #0f0f12;
      }

      .cls-4 {
        fill: #0f0e10;
      }
    </style>
  </defs>
  <g id="w2">
    <path class="cls-1" d="M485.33,602.68l-62.39-10.49c-3.37-.57-5.13-3.02-4.34-6.25.54-2.22,2.78-4.07,6.29-3.47l61.66,10.54c2.38.41,3.6,3.29,3.59,4.96-.01,1.83-2.08,5.18-4.8,4.72Z"/>
    <path class="cls-4" d="M453.4,686.57c-2.61,2.51-5.63,2.19-7.15.69-1.29-1.27-2.64-4.8-.54-6.8l46.88-44.92c2.12-2.03,5.51-1.44,6.87-.09,1.5,1.49,2,4.95-.04,6.91l-46.03,44.22Z"/>
    <path class="cls-2" d="M434.99,644.12c-3.49,1.47-6.08.66-7.11-1.37-1.25-2.48-.61-5.54,2.6-6.88l54.32-22.57c2.53-1.05,5.07-.53,5.92,1.04.95,1.74,1.41,5.67-1.05,6.71l-54.69,23.07Z"/>
    <path class="cls-1" d="M664.39,561.17c-2.57,2.56-5.24,2.46-7.16.27-1.32-1.5-1.6-4.53.59-6.7l40.76-40.38c2-1.98,5.1-1.28,6.19.05,1.35,1.65,1.76,4.9-.19,6.83l-40.18,39.93Z"/>
    <path class="cls-3" d="M716.71,574.77l-51.08,12.15c-2.98.71-5.37-1.14-5.95-3.41s.61-5.06,3.75-5.82l50.56-12.27c2.86-.69,5.42.05,6.45,2.48.95,2.24.3,5.92-3.74,6.88Z"/>
    <path class="cls-3" d="M702.62,614.16c2.94,1.06,1.68,5.48.78,7.25-.71,1.41-3.33,1.93-5.8,1.01l-40.88-15.24c-2.18-.81-2.03-4.76-1.42-6.17.8-1.84,3.66-2.59,6.04-1.74l41.28,14.87Z"/>
  </g>
</svg>