<?xml version="1.0" encoding="UTF-8"?>
<svg id="Layer_5" data-name="Layer 5" xmlns="http://www.w3.org/2000/svg" viewBox="0 0 890.49 1093.76">
  <defs>
    <style>
      .cls-1 {
        fill: #100f13;
      }

      .cls-2 {
        fill: #0f0f12;
      }

      .cls-3 {
        fill: #0e0e0f;
      }

      .cls-4 {
        fill: #0f0e10;
      }
    </style>
  </defs>
  <g id="w1">
    <path class="cls-3" d="M456.72,599.98c-51.88,12.87-109.98,52.24-137.72,97.84-1.66,2.73-2.9,4.75-5.74,4.6-14.97-.78,11.75-30.87,16.43-36.03,32.91-36.27,75.35-63.49,122.83-76.11,14.5-3.85,52.12-6.55,53.62,5.2,1.4,10.96-15.37-3.95-49.41,4.5Z"/>
    <path class="cls-4" d="M791.1,613.4c-13.26-29.51-42.49-47.48-73.31-53.71-38.66-7.81-55.87,6.34-61.47,1.23-1.69-1.54-3.06-6.44.59-7.66,44.52-14.95,94.17-3.4,127.01,30.36,3.12,3.21,22.5,28.6,14.84,32.44-2.49,1.25-6.25.45-7.65-2.67Z"/>
    <path class="cls-4" d="M501.5,621.47c-20.53,1.26-58.37,35.48-71.45,54.95-2.06,3.07-4.91,4.67-7.95,2.77-2.03-1.27-3.08-5.32-.93-8.43,16.34-23.69,38.97-42.27,64.77-55.48,6.13-3.14,13.22-4.56,19.64-2.98,2.9.72,2.77,4.04,2.2,6.15-.69,2.56-2.89,2.82-6.28,3.03Z"/>
    <path class="cls-2" d="M701.99,598.85c-20.06-23.06-40.09-7.82-37.83-19.49,1.9-9.84,27.5-7.24,44.72,11.76,2.17,2.39,2.66,5.26,1.27,7.27-1.77,2.56-5.84,3.13-8.15.47Z"/>
    <path class="cls-2" d="M496.1,677.49c-1.36,2.82-4.42,3.35-5.83,3.05-1.94-.41-4.68-3.68-3.33-6.47l18.2-37.77c1.3-2.7,4.14-4.1,6.43-3.31,1.94.67,4.25,3.65,2.9,6.46l-18.36,38.05Z"/>
    <path class="cls-1" d="M664.97,592.18c4.63-12.77,29.59,28.81,16.4,28.43-1.4-.04-4.6-.06-5.34-2.36-5.01-15.71-14.04-17.86-11.06-26.07Z"/>
  </g>
</svg>