<?xml version="1.0" encoding="UTF-8"?>
<svg id="Layer_5" data-name="Layer 5" xmlns="http://www.w3.org/2000/svg" viewBox="0 0 890.49 1093.76">
  <defs>
    <style>
      .cls-1 {
        fill: #f4858f;
      }
    </style>
  </defs>
  <g id="w3">
    <path class="cls-1" d="M734.61,530.27c-.05,32.04-27.51,22.19-62.33,42.88-5.66,3.36-15.5,1.26-18.25-4.07-6.16-11.96-.36-23.28,7.89-31.85,15.97-16.61,36.64-26.27,59.87-23.38,8.72,1.08,12.83,8.07,12.81,16.43Z"/>
    <path class="cls-1" d="M401.76,626.33c21.69,29.96,39.56,2.78,84.63-.62,7.33-.55,14.69-8.96,13.55-15.74-2.58-15.23-15.4-22.02-28.57-24.65-25.48-5.1-50.46-.63-69.26,17.26-7.05,6.71-6,15.94-.34,23.75Z"/>
  </g>
</svg>