<?xml version="1.0" encoding="UTF-8"?>
<svg id="Layer_5" data-name="Layer 5" xmlns="http://www.w3.org/2000/svg" viewBox="0 0 890.49 1235.41">
  <defs>
    <style>
      .cls-1 {
        fill: #fff;
      }

      .cls-2 {
        fill: #0e0e0e;
      }
    </style>
  </defs>
  <path class="cls-1" d="M649.7,673.15c-5.9,2.63-17.16,6.8-21.44,1.48-6.36-7.9-2.98-25.03,3.66-32.04,8.62-9.1,20.68-9.95,31.13-14.46,21.45-9.25,42.93-12.08,66.57-9.75,5.27.52,9.88,2.9,11.64,6.58,1.9,3.98,2.6,11.33-2.28,13.86-37.53,19.44-47.06,15.49-89.28,34.34Z"/>
  <path class="cls-1" d="M483.61,686.26c-3.09,9.83-15.29,12.7-24.3,11.7-30.09-3.33-58.68-4.27-88.69-1.83-6.36.52-13.12-2.98-15.2-6.68-10.91-19.33,30.41-49.91,78.73-38.18,12.13,2.95,57.09,10.78,49.47,34.98Z"/>
  <path class="cls-2" d="M649.7,673.15c-5.9,2.63-17.16,6.8-21.44,1.48-6.36-7.9-2.98-25.03,3.66-32.04,8.62-9.1,20.68-9.95,31.13-14.46,21.45-9.25,42.93-12.08,66.57-9.75,5.27.52,9.88,2.9,11.64,6.58,1.9,3.98,2.6,11.33-2.28,13.86-37.53,19.44-47.06,15.49-89.28,34.34ZM723.56,631.89c-10.08-2.62-18.46-1.43-28.15-.11-1.46,2.4-.78,9.76,1.97,10.22,9.38-2.64,17.88-6.11,26.19-10.11ZM669.32,649.85c.65-2.44-1.51-7.2-3.03-8.02-2.85-1.53-28.69,5.75-28.82,21.48,12.12-3.44,22.57-9,31.85-13.47Z"/>
  <path class="cls-2" d="M483.37,686.48c-3.09,9.83-15.29,12.7-24.3,11.7-30.09-3.33-58.68-4.27-88.69-1.83-6.36.52-13.12-2.98-15.2-6.68-10.91-19.33,30.41-49.91,78.73-38.18,12.13,2.95,57.09,10.78,49.47,34.98ZM416.57,682.14c-3.2-7.58-3.51-13.06-4.03-20.2-17.52-.85-35.65,4.43-47.02,20.49l51.05-.29ZM471.09,680.6c-.75-5.44-20.63-11.69-28.6-14.29-1.27,6.9-1.7,11.92-3.31,16.85,7.94.69,33.11,6.14,31.91-2.56Z"/>
</svg>