<?xml version="1.0" encoding="UTF-8"?>
<svg id="Layer_5" data-name="Layer 5" xmlns="http://www.w3.org/2000/svg" viewBox="0 0 890.49 1235.41">
  <defs>
    <style>
      .cls-1 {
        fill: #100f0f;
      }

      .cls-2 {
        fill: #10100f;
      }
    </style>
  </defs>
  <path class="cls-1" d="M470.19,700.11c-11.7-10.33-23.82-14-37.02-19.45-22.88-9.44-46.27-15.53-71.54-11.51-3.75.6-6.45-2.36-7.07-5.11s1.3-6.79,5.25-7.37c28.06-4.13,54.79,1.92,80.1,12.94,7.53,3.28,42.63,14,37.6,27.46-.67,1.81-5.02,5.08-7.32,3.05Z"/>
  <path class="cls-2" d="M702.32,635.85c-55.92,19.23-60.55,44.68-61.54,45.1-2.72,1.12-5.7,1.02-7.48-.52-19.48-16.87,73.73-73.41,75.4-51.96.24,3.08-2.18,5.93-6.38,7.38Z"/>
</svg>