<?xml version="1.0" encoding="UTF-8"?>
<svg id="Layer_5" data-name="Layer 5" xmlns="http://www.w3.org/2000/svg" viewBox="0 0 890.49 1235.41">
  <defs>
    <style>
      .cls-1 {
        fill: #231f20;
      }

      .cls-2 {
        fill: #00aeef;
      }
    </style>
  </defs>
  <path class="cls-2" d="M723.25,639.83c-15.65,33.92-73.51,54.95-106.27,29.9-8.05-6.16-5.05-23.57,1.48-31.33,11.21-13.32,27.23-22.93,43.86-29.28,16.99-6.49,36.82-4.28,52.37,3.34,11.19,5.49,13.36,16.95,8.56,27.36Z"/>
  <path class="cls-2" d="M410.74,720.94c-14.75-1.96-28.1-3.98-38.77-11.86-9.87-7.3-11.72-18.73-4.52-27.97,12.67-16.26,29.85-25.45,49.48-28.84,21.81-3.76,43.95-5.67,62.7,7.65,9.61,6.83,12.71,18.32,5.73,28.82-15.93,23.95-45.12,36.13-74.61,32.2Z"/>
  <path class="cls-1" d="M410.74,720.94c-14.75-1.96-28.1-3.98-38.77-11.86-9.87-7.3-11.72-18.73-4.52-27.97,12.67-16.26,29.85-25.45,49.48-28.84,21.81-3.76,43.95-5.67,62.7,7.65,9.61,6.83,12.71,18.32,5.73,28.82-15.93,23.95-45.12,36.13-74.61,32.2ZM444.09,705.25c15.41-4.47,29.26-13.2,32.34-30.63-6.64-10.75-26.25-13.59-38.19-12.36,5.07,12.07,9.27,27.78,5.85,42.99ZM422.18,709.16c-2.37-8.9-6.65-26.61-2.74-42.65-13.81,5.25-47.62,13.7-38.55,34.18,11.35,5.08,28.34,8.28,41.29,8.47Z"/>
  <path class="cls-1" d="M723.25,639.83c-15.65,33.92-73.51,54.95-106.27,29.9-8.05-6.16-5.05-23.57,1.48-31.33,11.21-13.32,27.23-22.93,43.86-29.28,16.99-6.49,36.82-4.28,52.37,3.34,11.19,5.49,13.36,16.95,8.56,27.36ZM708.46,623.16c-9.92-4.6-20.32-6.07-31.04-3.96,8.08,13.01,7.96,25.66,8.05,39.61,12.92-3.43,37.16-29.08,22.99-35.65ZM667.81,665.77c-11.19-13.09-8.17-41.28-8.17-41.28-19.84,2.76-40.02,31.65-32.13,37.34,16.6,11.98,40.31,3.94,40.31,3.94Z"/>
</svg>