<?xml version="1.0" encoding="UTF-8"?>
<svg id="Tusse" xmlns="http://www.w3.org/2000/svg" viewBox="0 0 746.36 996.15">
  <defs>
    <style>
      .cls-1 {
        fill: #fff;
      }

      .cls-2 {
        fill: #040404;
      }

      .cls-3 {
        fill: #090a0a;
      }
    </style>
  </defs>
  <path id="_ฐานตาซ้าย" data-name="ฐานตาซ้าย" class="cls-2" d="M489.23,365.74c-4.34,17.25-21.1,24.92-37.03,25.36-14.28.39-24.3-9.33-29.28-20.99-5.2-12.17-2.54-26.48,8.12-37.22,10.66-10.73,31.55-12.59,44.66-3.45,10.68,7.44,16.85,23.07,13.52,36.3Z"/>
  <path id="_ตาขาวซ้าย" data-name="ตาขาวซ้าย" class="cls-1" d="M477.57,365.34c-5.49,11.03-18.86,16.04-29.92,13.71-9.55-2.01-14.74-11.7-15.44-19.89-.75-8.73,4.32-18.77,12.72-21.84,9.44-3.46,19.1-3.1,26.41,3,5.81,4.84,10.63,16.18,6.23,25.02Z"/>
  <path id="_ตาดำซ้าย" data-name="ตาดำซ้าย" class="cls-3" d="M469.82,355.73c1.2,5.62-.7,9.28-4.31,11.57-3.63,2.3-8.14,1.46-10.91-1.62-3.18-3.53-3.48-8.72-.54-12.65,2.07-2.76,5.01-4.15,7.99-4.21,3.18-.06,6.74,2.13,7.77,6.91Z"/>
  <path id="_ฐานตา_ขวา" data-name="ฐานตา ขวา" class="cls-2" d="M512.46,370.38c-9.35-4.75-12.62-14.59-14.74-23.35-3.29-13.67,1.5-24.95,13.02-32.69,11.64-7.82,28.31-11.05,40.17-.87,12.8,10.99,13.71,31.47,4.47,44.42-9.49,13.29-26.53,20.83-42.92,12.5Z"/>
  <path id="_ตาขาว_ขวา" data-name="ตาขาว ขวา" class="cls-1" d="M518.55,360.32c-8.26-4.27-12.39-18.58-8.93-27.17,4.52-11.21,18.84-16.84,29.51-13.39,7.24,2.35,10.48,9.64,11.16,14.69,1.03,7.59-.97,13.76-6.18,19.19-5.96,6.21-15.52,11.85-25.55,6.67Z"/>
  <path id="_ตาดำขวา" data-name="ตาดำขวา" class="cls-3" d="M534.94,354.48c-7.27,1.99-11.78-4.24-11.95-9.6-.19-5.75,4.86-11.09,11.41-9.94,4.49.79,6.22,5.38,6.95,8.69.91,4.1-.46,9.22-6.41,10.85Z"/>
</svg>