<?xml version="1.0" encoding="UTF-8"?>
<svg id="Layer_3" data-name="Layer 3" xmlns="http://www.w3.org/2000/svg" viewBox="0 0 821.21 996.15">
  <defs>
    <style>
      .cls-1 {
        fill: #fff;
      }

      .cls-2 {
        fill: #020303;
      }
    </style>
  </defs>
  <path id="_ตาขาวขวา" data-name="ตาขาวขวา" class="cls-1" d="M706.44,456.21c-12.28,9.4-41.06,5.83-53.06-11.83-9.29-13.67-13.3-31.87-3.29-46.71,9.35-13.87,28.29-17.29,43.19-12.2,15.42,5.26,24.66,20.28,25.27,37.51.44,12.33-1.93,25.44-12.12,33.24Z"/>
  <path id="_ตาดำขวา" data-name="ตาดำขวา" class="cls-2" d="M672.97,448.73c-15.27-2.05-21.32-13.82-20.61-27.78.64-12.47,7.89-23.62,19.2-26.57,12.28-3.21,23.48,3.2,29.78,14.31,5.29,9.33,4.66,20.31-.75,29.25-5.35,8.86-15.94,12.36-27.63,10.79Z"/>
  <path id="_ตาขาวซ้าย" data-name="ตาขาวซ้าย" class="cls-1" d="M478.13,499.69c-14.81,7.83-29.08,7.06-42.59-1.52-6.87-4.36-13.19-8.21-16.09-16.9s-8.04-18.33-5.29-28.32c3.42-12.42,12.98-26.01,25.45-30.93,12.09-4.77,26.47-5.28,39.24-3.3,12.62,1.96,23.41,14.76,25.63,26.18,4.57,23.48-5.97,44.02-26.34,54.79Z"/>
  <path id="_ตาดำซ้าย" data-name="ตาดำซ้าย" class="cls-2" d="M486.28,480.71c-8.29,11.96-22.94,13.54-34.81,8.66-24.17-9.93-20.85-43.64-11.22-50.74,9.71-7.15,26.74-12.11,38.27-5.25,16.1,9.58,18.38,32.01,7.76,47.33Z"/>
</svg>