<?xml version="1.0" encoding="UTF-8"?>
<svg id="Layer_2" data-name="Layer 2" xmlns="http://www.w3.org/2000/svg" viewBox="0 0 746.36 996.15">
  <defs>
    <style>
      .cls-1 {
        fill: #fff;
      }

      .cls-2 {
        fill: #07090a;
      }

      .cls-3 {
        fill: #070909;
      }
    </style>
  </defs>
  <path id="_ตาขาว1" data-name="ตาขาว1" d="M635.87,529.14c-39.02,3.14-68.7-24.33-72.94-59.35-1.85-15.31.92-28.65,4.02-43.47,6.76-32.29,34.26-46.26,56.77-46.01,30.02,5.2,60.86,28.48,62.84,61.37,1.22,20.36-2.9,42.54-13.81,60.44-7.89,12.93-22.42,20.06-36.88,27.04Z"/>
  <path id="_ตาขาว" data-name="ตาขาว" class="cls-1" d="M633.06,513.96c-29.67,2.48-52.22-19.23-55.45-46.91-1.41-12.1.7-22.64,3.06-34.36,5.14-25.52,26.04-36.56,43.15-36.37,22.82,4.11,46.27,22.51,47.77,48.5.93,16.09-2.21,33.62-10.5,47.76-5.99,10.22-17.04,15.86-28.03,21.37Z"/>
  <path id="_ตาดำ" data-name="ตาดำ" class="cls-2" d="M627.52,473.44c-9.29,3.45-17.33-1.03-22.92-5.84-13.46-11.56-6.86-42.22,6.37-48.3,14.03-6.45,32.37,3.13,36.33,18.32,3.86,14.77-5.51,30.54-19.77,35.83Z"/>
  <path id="_ตาขาว_ซ้าย1" data-name="ตาขาว ซ้าย1" d="M448.09,538.5c-21.02,26.03-83.81,39.48-110.63-6.98-12.95-22.43-16.28-45.75-11.09-71.59,7.15-35.58,38.49-72.32,65.79-72.04,24.56-.49,43.2,13.03,57.47,32.49,26.36,35.94,27.39,82.3-1.54,118.11Z"/>
  <path id="_ตาขาว_ซ้าย" data-name="ตาขาว ซ้าย" class="cls-1" d="M438.1,527.41c-17.22,20.64-68.67,31.3-90.64-5.53-10.61-17.78-13.34-36.27-9.09-56.76,5.86-28.21,31.54-57.33,53.9-57.12,20.12-.38,35.39,10.33,47.08,25.76,21.6,28.49,22.44,65.25-1.26,93.64Z"/>
  <path id="_ตาดำ_ซ้าย" data-name="ตาดำ ซ้าย" class="cls-3" d="M385.48,518.3c-9.88-5.68-12.99-15.38-16.4-24.66-4.88-13.3-.56-29.14,12.91-35.34,9.23-4.25,20.21-6.91,30.49-5.96,9.6.89,16.67,9.35,19.54,18.32,5.67,17.74-1.36,38.26-17.79,47.95-8,4.72-20.47,4.45-28.75-.31Z"/>
</svg>