<?xml version="1.0" encoding="UTF-8"?>
<svg xmlns="http://www.w3.org/2000/svg" viewBox="0 0 751.02 304.24">
  <defs>
    <style>
      .cls-1 {
        fill: #fdfeff;
      }

      .cls-2 {
        fill: #fff;
      }

      .cls-3 {
        fill: #040505;
      }

      .cls-4 {
        fill: #040404;
      }

      .cls-5 {
        fill: #020303;
      }

      .cls-6 {
        fill: #07090a;
      }

      .cls-7 {
        fill: #070a0a;
      }

      .cls-8 {
        fill: #070909;
      }

      .cls-9 {
        fill: #090a0a;
      }
    </style>
  </defs>
  <g id="Layer_1" data-name="Layer 1">
    <path id="_หัว" data-name="หัว" class="cls-5" d="M217.9,196.51v.05c-1.04,6.77-3.57,12.66-5.97,18.91-5.3,13.79-13.8,25.11-24.15,35.44-5.59,5.57-12.03,8.75-19.46,11.47-18.8,6.91-36.67,8.15-56.68,6.15-9.36-.94-18.66-1.13-27.85-3.58-10.36-2.77-23.59-3.85-32.22-8.78-7.05-4.02-12.07-9.82-17.82-15.48-10.11-9.96-19.21-21.07-23.6-34.7l-5.39-16.75C0,174.38.73,173.91.55,157.36c-.13-11.74-1.42-23.46.49-35.21l3.52-21.63,2.84-24.93c.53-4.64,1.53-8.96,1.79-13.68.39-7.18,2.22-14.35,7.87-18.8,2.28-1.8,5.2-1.65,7.48.11,4.67,3.59,8.51,7.79,12.86,11.75,5.13,4.66,10.31,8.82,14.87,14.25,5.67-.71,10.8-.65,16.43-.34,12.95.71,25.41-.28,38.26-1.19,6.03-.42,11.64.16,17.55-1.37,2.15-.56,4.85.18,6.78-.91,3.44-1.95,5.23-5.36,7.49-8.38,4.34-5.79,8.05-11.43,12.06-17.52,2.75-4.18,6.24-8.83,11.27-10.32,5.86-1.73,13.32,1.82,15.39,7.35l7.25,19.34,6.28,16.01,9.58,22.32,7.35,16.58c4.08,9.21,7.97,17.88,9.94,27.85,1.18,6.02,2.61,11.69,2.83,17.96.37,10.49-.01,20.75-.92,31.18-.15,1.69-1.2,7.53-1.91,8.72Z"/>
    <path id="_หนวด6" data-name="หนวด6" class="cls-2" d="M218.65,192.2c1.25,1.69.64,3.37-.75,4.36l-19.12,3.61c-1.08.2-1.96-.42-2.43-.99-.6-.74-.45-2.71.71-2.92,5.14-.93,9.97-2.23,15.07-3.42,2.28-.54,4.43-1.14,6.52-.63Z"/>
    <path id="_ปาก" data-name="ปาก" class="cls-2" d="M175.95,200.65c-2.77,3.71-14.71-2.26-17.96-4.94-5.56,5.65-11.99,10.1-19.74,10.82-1.27.12-2.39-.57-2.88-1.36-.43-.69-.33-2.72.9-2.88,14.86-2.01,18.69-12.02,20.38-12.12.88-.05,2,.15,2.9.88,10.46,8.49,15.03,5.54,16.37,7.31.38.5.56,1.6.04,2.3Z"/>
    <path id="_หนวด5" data-name="หนวด5" class="cls-2" d="M67.71,232.14c-1.12.65-2.54-.09-3.01-.84-2.19-3.5,7.47-6.29,11.52-8.27,8.53-4.17,17.08-7.57,26.2-10.2,1.37-.4,2.55-.83,3.29.47s.09,2.89-1.54,3.4c-8.77,2.73-16.98,6.21-25.24,10.21-3.79,1.83-7.56,3.12-11.22,5.23Z"/>
    <path id="_หนวด4" data-name="หนวด4" class="cls-2" d="M101.43,199.1c1.49,4.67-9.32,2.5-14.67,2.56l-24.07.27c-1.56.02-2.36-1.12-2.3-2.45.06-1.15,1.11-2.08,2.65-2.15,12.05-.54,23.92-.34,35.91.56,1.18.09,2.17.22,2.48,1.21Z"/>
    <path id="_หนวด3" data-name="หนวด3" class="cls-2" d="M98.13,184.78c1.56.72,2.14,1.66,1.74,3.15-.22.84-1.73,1.8-2.93,1.12-2.44-1.4-21.46-9.69-24.98-11.06-1.36-.53-1.92-1.92-1.61-3,.35-1.22,1.78-1.86,3.16-1.36,6.01,2.19,11.47,5.1,17.27,7.77l7.34,3.38Z"/>
    <path id="_หนวด2" data-name="หนวด2" class="cls-2" d="M200.58,184.14c-1.44,1.19-3.27,2.19-4.72,1.14-.77-.55-.67-1.75-.43-2.3.35-.8,1.2-1.14,1.93-1.73,5.36-4.37,10.24-9.01,15.89-12.97,1.18-.83,2.54-.72,3.44.3.64.72.8,2.34-.42,3.21-5.43,3.85-10.39,7.96-15.68,12.35Z"/>
    <path id="_หนวด1" data-name="หนวด1" class="cls-1" d="M208.08,215.48c.98,1.08.81,2.47.19,3.25-.5.64-2.15,1.1-2.95.22-2.89-3.16-5.83-6.02-8.89-9.03-.82-.8-.75-2.09-.24-2.78s2.04-1.09,2.87-.34c3.08,2.77,6.09,5.44,9.02,8.69Z"/>
    <path id="_ตาขาวขวา" data-name="ตาขาวขวา" class="cls-2" d="M191.67,163.68c-3.64,2.78-12.16,1.73-15.71-3.5-2.75-4.05-3.94-9.43-.97-13.83,2.77-4.1,8.37-5.12,12.79-3.61s7.3,6,7.48,11.1c.13,3.65-.57,7.53-3.59,9.84Z"/>
    <path id="_ตาดำขวา" data-name="ตาดำขวา" class="cls-5" d="M181.76,161.46c-4.52-.61-6.31-4.09-6.1-8.22.19-3.69,2.34-6.99,5.68-7.87,3.64-.95,6.95.95,8.82,4.23,1.57,2.76,1.38,6.01-.22,8.66-1.59,2.62-4.72,3.66-8.18,3.19Z"/>
    <path id="_ตาขาวซ้าย" data-name="ตาขาวซ้าย" class="cls-2" d="M124.08,176.55c-4.38,2.32-8.61,2.09-12.61-.45-2.03-1.29-3.9-2.43-4.76-5s-2.38-5.43-1.57-8.38c1.01-3.68,3.84-7.7,7.53-9.16s7.83-1.56,11.62-.98,6.93,4.37,7.59,7.75c1.35,6.95-1.77,13.03-7.8,16.22Z"/>
    <path id="_ตาดำซ้าย" data-name="ตาดำซ้าย" class="cls-5" d="M126.49,170.93c-2.45,3.54-6.79,4.01-10.3,2.57-7.16-2.94-6.17-12.92-3.32-15.02,2.87-2.12,7.92-3.58,11.33-1.55,4.77,2.84,5.44,9.48,2.3,14.01Z"/>
  </g>
  <g id="Layer_2" data-name="Layer 2">
    <path id="_หัว-2" data-name="หัว" class="cls-8" d="M502.32,198.01c-.16,7.16-5.35,5.33-5.31,5.63.3,5.54-1.26,11.3-5.66,15.02-2.63,2.22-5.94,2.3-8.91-.07-1.5,5.83-7.41,26.19-16.51,20.48-3.01,4.5-12.08,23.87-19.4,14.55-2.99,3.89-6.07,7.34-10.3,9.42-2.38,1.17-8.56,5.28-10.53,3.31-.7-.7-.73-1.83-1.2-3.18-5.39,4.93-17.79,12.95-24.6,7.21-1.56-1.31-1.85-3.3-1.93-5.07.12-.59-.19-.59-.69-.54-4.93,1.68-10.61,1.75-15.1-1.16-2.14-1.38-2.32-3.28-2.05-5.27-1.79-.55-4.66-.53-5.77-2.73-4.04,4.71-6.64,11.7-13.26,9.17-2.3-.88-3.84-2.94-4.58-5.94-4.82,4.52-10.98,11.4-18.29,7.47-1.69-.91-2.35-2.65-3.2-4.5-2.69,3.1-5.18,6.12-8.99,7.1-2.3.59-4.35-1.19-6.41-1.84-3.61-1.13-6.31-3-7.71-6.9-3.88,5.21-12.36,8.61-17.08,3.15-5.87-6.8-7.54-10.1-7.89-19.34.16-.7.16-1.27-.65-1.04-1.51,1.63-5.27,4.58-8.04,2.7-7.25-4.89-7.31-12.29-7.9-20.39-2.59,1.12-4.05,2.82-6.3,1.96-5.13-1.96-3.97-22.83-3.42-27.88-3.97,1.53-7.42-.73-8.73-4.73-1.98-6.04-.37-12.36,2.16-18.67-3.96.12-6.9-2.05-8.32-5.65-2.51-6.36-.96-13,1.02-19.34,1.74-5.57,3.35-10.64,6.03-15.84,3.53-6.86,7.34-13.35,13.23-18.7.2-9.24,1.35-17.93,2.26-27.25,1.16-11.95,2.74-23.45,5.39-35.08,1.88-8.22,8.51-27,20.09-21.09,8.63,4.41,15.17,10.71,22.11,17.41,7.14,6.91,14.34,13.54,20.69,21.19,2-1.63,4.32-.88,6.12.04,3.6-4.59,7.49-11.38,14.55-7.97,1.02-3.17,2.54-5.87,5.32-7.11,1.87-.84,3.94.04,5.7.71,1.88-2.51,3.97-4.88,7.19-5.02,2.46-.11,4.75,1.59,7.1,1.9,1.16-1.35,2.48-3.44,4.06-3.85,7.84-2.04,16.79,9.46,19.99,16.14,2.23-1.71,3.36-4.02,4.99-6.11,8.11-10.35,11.26-15.26,22.37-22.49,3.27-2.13,6.68-3.6,10.51-4.27s7.61,1.41,8.8,5.2c2.72,8.64,3.16,17.34,4.39,26.33l3.08,22.55c.58,4.26,1.08,8.14.27,12.65,6.66,3.63,13.65,11.11,19.07,16.12,6.67,6.16,11.64,13.19,15.02,21.72,1.02,2.56,1.74,5.09.35,7.75-1.18,2.26-3.53,3.49-7.11,4.29,8.69,8.73,11.58,16.32,14.43,27.65h0c-.52,1.37.45,7.96-2.55,8.55,1.41,3.85,2.34,8.89,2.1,11.64"/>
    <path id="_หนวด6-2" data-name="หนวด6" class="cls-2" d="M502.67,198.17c1.77-.31,3.29.02,3.64,1.51.24,1.04-.16,2.28-1.28,3.1-1.86,1.36-4.11.98-6.16.8-.86.03-1.6-.13-2.24-.47-6.36-.42-12.3-.66-18.34.29-1.54.24-2.74-.39-2.93-1.74s.69-2.27,2.14-2.46c7.87-1.07,15.64-1.19,23.57-.27.85.1,1.22-.7,1.6-.77Z"/>
    <path id="_หนวด5-2" data-name="หนวด5" class="cls-2" d="M503.12,177.97c.49,1.93,1.01,1.87.23,3.93l-12.49,6.04c-3.03,1.47-6.29,2.08-9.53,3.17-1.26.42-2.47-.36-2.61-1.36-.1-.75.27-2.26,1.46-2.64,6.25-1.99,12.1-4.36,17.78-7.76,1.66-1,3.4-1.71,5.16-1.38Z"/>
    <path id="_หนวด4-2" data-name="หนวด4" class="cls-2" d="M335.73,233.91c-1.15.78-2.61.27-3.13-.38-.68-.85-.77-2.55.35-3.29l15.4-10.22c2.38-1.58,12.54-9.25,14.33-5.54.39.8.17,2.41-1.05,2.82-3.7,1.25-6.53,3.5-9.74,5.67l-16.16,10.95Z"/>
    <path id="_หนวด3-2" data-name="หนวด3" class="cls-2" d="M361.43,190.91c.89,5.22-9.73.41-10.3.24l-17.3-5.09c-1.41-.41-2.07-1.55-1.82-2.89.16-.85,1.4-2.12,2.73-1.72l12.99,3.93c3.85,1.16,7.28,3.06,11.21,3.88,1.2.25,2.29.44,2.5,1.66Z"/>
    <path id="_หนวด2-2" data-name="หนวด2" class="cls-2" d="M347.62,205.98c-5.33.11-17.16,3.04-17.36-.9-.06-1.18.78-2.46,2.36-2.56l15.83-.97,9.79.19c1.25.02,1.71,1.43,1.61,2.18-.13,1.02-1.02,1.83-2.22,1.85l-10.02.21Z"/>
    <path id="_หนวด1-2" data-name="หนวด1" class="cls-2" d="M480.97,180.3c-.79,1.07-2.41.76-3.09.28-1.29-.91-.8-2.23.05-3.35l10.6-13.97c.67-.89.96-1.76,1.94-1.82,1.13-.06,2.29.12,2.78,1.22.39.89.19,2.08-.6,3.03-4.02,4.86-7.94,9.55-11.69,14.6Z"/>
    <path id="_ตาขาว" data-name="ตาขาว" class="cls-2" d="M461.41,182.4c-9.33.78-16.43-6.05-17.44-14.76-.44-3.81.22-7.12.96-10.81,1.62-8.03,8.19-11.5,13.57-11.44,7.18,1.29,14.55,7.08,15.03,15.26.29,5.06-.69,10.58-3.3,15.02-1.89,3.21-5.36,4.99-8.82,6.72Z"/>
    <path id="_ตาดำ" data-name="ตาดำ" class="cls-6" d="M459.67,169.65c-2.92,1.08-5.45-.32-7.21-1.84-4.24-3.64-2.16-13.28,2-15.2,4.41-2.03,10.18.99,11.43,5.76,1.21,4.65-1.73,9.61-6.22,11.27Z"/>
    <path id="_หน้า" data-name="หน้า" class="cls-2" d="M393.42,106.33l.5,1.09c1.78,4.56,3.89,9.14,7.1,13.15,1.07,1.34,3.05,2.35,4.54,3.09,2.5,1.25,4.68-.64,6.41-2.8,1.62,5.37,3.9,10.58,8.24,13.68,2.31,1.65,5.08,1.67,6.56-.8,1.23,2.05,1.78,4.43,3.78,5.94,2.53,1.9,5.95,1.65,8.67-.13,2.42,2.76,5.44,3.81,9.32,3.12-4.72,7-5.71,3.14-8.2,13.46-1.43,5.91-1.86,11.88.36,17.62,3.55,9.17,12.78,14.86,22.61,13.02-1.2,5.35-.96,10.67,1.05,15.56-3.15,5.85-3.48,7.12-2.78,13.15-9.09,4.98-8.16,10.86-8.56,11.2-3.88,3.26-9.38,3.76-12.79,10.71-5.18,1.61-9.69,4.32-13.24,8.15-3.79.98-7,3.83-6.22,7.76-1.94,2.5-6.01,5.5-2.58,8.95l-.88,3.73c-4.16,2.23-11.37,6.17-15.37,2.66-2.07-1.82.28-5.77-1.46-6.67-.58-.3-1.65-.32-2.48.03-8.63,3.65-15.18-.13-14.98-1.69.16-1.24,3.01-3.75,1.07-4.56-1.74-.73-3.66.46-5.26-.3-1.09-.52-1.34-1.68-1.1-2.54s5.32-4,2.18-14.31c5.58-1.58,2.99-9.38,1.62-13.77,3.54-.27,5.62-2.88,5.22-6.42-.86-7.62-3.07-14.97-6.36-21.74,15.51,2.41,26.15-5.17,29.38-19.69,1.83-8.25-.82-15.9-5.54-22.55-5.48-7.72-14.52-11.54-23.85-8.99.3-1.59-.1-3.33.6-4.86,8.6-1.48,7.11-18.45,5.32-24.81,2.6.45,4.64-.88,5.41-3.32.71-2.24.73-4.51,1.04-6.65-.02-.71.37-.72.64,0,.05.15.05.39.03.55Z"/>
    <path id="_ปาก-2" data-name="ปาก" class="cls-7" d="M436.37,197.55c-3.22,5.48-6.98,10.07-12.41,13.27-1.02.6-2.23.18-2.76-.35-.77-.76-.84-2.71.2-3.4,10.76-7.05,10.7-14.49,13.35-15.3s6.44,6.22,17.99,8.82c1.15.26,1.53,1.69,1.19,2.69-.23.68-1.2,1.31-2.34,1.22-5.44-.98-10.13-3.2-15.23-6.97Z"/>
    <path id="_ตาขาว_ซ้าย" data-name="ตาขาว ซ้าย" class="cls-2" d="M400.08,186.63c-5.42,6.49-21.6,9.85-28.51-1.74-3.34-5.59-4.2-11.41-2.86-17.85,1.84-8.87,9.92-18.04,16.96-17.97,6.33-.12,11.13,3.25,14.81,8.1,6.79,8.96,7.06,20.52-.4,29.46Z"/>
    <path id="_ตาดำ_ซ้าย" data-name="ตาดำ ซ้าย" class="cls-8" d="M383.53,183.76c-3.11-1.79-4.09-4.84-5.16-7.76-1.53-4.19-.18-9.17,4.06-11.12,2.91-1.34,6.36-2.17,9.59-1.88,3.02.28,5.24,2.94,6.15,5.76,1.78,5.58-.43,12.04-5.6,15.08-2.52,1.48-6.44,1.4-9.04-.1Z"/>
  </g>
  <g id="Layer_3" data-name="Layer 3">
    <path id="_หัวดำ" data-name="หัวดำ" class="cls-5" d="M744.39,108.43c-.55-.3-.33.15-.09.55.77,3.45,2.13,6.75,3.17,10.4,1.96,6.85,5.41,22.95,1.69,28.92-.51.81-1.18,1.39-1.96,1.45-2.94.2-5.06-5.25-6.46-7.5l.64,13.15c.13,2.66-2.83,25.75-5.12,26.53-.73.25-1.6,0-2.3-.27-.41-.26-.8-.06-1.16.58-.32,5.51-1.15,10.97-1.83,16.69-.67,5.68-1.25,11.17-3.16,16.57-.33.93-1.22,1.42-1.94,1.53-.84.13-1.51-.34-2.18-.93.02,13.02-.79,20.91-4.73,33.11-.35,1.1-1.64,1.86-2.46,2.08-.9.25-1.83-.46-2.65-1.1-4.81,12.52-6.5,18.93-14.16,30.1-.61.9-1.67,1.04-2.42.67-.64-.32-.7-1.1-1.49-2.12-2.67,5.44-5.94,10.27-10.12,14.81-2.04,2.21-5.47,7.32-8.33,5.58-2.35-1.43-1.05-4.17-.9-5.97-.34-.2-.32-.4.05-.59.37-.45.37-.63,0-.55-.16.42-.36.64-.6.65-5.7,4.47-11.36,8.88-18.76,10.59-.94.22-2.06.1-2.52-.56-.41-.59-.48-1.78-.42-2.49-.59-.26-.11-.87.43-1.09q.46-.06,0,0c-.13.55-.61.59-1.12.58-3.92,1.91-7.96,3.81-12.52,4.35-4.82.57-3.77-3.4-8.46-6.86-.85,2.68-.49,5.08-2.58,6.34-5.43,3.28-11.94-8.14-14.55-11.58-.7,2.71-.68,5.54-2.79,7.17-5.59,4.31-14.11-12.03-15.95-15.24-.27-.61-.45-.62-.56,0-.54,2.89-1.08,6.25-3.59,8.46-2.14,1.89-5.59.63-7.49-1.48-5.12-5.68-8.09-12.71-10.8-19.92-2.08,3.14-3.54,7.59-7.86,6.92-8.05-1.24-5.61-28.59-4.65-34.48.03-.53-.18-.72-.63-.54-.84,1.45-3.21,2.24-5.05,1.94-5.12-.81-6.96-11.06-7.01-15.69l-.13-12.55c-1.72,2.22-4.63,7.62-8.01,6.19-.94-.4-1.93-1.66-2.17-3.07-2.11-12.64-.91-25.12.6-37.58.02-.55-.21-.73-.68-.54-1.46.73-2.91,2.23-4.84,1.95-9.71-1.42-2.79-39.86-1.62-46.76-.15-.62-.38-.82-.69-.59-1.81,2.47-5.15,4.71-7.19,2.73-.5-.49-1.21-1.49-1.22-2.55-.21-17.58,7.59-37.83,13.92-53.73q.32.04,0,0c-1.97.21-5.6,5.99-8.93,3.59-.81-.58-1.67-2.15-1.31-3.58,1.8-7.07,3.92-13.94,7.29-20.46,3.18-6.15,8.51-10.14,14.67-13.74-3.07-1.57-6.11-3.7-6.98-7.15-1.37-5.43,11.88-8.7,16.21-9.92,5.23-1.48,10.36-.89,16.01.42.26-9.98.27-19.79-.58-29.7-.08-.91.1-1.76.68-2.01.64-.28,1.42-.17,1.98.3l9.52,8.06c6.23,5.28,12.32,10.5,18,16.32,1.87,1.92,3.32,1.82,5.81,1.78l15.71-.24c8.57-.13,16.75-.18,25.11,1.64l28.98,6.28c.33-4.68.97-9.22,1.63-14.02l2.21-15.94c.95-6.88,15.13,15.39,15.72,16.28,6.1,9.21,7.72,14.31,12.98,23.32,4.88,2.91,8.98,6.26,12.86,10.39,1.29,1.37,2.15,2.67,1.48,4.66,9.95,10.33,18.3,22,23.32,35.51.95,2.56,3.19,14.73-.04,15.89-2.2.79-3.3-1.28-4.94-1.92Z"/>
    <path id="_หัวขาว" data-name="หัวขาว" class="cls-2" d="M735.57,173.33c-.51.64-.8.17-1.13-.46-.45-1.19-.73-2.45-1.78-2.91-.83-.36-1.59.17-1.98.54-.49.46-.51,1.53-.53,2.38-.11,8.85-1.49,17.31-2.5,26.04-.51,4.42-.75,8.65-2.25,12.65-1.28-1.3-1.97-4.68-4.2-3.52-.38.2-.85.79-.86,1.56l-.11,15.8c-.04,5.72-1.08,11.18-2.69,16.34-.17,1.03-.56,1.58-1.15,1.67l-.2-1.99c-.1-1.01-.75-1.65-1.61-1.61-.5.03-1.41.36-1.63,1.18-1.59,6.12-3.7,11.82-5.8,17.8-1.77,5.03-4.13,9.53-6.53,14.01-.91.44-.84-.05-.58-1,.18-1.19.21-2.76-.6-3.25-1.4-.86-2.63.6-3.2,1.86-3.9,8.73-8.46,16.96-15.32,23.32-.93,1.05-1.02-.64-.68-1.69-.11-1.95,1.33-5.28-.89-5.91-.81-.23-1.52.05-2.15.67-5.34,5.17-10.95,10.1-18.18,12.5-.23-1.76,3.66-4.72,1.27-6.07-1.72-.97-4.73,1.27-6.86,2.6-3.67,2.29-7.56,4.17-11.85,4.85-1.1-3.96,3.86-6.44,3.18-8.73-.22-.75-.91-1.12-1.88-.98-1.39.21-3.25,5.02-5.21,6.79-3.9-2.61-6.08-10.91-8.74-9.12-1.81,1.22,1.38,8.25-.63,12.2-4.9,0-12.32-14.8-14.26-18.83-.33-.68-1.82-.51-2.21-.2-1.47,1.18,1.82,10.23-1.1,14.88-5.8-2.42-10.93-14.31-13.61-19.93-.5-1.04-1.4-1.25-2.4-1.12-2.19.28-.44,8.71-4,13.86-.82,1.18-2.81-.14-3.57-1.07-5.88-7.11-9.26-15.67-11.23-24.68-.23-1.05-1.1-1.75-1.96-1.73-2.82.07-1.53,9.82-6.45,12.61-1.15.27-2.3-2.26-2.51-3.46-1.79-10.13-1.41-20.23.61-30.31.57-2.87,2.18-9.42-.44-9.8-3.48-.5-4.04,11-8.6,10.43-.79-.1-1.31-.92-1.74-1.73-3.56-6.77-2.93-22.71-1.85-30.22.15-1.05-.86-1.8-1.63-1.94-2.64-.51-4.98,9.22-9.16,12.13-2.66-12.64-.93-31.83,1.99-44.15.26-1.11-.06-2.28-.92-2.59-2.84-1.05-4.44,5.64-9.04,7.37-1.77-2.55-2.07-5.56-2.1-8.65-.18-15.22,1.75-30.17,6.27-44.64.33-1.06-.57-2.15-1.11-2.37-.65-.27-1.79-.13-2.34.68l-5.73,8.49c-.68,1-1.43,2.15-2.85,2.18-.08-15.08,6.35-33.54,11.83-47.41,1.21-3.05,5.97-10.11,3.79-11.73-2.66-1.98-8.62,4.68-11.8,6.42,1.08-5.8,3.14-11.09,5.31-16.48,2.33-5.79,6.39-10.25,11.62-13.49l6.46-4.01c.84-.52,1.1-1.59.76-2.41-.82-1.98-9.36-1.29-8.86-6.66,1.53-2.61,5.89-2.99,8.49-4.11,6.39-2.74,13.46-3.43,19.85-.83.67.27.92,1.75,1.82,1.16.4-.26.93-.67.92-1.51l-.19-30.73,11.26,9.15c5.9,4.8,11.94,11.41,16.63,17.44l5.58-1.16c5.8-1.2,11.93.15,18.02-.14,15.75-.74,36.36,4.43,51.88,8.3.78.19,1.2,1.52,2.02,1.07s.77-1.27.79-2.27c-.61-4.2-.43-8.25.31-12.37,1.04-5.76,1.06-11.28,2.56-17.45,11.11,12.9,17.45,24.48,23.6,40.02,8.49,6.89,8.06,6.29,8.49,6.89,3.07,4.25,7.39,8.11,10.71,12.13,8.02,9.72,20.89,27.49,19.34,40.31-2.82-1.14-6.05-6.23-7.97-4.5-.42.38-.97,1.33-.67,2.17,2.14,6.08,4.12,11.98,5.9,18.2,1.36,4.79,4.22,19.21,1.92,23.62l-7.5-11.96c-.63-1-1.63-1.57-2.6-1.06-.65.35-1.22,1.4-.98,2.45,3.83,16.66,2.65,22.62-.04,38.19Z"/>
    <path id="_ปาก-3" data-name="ปาก" class="cls-3" d="M676.64,120.17c-1.1,2.96-5.22,17.76-9.21,15.04-1.25-.85-.58-1.94.19-3.01,5.86-8.14,5.12-16.86,6.68-17.69,2.51-1.35,4.79,2.63,6.2,5.15l5.93,10.56c.45.81.15,1.57-.24,1.95-.56.55-1.92.54-2.48-.38l-7.07-11.62Z"/>
    <path id="_ฐานตาซ้าย" data-name="ฐานตาซ้าย" class="cls-4" d="M672.48,111.7c-1.32,5.27-6.45,7.61-11.31,7.75-4.36.12-7.42-2.85-8.94-6.41s-.78-8.09,2.48-11.37,9.64-3.84,13.64-1.05c3.26,2.27,5.15,7.05,4.13,11.09Z"/>
    <path id="_ตาขาวซ้าย-2" data-name="ตาขาวซ้าย" class="cls-2" d="M668.92,111.58c-1.68,3.37-5.76,4.9-9.14,4.19-2.92-.61-4.5-3.57-4.72-6.07-.23-2.67,1.32-5.73,3.88-6.67,2.88-1.06,5.83-.95,8.07.92,1.77,1.48,3.25,4.94,1.9,7.64Z"/>
    <path id="_ตาดำซ้าย-2" data-name="ตาดำซ้าย" class="cls-9" d="M666.56,108.64c.37,1.72-.21,2.83-1.32,3.53s-2.49.44-3.33-.49c-.97-1.08-1.06-2.66-.16-3.86.63-.84,1.53-1.27,2.44-1.29.97-.02,2.06.65,2.37,2.11Z"/>
    <path id="_ฐานตา_ขวา" data-name="ฐานตา ขวา" class="cls-4" d="M679.58,113.12c-2.86-1.45-3.86-4.45-4.5-7.13-1.01-4.17.46-7.62,3.98-9.98s8.65-3.38,12.27-.27c3.91,3.36,4.19,9.61,1.36,13.57-2.9,4.06-8.1,6.36-13.11,3.82Z"/>
    <path id="_ตาขาว_ขวา" data-name="ตาขาว ขวา" class="cls-2" d="M681.44,110.05c-2.52-1.3-3.79-5.67-2.73-8.3,1.38-3.42,5.75-5.14,9.01-4.09,2.21.72,3.2,2.94,3.41,4.49.32,2.32-.3,4.2-1.89,5.86-1.82,1.9-4.74,3.62-7.8,2.04Z"/>
    <path id="_ตาดำขวา-2" data-name="ตาดำขวา" class="cls-9" d="M686.44,108.26c-2.22.61-3.6-1.3-3.65-2.93-.06-1.76,1.49-3.39,3.49-3.04,1.37.24,1.9,1.64,2.12,2.65.28,1.25-.14,2.82-1.96,3.31Z"/>
  </g>
</svg>