<?xml version="1.0" encoding="UTF-8"?>
<svg id="Layer_1" data-name="Layer 1" xmlns="http://www.w3.org/2000/svg" viewBox="0 0 2993.74 1275.77">
  <defs>
    <style>
      .cls-1 {
        stroke-width: 8px;
      }

      .cls-1, .cls-2, .cls-3 {
        fill: none;
        stroke: #231f20;
        stroke-miterlimit: 10;
      }

      .cls-2 {
        stroke-width: 9px;
      }

      .cls-3 {
        stroke-width: 5px;
      }
    </style>
  </defs>
  <g id="tail">
    <path d="M1417.17,850.31c-.23-.23-.53-.41-.84-.55-1.22-.08-2.41-.21-3.56-.4l-1.55-.26c-.78-.13-1.57.13-2.12.7l-1.1,1.13c-10.31,10.64-23.05,22.86-27.19,25.64-.03,0-.05.01-.08.02-20.54-2.89-26.38-2.02-29.52.45-1.15.9-1.96,2.1-2.34,3.43,0,.01,0,.02-.02.03-2.03,1.7-9.12,3.9-11.53,3.51,0,0-.02,0-.02,0-4.38-2.14-10.11.48-19.71,5.24-2.19,1.09-5.2,2.58-7.22,3.4-.04.02-.09,0-.11-.05-.22-.54-.45-1.14-.65-1.65-1.71-4.45-4.28-11.16-11.33-14.18-1.61-.69-3.16-.99-4.64-.99-6.36,0-11.49,5.6-15.43,9.91-1.52,1.67-4.02,4.4-5.22,4.98-.01,0-.03,0-.05,0-3.06-.34-8.03-2.88-10.48-4.66-.04-.42-.13-.85-.28-1.27-1.12-3.25-3.7-4.41-13.85-6.21-5.39-.95-9.22-1.41-11.45-1.38,0,0-.01,0-.02,0-.94-.34-2.93-1.26-4.57-2.02-8.36-3.87-15.76-7.03-21.63-6.37-1.76.2-3.91.49-6.39.83-7.61,1.03-19.12,2.6-24.19,1.75-4.82-1.05-25.81-18.03-32.71-23.61-3.79-3.07-5.82-4.71-6.92-5.47-1.2-.84-2.46-2.39-3.29-3.69-.02-.03-.02-.06,0-.08.34-.55.58-1.15.71-1.74.94-4.36-3.09-6.34-4.81-7.18-1.31-.64-3.12-1.46-5.21-2.41-4.23-1.91-15.69-7.1-20.45-10.56-.05-.03-.03-.1.02-.13,3.28-1.75,4.08-4.6,4.08-6.96,0-7.19-8.56-8.5-21.52-10.49-4.25-.65-10.77-1.65-14.21-2.74-.01-.07,0-.05-.02-.12,2-1.62,6.39-5.08,4.64-10.33-.98-2.93-3.79-5.11-15.42-13.19-5.51-3.83-15.24-10.58-18.42-13.98-.03-.03-.04-.08-.01-.13.26-.5.53-.99.79-1.47,1.65-3.02,3.9-7.15,1.63-12.27-.98-2.2-3.29-4.22-9.82-9.75-4.85-4.1-10.88-9.21-15.56-14.13-6.81-7.17-6.7-9.73-6.69-9.83.4-5.14,2.1-6.83,3.9-8.63,1.39-1.39,3.3-3.29,3.68-6.32.38-3-1.31-6.12-7.21-16.49-3.33-5.85-9.38-16.47-10.14-20.21,0-.02,0-.04.01-.05.99-1.11,3.96-2.67,5.48-3.48,3.64-1.93,7.4-3.92,8.67-7.71,1.22-3.66-.93-7.48-5.64-15.86-2.46-4.38-7.3-12.99-8.04-16.86,0-.04.02-.08.06-.08,1.2-.23,2.27.09,4.22.75,3.05,1.03,7.65,2.6,13.45-.3,7.6-3.8,5.73-15.71,3.36-30.78-.7-4.44-1.67-10.6-1.78-14.28,0-.08.09-.12.15-.07.84.68,1.75,1.51,2.42,2.12,2.92,2.65,6.22,5.66,10.34,5.97,6.85.52,9.01-7.05,11.2-17.15.03-.12.19-.11.21,0,.64,3.29,1.85,6.18,4.35,8.06,2.03,1.52,4.54,1.86,6.73.91,2.92-1.27,4.34-4.13,5.27-8.68.02-.12.19-.13.23-.02,1.38,3.63,2.65,6.05,4.35,7.54,1.61,1.41,3.69,1.97,5.7,1.53,3.84-.84,5.52-4.55,7.29-8.49.28.82.54,1.63.77,2.34,2.17,6.72,4.63,14.34,10.97,16.95,7.81,3.22,12.59-4.77,15.88-12.07.04-.09.17-.07.19.03,1.34,8.01,3.48,15.79,10.56,16.24,6.78.43,8.87-5.15,9.6-9.44.01-.07.1-.1.14-.04,1.7,2.45,3.68,5.68,5.54,9.47,3.14,6.38,4.22,10.82,4.39,13.22,0,.03,0,.05-.02.08-.73,1.1-1.36,2.07-1.82,2.8-2.79,4.5-1.26,7.12.51,8.52,4.03,3.19,7.61-.61,9.14-2.24,1.09-1.16,1.88-2.55,2.37-4.16.29-.97.72-1.91,1.28-2.76,1.11-1.71,2.11-3.3,2.98-4.77.03-.05.09-.05.13,0,2.09,2.66,4.82,6.65,7.46,11.49,5.64,10.35,5.95,15.38,5.63,16.32,0,0,0,0,0,.01-.55,1.28-.92,2.08-1.11,2.53-2.3,5.14,2.31,7.47,2.35,7.49,1.88.92,5.37,1.01,7.27-2.54.87-1.62,1.6-2.78,2.18-3.61.03-.04.08-.04.11,0,4.73,6.53,13.98,24.47,13.67,34-.15,4.65,1.27,7.83,4.23,9.45,4.9,2.68,10.15-.91,14.78-4.08.16-.11.33-.23.51-.35.58-.4,1.37-.24,1.75.35,4.82,7.49,13.67,23.57,12.95,33.69-.68,9.51,4.66,14.75,8.19,18.21.76.75,1.92,1.88,2.47,2.64.03.04.02.08-.03.1-.7.35-1.71.73-2.4.98-2.31.87-9.34,3.49-7.13,10.13,2.06,6.17,9.19,5.15,13.91,4.48.74-.11,1.74-.25,2.63-.34.04,0,.08.02.09.06.17.91.34,1.93.51,2.89,1.22,7.17,2.05,11.99,5.88,13.79,1.61.76,3.51.78,5.13.05,1.01-.46,1.81-1.13,2.47-1.94.38-.48,1.15-.35,1.41.21,4.94,10.55,8.87,17.41,14.58,18.23,4.4.63,7.65-.78,9.81-1.71,1.7-.73,1.94-.77,2.2-.67,4.9,1.78,11.82,6.21,12.91,8.83,1.65,3.96,4.67,4.48,5.89,4.51,4.22.18,6.17-3.56,7.69-6.66.21.22.42.43.61.63,4.11,4.22,9.23,9.5,15.25,9.05,7.73-.55,8.42-8.45,8.68-11.42,0-.05.01-.11.01-.17,2.02.76,4.77,2,6.82,2.93,8.04,3.62,16.36,7.37,22.43,6.02,4.5-1,5.75-3.76,6.1-5.31.38-1.68.08-3.15-.6-4.44-.04-.07.02-.15.09-.13,8.01,1.64,17.98,4.68,20.07,6.56,2.8,3.08,5.69,3.05,7.17,2.75,3.37-.66,5.07-3.42,6.15-5.96.02-.05.07-.07.12-.05,3.84,1.68,8.33,4.22,8.92,5.84.76,2.5,2.23,3.96,4.09,4.73-.32-2.74.91-5.79.91-8.22,1.05-1.05,3.13-1.09,4.23-2.09-4.8-8.05-19.37-12.16-19.54-12.2-4.58-1.14-6.69,2.75-7.67,5.17-.02.04-.06.06-.1.03-4.92-2.74-12.4-4.85-17.12-6-17.22-4.22-20.74-1.87-22.07-.99-1.82,1.21-2.9,3.1-2.98,5.18-.02.67.05,1.3.2,1.89-2.2-.91-4.35-1.88-5.99-2.62-7.43-3.35-11.48-5.08-14.97-4.43-6.23,1.13-6.79,7.51-7.05,10.57-.02.23-.04.5-.07.78-1.75-1.27-4.08-3.66-5.37-4.99-3.4-3.5-5.86-6.02-9.34-6.02s-5.44,2.28-6.97,4.86c-.03.06-.1.07-.15.02-4.83-4.48-11.65-7.68-14.69-8.78-4.39-1.59-7.88-.09-10.18.91-1.48.64-2.37,1.02-3.39.98-.02,0-.03,0-.04-.02-2.26-2.09-6.32-10.89-8.09-14.75-3.45-7.5-4.74-10.3-8.22-11-2.1-.42-3.7.13-4.96,1.17-.07.06-.17.02-.19-.07-.28-1.48-.57-2.79-.92-3.85-1.08-3.24-3.56-4.5-6.35-4.87-.07,0-.11-.08-.08-.14.59-1.29.9-2.81.78-4.63-.31-4.63-3.33-7.59-6-10.21-3.29-3.23-5.29-5.43-4.98-9.74,1.25-17.54-15.83-42.55-18.18-45.28-4.11-4.79-9.77-.91-13.9,1.91-.55.38-1.28.87-2.02,1.36-.07.04-.15,0-.16-.08-1.11-15.08-14.66-40.16-21.08-43.37-1.49-.75-2.99-.98-4.48-.7-.05,0-.09-.02-.1-.06-3.21-10.72-11.48-22.68-14.5-26.45-4.33-5.39-8.08-8.43-13.06-5.84-.96.5-1.42,1.51-2.01,2.42-.04.06-.13.06-.16,0-3.73-8.84-11.93-23.63-18.73-24.76-2.05-.34-4.03.14-5.6,1.36-1.54,1.2-2.36,2.81-2.84,4.56-.18-1.08-.33-2.09-.46-2.93-1.18-7.76-2.19-14.47-8.47-14.47-5.11,0-7.19,4.95-10.07,11.8-1.01,2.41-2.91,6.92-4.41,9.12-.03.04-.09.04-.12,0-1.49-2.2-3.09-7.15-3.77-9.26-1.83-5.66-3.4-10.54-7.33-12.68-1.82-.99-3.88-1.18-5.8-.54-2.9.98-4.7,3.51-6.17,6.4-.04.08-.16.07-.19-.01-.43-1.25-.83-2.48-1.17-3.5-3.16-9.59-4.75-14.4-9.91-14.43h-.05c-2.85,0-4.84,1.68-5.93,5-.03.09-.15.1-.19.01-1.1-2.54-2.96-4.44-6.14-4.93-4.21-.66-7.37,2.13-9.41,8.25-1.08,3.23-1.97,7.45-2.83,11.53-.6,2.84-1.48,7-2.33,9.81-.02.07-.1.09-.16.04-.65-.56-1.31-1.16-1.83-1.62-3.61-3.28-10.32-9.38-17.12-4.15-5.09,3.91-3.7,12.72-1.6,26.04.98,6.24,2.59,16.43,1.73,19.74,0,.02-.02.04-.04.05-1.23.41-2.17.14-4.35-.61-3.08-1.05-7.74-2.63-13.75.22-2.12,1.01-3.69,2.81-4.41,5.07-1.95,6.12,2.31,14.43,9.04,26.41,1.31,2.34,2.97,5.29,3.92,7.26.02.03,0,.07-.03.09-.8.48-1.79,1-2.56,1.41-3.98,2.11-8.93,4.72-10.8,9.59-1.98,5.14,1.87,12.79,11.12,29.04,1.83,3.22,4.2,7.39,5.33,9.72,0,.03,0,.05-.02.09-2.37,2.36-6.36,6.31-7.06,15.47-.73,9.55,11.36,20.61,26.04,33.03,2.59,2.19,5.74,4.86,6.91,6.08.01.01.02.03.01.05-.17.55-.77,1.65-1.23,2.48-.65,1.19-1.46,2.67-2.19,4.43-2.82,6.77,5.06,12.61,23.15,25.18,3.08,2.14,6.93,4.81,9.44,6.73.04.03.04.08,0,.12-2.6,2.21-7.42,7.16-2.91,13.66,3.06,4.42,10.36,5.73,23,7.67,2.11.32,4.69.72,7.07,1.15-.06.11-.13.22-.19.34-1.76,3.43-.06,7.04.5,8.23,2.53,5.39,19.16,15.7,26,17.41,2.25.56,3.23,2.99,4.65,5.14,1.76,3.03,5.09,7.18,7.89,9.14.84.59,3.38,2.64,6.32,5.02,19.77,15.99,31.63,24.85,37.7,25.86,6.71,1.12,18.21-.44,27.45-1.7,2.42-.33,4.5-.61,6.13-.79,3.35-.39,11.52,3.41,15.9,5.44,4.96,2.3,7.17,3.32,9.5,3,2.22.01,10.35,1.31,14.62,2.33.02,0,.03.02.04.03,3.12,5.66,15.01,10.82,20.67,11.18,5.5.35,9.61-4.15,13.58-8.5,2.22-2.42,6.34-6.94,7.85-6.28,2.65,1.14,3.95,4.09,5.5,8.13,1.49,3.88,3.53,9.2,9.29,9.2,3.12,0,6.98-1.84,13.55-5.1,3.36-1.66,8.82-4.37,11.03-4.81.01,0,.02,0,.03,0,6.05,2.32,15.8-1.51,18.91-3.14,2.93-1.54,4.96-3.3,6.07-5.28,0-.02.02-.03.04-.03,2.21-.25,7.6-.22,20.69,1.62.73.1,1.29.18,1.64.23,2.64.32,5.9.73,33.01-27.06.02-.02.06-.03.09-.03.02-.13.04-.26.04-.36,2.16-3.24,4.32-6.48,3.24-9.71Z"/>
  </g>
  <g id="Leg_L" data-name="Leg L">
    <path d="M1609.31,1107.68c-.02.19-.03.38-.03.57-3.24-2.16-6.48-4.32-9.71-6.48l-.09-.19c-.01.07-.03.13-.04.19-.9,7.65-2.15,14.32-3.34,17.59-1.52-1.2-3.55-3.26-4.93-4.64-4.62-4.67-9.39-9.49-15.13-9.29-4.42.16-9.83,4.19-20.67,12.57-6.03,4.66-17.03,13.16-20.99,14.06-.19-.85.12-2.94.29-4.1.5-3.4,1.19-8.05-2.62-11.04-1.47-1.15-3.36-1.59-5.17-1.2-3.78.82-5.68,4.5-8.57,10.07-1.46,2.81-4.38,8.45-6.24,9.91-2.71-1.21-4.27-3.85-5.66-6.19-1.45-2.44-3.08-5.2-6.42-5.84-3.62-.69-6.25,1.65-12.59,7.28-2.55,2.26-6.9,6.13-9.47,7.74-.64-1.08-1.33-2.68-1.72-3.6-1.19-2.76-2.31-5.36-4.63-6.98-1.34-.94-2.98-1.27-4.6-.93-3.52.73-5.66,4.16-9.87,10.98-.11-1.05-.4-2.07-.92-3.03-.97-1.79-2.61-3.05-4.63-3.56-8.23-2.09-13.82,8.33-21.25,28.27l-.5,1.34c-1.21,3.22-1.35,9.4-1.49,20.06-.09,6.81-.24,17.98-1.23,21.18-1.45,1.34-2.46,3.08-3.26,4.98-.4-.65-.94-1.25-1.64-1.8-.99-.76-2.25-1.11-3.5-1.02-3.93.28-5.31,2.38-13.21,15.47-2.18,3.62-5.42,8.98-7.7,12.26-1.54-2.23-3.34-4.73-6.84-5.05-.89-.08-1.8.09-2.61.46-3.35,1.56-3.97,4.65-4.86,9.11-.03.13-.05.27-.08.42-1.44-2.92-2.91-5.6-5.7-6.87-.95-.43-1.85-.63-2.7-.65-2.42-.05-4.4,1.37-5.98,3.06-.13-.78-.25-1.5-.34-2.11-1.08-6.78-1.58-9.87-3.99-11.76-3.42-2.68-6.54-1.02-9.1,1.42-.13-1.24-.26-2.49-.38-3.67-2.52-24.43-3.81-31.16-8.47-33.36-1.64-.77-3.57-.88-5.27-.25-2.03.75-3.47,2.26-4.65,4.26-.04-.54-.08-1.06-.12-1.56-1.13-14.18-1.6-20.05-6.38-21.97-5.02-2.01-9.06,2.3-12.97,6.46-.42.45-.93.99-1.46,1.54-.32-3.55-.45-8.24-.54-11.54-.32-11.11-.55-15.08-2.93-17.57-1.92-2.01-5.03-2.99-10.81-4.71-2.11-.63-5.5-1.63-7.78-2.56-.53-.22-.78-.81-.57-1.34,1.4-3.55,4.34-9.44,6.46-13.68,6.94-13.9,9.68-19.98,8.81-24.18-.83-3.98-3.5-6.8-5.86-9.29-1.02-1.07-2.06-2.17-2.72-3.15-.35-.52-.13-1.24.47-1.46,1.62-.61,3.96-1.18,5.31-1.5,4.59-1.11,9.35-2.26,10.12-6.97.42-2.57-.53-5.07-1.64-7.95-.56-1.45-1.69-4.41-1.61-5.53,1.35-2.29,1.99-5.67,2.97-11.33.61-3.5,1.69-9.7,2.86-12.05,4.51-.72,9.99-4.66,18.07-10.66,3.61-2.69,8.94-6.65,11.19-7.58.76,1.43,2.06,3.28,4.58,4.61,5.32,2.81,10.38-2.02,18.76-10.03,3.41-3.26,9.89-9.44,13.63-11.58.4-.23.89.07.88.53-.04,2.14-.48,5.13-.73,6.84-.35,2.39-.67,4.65-.68,6.59-.01,6.21,3.76,7.72,5.38,8.08,5.34,1.18,10.14-4.01,18.87-14.06.24-.28.5-.57.75-.87,1.54,1.81,3.66,2.71,5.3,3.16,7.47,2.04,11.96-6.08,15.92-13.25,1.53-2.78,4.34-7.85,5.9-8.95,5.93-.24,10.59-7.32,22.8-28.11,2.31-3.93,5.24-8.91,8.16-13.59,1.76-2.82.86-6.53-1.99-8.26-.03-.02-.06-.04-.09-.06-2.18-1.32-5.03-.64-6.39,1.52-2.63,4.18-5.59,9.13-9,14.93-4.79,8.15-11.92,20.28-14.94,22.84-6.28.66-10.15,7.67-13.91,14.46-.61,1.1-1.37,2.49-2.16,3.82-.16.27-.56.21-.65-.1-.2-.71-.54-1.42-1.09-2.12-1.11-1.4-2.81-2.22-4.66-2.26-3.59-.08-5.92,2.6-12.13,9.76-1,1.15-2.29,2.64-3.64,4.15-.2.23-.57.06-.54-.25.54-4.8.52-9.63-2.19-12.99-1.6-1.98-3.86-3.13-6.53-3.31-6.73-.5-13.77,5.75-23.76,15.29-2.27,2.17-5.12,4.89-7.15,6.55-1.51-2.75-4.34-5.55-10.83-3.97-3.78.92-8.36,4.23-15.53,9.56-4.11,3.05-10.95,8.14-13.23,8.65-8.24-.01-10.09,10.6-11.88,20.87-.46,2.66-1.16,6.66-1.66,7.73-2.99,4.84.93,15.05.97,15.16-.37.09-.74.18-1.06.26-5.8,1.4-14.56,3.52-14.73,11.46-.12,5.71,3.63,9.67,6.37,12.56,1,1.05,2.18,2.3,2.77,3.27.18.3.23.65.15.99-.86,3.31-5.08,11.74-7.69,16.97-7.22,14.44-9.43,19.45-7.93,23.42,1.88,5.02,8.61,7.02,16.41,9.33,1.46.43,3.39,1.01,4.81,1.5.43.15.72.52.76.97.25,2.53.37,6.73.45,9.77.43,15.2.89,22.59,6.65,24.45,5.41,1.75,9.75-2.83,13.94-7.29.32,2.87.58,6.24.79,8.9,1.1,13.79,1.57,19.73,6,21.8,1.6.75,3.49.82,5.13.15,2.7-1.1,4.17-3.66,5.53-7.03.76,5.43,1.42,11.85,1.88,16.23,1.43,13.84,1.65,15.97,4.09,17.88,3.67,2.88,7.01.75,9.66-1.98,1.24,7.65,2.16,11.82,5.11,13.88,1.42.99,3.14,1.37,4.84,1.05,2.85-.53,4.66-2.71,6.29-5.05,1.92,3.88,4.61,8.63,9.93,8.74,5.27.11,7.49-4.5,8.72-9.08,1.35,1,2.98,1.73,4.96,1.77,4.49.1,6.99-3.33,16.66-19.36.44-.73.91-1.5,1.39-2.29,1.12,1.6,2.86,2.82,5.56,3.13,7,.8,9.29-6.4,10.81-11.15.5-1.58,1.34-4.2,1.93-4.95,4-3.03,4.45-10.06,4.69-28.98.08-6.13.19-14.52.8-16.39l.52-1.38c1.1-2.94,2.09-5.49,3-7.7.17.44.39.88.66,1.3,1.15,1.79,3.01,2.9,5.23,3.12,6.12.6,10.4-5.81,16.88-16.32.4-.64.83-1.34,1.27-2.04,1.35,2.82,3.17,5.71,6.28,7.35,5.79,3.06,12.43-2.84,20.82-10.29,1-.89,2.18-1.94,3.25-2.85,2.02,3.31,5.29,7.92,11.42,10,6.85,2.33,11.68-3.2,15.38-9.4.97,2.21,2.76,4.22,5.92,5.52,6.85,2.83,16.41-4.14,31.44-15.75,5.1-3.94,11.99-9.27,14.53-10.26,1.62.6,5.09,4.11,7,6.04,4.72,4.77,9.61,9.71,15.42,8.59,5.46-1.05,8.31-7.12,10.52-22.4.03-.24.06-.47.1-.71-.08-.04-.15-.08-.21-.13Z"/>
  </g>
  <g id="arm_L" data-name="arm L">
    <path d="M1952.46,570.31c-.77-.76-1.71-1.68-2.57-2.56-.41-.41-.32-1.1.17-1.4,1.02-.63,2.1-1.27,2.94-1.76,5.33-3.14,9.19-5.41,10.15-9.19,1.55-6.06-4.95-9.03-13.95-13.14-1.53-.7-3.47-1.59-5.1-2.39-.58-.29-.85-.97-.63-1.58,2.17-6.04,3.79-12.16,1.62-16.94-2.24-4.92-9.54-7.51-26.14-11.79-3.07-.79-5.97-1.54-7.36-2.04-6.04-2.15-13.29,2.5-22.87,9.32-1.22.87-2.76,1.96-3.83,2.66-.29.19-.62.26-.96.22-.42-.05-.88-.12-1.3-.17-10.29-1.39-19.14-2.16-23.34,2.57-4.07,4.58-1.41,10.28.79,13.92.25.42.25.94.02,1.37-1.07,2.03-1.97,4.57-2.95,7.35-.33.93-.74,2.09-1.13,3.11-.19.5-.66.83-1.2.83-4.03,0-11.82.19-14.17-1.25-1.33-.82-.22-1.77-.09-2.05,1.31-2.84,2.66-5.78,1.76-8.93-1.18-4.11-5.5-6.07-20.88-11.18-.71-.23-1.46-.49-2.2-.73-.53-.18-.85-.72-.74-1.27.53-2.65.73-6.06-1.13-9.46-1.43-2.62-5.33-6.86-11.58-13.55-2.5-2.68-5.91-6.33-7.99-8.77-.37-.43-.43-1.05-.16-1.55.09-.16.18-.33.26-.49,4.98-9.19,9.72-18.75,8.16-25.76-.75-3.36-3.26-7.91-23.29-19.37-.92,3.5-2.12,7.15-2.84,10.84,7.09,4.18,12.74,7.96,14.94,10.3.52.55.76,1.29.68,2.04-.5,4.53-5.41,13.59-7.15,16.8-1.66,3.07-2.35,4.34-2.62,5.68-.75,3.73,1.27,6.03,12.1,17.63,3.63,3.89,9.12,9.76,9.99,11.35.43.79-.03,2.54-.41,3.94-.6,2.26-1.72,6.47,1.91,9.19,1.22.92,2.93,1.51,8.64,3.4,3.38,1.12,11.84,2.56,13.01,4.7.67,1.23-.95,2.88-1.04,3.07-1.4,3.04-3.93,7.73,2.13,11.48,3.26,2.02,11.29,3.37,14.59,3.86,12.36,1.84,14.39.22,15.73-.86,2.03-1.62,3.06-4.36,4.86-9.44.53-1.49,1.31-3.71,1.94-5.15.15-.34.41-.61.72-.81.76-.5,1.4-1.19,1.86-2.03,1.76-3.23-.05-6.04-1.65-8.52-.22-.33-.51-.78-.8-1.27-.35-.57.06-1.3.73-1.3,2.49-.01,6.19.31,11.07.97,2.15.29,3.22.43,4.1.43,2.6,0,4.83-1.58,9.69-5.04,2.84-2.02,8.98-6.38,12.21-7.55.61-.22,1.28-.22,1.89-.03,1.8.57,4.24,1.19,7.18,1.95,4.52,1.17,14.35,3.7,18.2,5.68.59.3.94.92.88,1.58-.18,1.83-1.07,4.88-2.66,9.13-.46,1.23-.82,2.19-1.06,3.01-1.69,5.9,4.2,8.59,13.1,12.66.98.45,2.84.77,3.73,1.57.51.46.37,1.31-.24,1.63-.76.41-2.85,1.42-3.21,1.63-5.61,3.3-7.52,4.29-8.06,8.66-.52,4.14,2.67,7.27,7.96,12.45,2,1.96,5.38,5.28,6.92,7.44.35.49.25,1.17-.21,1.56-1.35,1.13-3.63,2.52-5.03,3.37-3.84,2.34-7.47,4.55-8.87,8.05-1.55,3.87-.11,8.22,1.4,12.84.35,1.06.83,2.51,1.17,3.78.14.51-.27,1-.79.98-.4-.02-.8-.04-1.15-.06-3.47-.2-7.78-.44-11,2.37-4.28,3.74-2.08,9.62.05,15.31.63,1.68,1.69,4.51,2.23,6.75.15.62-.52,1.11-1.06.78-2.63-1.56-6.08-4.23-8.26-5.9-6.62-5.11-11.4-8.8-16.1-6.19-4.72,2.62-4.36,9.26-3.66,22.49.18,3.36.43,8.07.42,11.79,0,.56-.66.86-1.09.5-2.49-2.13-5.34-4.86-7.26-6.69-8.22-7.86-12.35-11.81-17.19-9.05-3.99,2.28-4.01,7.18-4.03,13.96,0,1.87-.02,4.81-.22,6.99-.06.62-.66,1.05-1.27.9-2.77-.68-6.8-2.03-9.77-3.03-10.06-3.38-16.5-5.35-21.13-4.16-3.12.8-4.71,2.69-5.49,4.14-2.12,3.94-.59,8.37.76,12.29.08.24.17,1.4-1.13,1.79-1.62.39-7.98-2.17-11.48-2.73-9.4-1.49-12.65-1.9-15.15-.95-2.25.84-3.73,2.79-3.87,5.08-.18,2.85,1.36,4.56,3.72,6.07.16.1.06.35-.13.31-1.49-.3-2.9-.6-4.06-.85-9.67-2.07-15.52-3.33-18.95.6-1.4,1.6-1.98,3.66-1.59,5.66.22,1.12.68,2.08,1.32,2.92.09.12,0,.28-.14.27-4.41-.36-9.36-.88-13.82-1.37,1.93,2.89,4.68,5.79,1.38,11,.77.08,1.52.16,2.25.24.25-.14.48-.28.67-.48v.55c8.3.86,14.09,1.3,18.21,1.3,6.56,0,8.88-1.11,10.4-3.4,1.12-1.68,1.46-3.66.96-5.56-.05-.2-.11-.39-.18-.58,9.08,1.9,16.8,3.11,21.18-.9,1.93-1.77,2.82-4.09,2.51-6.52-.08-.64-.24-1.24-.46-1.81,10.55,1.53,16.11,1.62,18.84-2.26,2.57-3.65,1.06-8.03-.28-11.9-.1-.3-.23-.65-.35-1.02-.2-.58.31-1.16.91-1.03,3.42.77,8.32,2.42,11.65,3.53,9.4,3.16,14.91,4.88,18.88,3.56,6.16-2.05,6.55-9.55,6.6-17.16,0-.54.65-.81,1.04-.44.68.64,1.33,1.27,1.92,1.83,9.57,9.16,15.27,14.25,20.84,12.39,6.61-2.2,6.13-11.29,5.32-26.35-.12-2.31-.28-5.18-.35-7.77-.02-.62.7-.98,1.19-.6.55.42,1.07.82,1.55,1.19,7.76,5.99,17.42,13.44,23.96,6.89,5.56-5.56,2.57-12.94.02-19.76-.35-.94-1.27-2.67-1.34-3.8.32-.6.98-.43,1.38-.41,3.76.21,10.05.57,12.77-4.89,2.08-4.17.45-9.15-1.14-13.96-.41-1.23-1-3.03-1.31-4.37-.15-.64.11-1.31.64-1.69,1.01-.72,2.43-1.59,3.5-2.24,5-3.04,10.66-6.49,11.13-12.49.44-5.71-5.05-11.1-10.86-16.8Z"/>
  </g>
  <g id="body">
    <path d="M1421.48,809.3c2.16,0,3.24,1.08,5.4,1.08,0-3.24,2.16-5.4,5.4-6.48-1.06-1.06-1.09-3.15-2.1-4.25-.14-.11-.26-.23-.41-.34-1.98-1.41-3.91-1.85-5.64-1.79-.54.02-.92-.51-.67-.97,1.57-2.93,3.48-6.22,5-8.84,8.22-14.19,11.4-20.42,9.66-25-1.26-3.32-3.97-4.05-5.07-4.21-4.35-.62-7.11,2.88-10.59,7.31-.87,1.11-2.28,2.91-3.59,4.33-.4.44-1.15.21-1.2-.37-.21-2.72.23-7.89,3.21-17.46,2.58-8.27,6.18-17.1,9.36-24.47-3.14-3.83-6.73-7.19-9.84-10.29,0,0,1.08-2.16,2.16-3.24-.05-.02-.1-.03-.15-.05-.06.1-.14.21-.2.3-.57.86-1.24,1.89-1.85,2.74-.08-.69-.09-1.83.14-3.59-2.38-.68-4.19-1.41-3.35-4.79h-6.46c-1.6,7.62-1.14,13.08,2.41,16.41,1.78,1.67,3.62,2.71,5.49,3.1.03,0,.05.04.03.06-11.26,27.06-15.66,45.15-6.73,51.98,1.81,1.38,3.95,1.97,6.2,1.69.6-.07,1.18-.2,1.75-.39-.21.36-.41.7-.6,1.04-8.17,14.09-12.26,21.16-7.07,25.42,3.3,2.71,6.57,2.22,8.89,1.29.04-.02.08.01.07.05-.38,1.54-.88,3.32-1.39,5.11h.65c1.08-1.08,1.08-3.24,1.08-5.4Z"/>
    <path d="M1759.6,820.23c4.81,1.48,14.81,4.56,17.84-3.6,1.56-4.19-.1-10.42-3.16-21.06-1.02-3.54-2.49-8.63-3.22-12.41-.27-1.41,1.18-2.55,2.57-2.02,0,0,.02,0,.03,0,3.65,1.39,12.2,4.65,15.61-3.19,2-4.6-.94-11.94-12.85-36.6-2.02-4.19-4.39-9.09-6.38-13.46-.65-1.43.76-2.94,2.3-2.46,2.88.89,6,.81,8.22-2.38,2.22-3.19,1.48-7.71-4.67-28.41-1.1-3.71-2.41-8.12-3-10.53-.09-.39-.05-.79.13-1.16,7.04-14.93,3.45-52.45-11.45-120.48-1.19-5.43-3.22-11.88-5.93-19.01-.88-2.32-3.58-3.48-6-2.62l-.1.03c-2.93,1.04-4.42,4.16-3.37,6.97,2.3,6.19,4.04,11.84,5.1,16.7,17.98,82.12,16.25,107.98,11.64,115.21-1.63,2.55-1.03,4.56,2.86,17.65.92,3.11,2.23,7.49,3.32,11.53.39,1.45-1.1,2.7-2.54,2.14-2.59-1-5.35-1.37-8.09-.06-5.77,2.77-2.81,9.86-.42,15.56,2.2,5.25,5.42,11.93,8.83,19,4.13,8.56,10.02,20.75,11.87,26.65-.43-.16-.84-.32-1.21-.45-3.96-1.51-10.6-4.04-15.17.89-4.07,4.39-2.09,12.19,1.77,25.59.94,3.26,2.18,7.56,2.87,10.83.28,1.34-1.04,2.49-2.41,2.09-.66-.19-1.28-.38-1.78-.54-4.53-1.4-11.37-3.5-13.97,2.32,0,0,0,0,0,.01.76,1.15.87,2.94,1.82,3.89,2.16,2.16,5.4,3.24,8.63,4.32.08,0,.15.03.22.08-.08-.38-.16-.75-.23-1.11.11.03.21.07.31.1Z"/>
  </g>
  <g id="Leg_R" data-name="Leg R">
    <path d="M1949.88,1141.4c-2.69-9.38-16.18-10.31-29.07-9.77,3-2.51,4.79-4.78,5.14-7.41.24-1.85-.29-3.65-1.51-5.06-3.16-3.68-8.36-3.67-37.09.08-7.05.92-16.68,2.17-18.86,2.01-.86-.19-1.06-.32-1.06-.32-.4-.43-1.14-2.52-1.79-4.37-.32-.92-.68-1.94-1.1-3.08-3.25-8.8-17.07-6.68-33.08-4.21-1.34.21-2.82.43-4.29.65,1.98-2.18,3.73-4.86,4.04-8.18.6-6.39-6.68-10.85-15.11-16.02-1.92-1.18-4.61-2.82-6.67-4.27,3.76-.59,10.03-1.84,11.27-8.46,1.11-5.94-5.46-13.03-33.49-36.15-1.98-1.63-4.1-3.38-5.77-4.79,2.23-2.24,5.05-6.19,1.89-10.77-1.45-2.11-4.03-3.85-7.3-6.06-2.65-1.8-8.17-5.53-8.7-7.49-.51-1.89.03-6.16.46-9.59.84-6.67,1.51-11.93-1.87-15.28-3.1-3.07-7.02-2.52-9.13-2.23-2.11.29-2.19.3-2.94-.79-1.54-3.82.77-22.09,2.01-31.94,1.85-14.68,2.36-19.68,1.22-22.69-1.35-3.58-4.19-5.61-8.47-6.08-.11-1.71-.31-3.73-.55-6.15-.18-1.8-.42-4.34-.58-6.69,1.63.89,3.52,1.49,5.7,1.21,1.6-.21,3.9-1,5.75-3.57,2.93-4.07,1.49-10.7-3.05-27.22-1.26-4.57-2.95-10.73-3.76-14.98,2.74,1.67,7.01,3.55,11.25.61,2.03-1.41,6.8-4.71,2.27-36.03l-.21-1.45-.94-1.15c-.39-.48-4.43-5.37-11.41-12.89-1.84-1.98-4.98-2.17-7.05-.42l-.08.07c-2.53,2.14-2.76,5.87-.51,8.29,4.68,5.04,7.92,8.77,9.42,10.53,1.19,8.76,1.75,17.47,1.49,22.23-2.72-1.77-8.48-5-13.46-.17-4.15,4.02-2.3,11.53,2.26,28.14,1.2,4.36,2.8,10.17,3.64,14.38-2.48-1.58-6.02-2.92-9.51-.22-3.8,2.95-3.42,8.69-2.28,20.36.27,2.75.63,6.39.6,8.03-.95,1.79-.72,3.64-.05,4.97,1.84,3.62,5.74,3.12,7.21,2.93.41-.05,1.17-.15,1.82-.18-.04,3.26-.98,10.7-1.76,16.84-2.87,22.71-3.84,33.97-.32,39.08,4.24,6.16,9.61,6.13,12.82,5.75-.1,1.63-.37,3.78-.57,5.39-.61,4.8-1.24,9.75-.18,13.64,1.57,5.78,7.69,9.92,13.09,13.58.77.52,1.67,1.13,2.47,1.7-1.89,1.66-5.28,5.01-3.04,9.36.81,1.56,1.99,2.59,10.91,9.94,6.79,5.6,23.57,19.43,28.54,25.62-.49.09-.98.16-1.38.22-3.49.54-9.98,1.53-11.3,7.95-1.32,6.42,5.56,10.64,14.29,15.98,3.07,1.88,7.98,4.89,9.7,6.66-.68,1.14-2.42,2.73-3.55,3.75-2.95,2.69-7.42,6.77-5.02,12.18,2.43,5.49,8.94,4.49,21.91,2.49,5.81-.89,17.52-2.7,21.24-1.77.24.68.47,1.31.67,1.9,2.07,5.88,3.57,10.13,11.09,11.75,2.84.61,8.46-.03,22.62-1.88,5.46-.71,13-1.7,19.1-2.28-.31.22-.61.42-.88.61-5.7,3.96-8.56,5.95-8.25,9.72.16,1.99,1.37,3.72,3.23,4.62,1.98.96,4.05.81,10.22.36,4.85-.35,11.48-.84,17.26-.57,6.98.32,9.11,1.57,9.61,1.95-1.04,2.94-12.61,7.69-16.45,9.27-6.71,2.75-10.08,4.14-10.84,7.84-.93,4.53,2.9,7.47,6.61,10.31.69.53,1.67,1.28,2.54,2.01-3.55,1.7-9.5,3.98-13.83,5.64-16.66,6.39-22.59,9.06-23.71,13.96-.99,4.32,1.31,7.35,3.65,9.41-4.49.36-10.48.51-14.7.62-15.46.4-21.15.77-24.24,3.34-2.36,1.96-2.87,4.14-2.88,5.62-.02,2.73,1.51,4.67,3.08,6.15-5.41-.11-13.44-.86-19.39-1.42-19.76-1.85-26.46-2.18-30.12.92-1.58,1.34-2.48,3.17-2.54,5.14-.12,3.97,2.92,6.85,6.43,10.2,1.61,1.53,4.89,4.65,5.28,6.09-.04.04-.09.1-.16.16-2.49,2.41-7.03,1.26-12.71-.49-4.58-1.41-9.32-2.88-12.79.49-3.24,3.14-2.4,7.46-1.79,10.61.22,1.17.63,3.29.44,4.06-.02.01-.06.03-.1.05-1.29.62-4.87-1.24-7.23-2.48-3.9-2.04-8.32-4.36-12.91-2.87-5.3,1.71-6.88,7.36-8.15,11.9-.2.72-.47,1.68-.75,2.56-.41-.57-.81-1.18-1.12-1.65-2.27-3.42-5.69-8.59-11.99-8.59-3.47,0-7.12,1.42-10.64,2.8-2.1.82-5.91,2.32-7.36,2.2-1.01-1.68-.89-7.71-.83-10.67.11-5.49.2-10.24-2.15-13.42-.46-.62-1.19-2.4-1.78-3.83-2.18-5.29-5.82-14.16-14.92-14.16-8.39,0-10.16,8.5-11.23,13.57-.04.19-.08.4-.13.62-1.19-3.28-2.38-7.64-3.22-10.72-2.91-10.63-4.62-16.28-8.81-18.53-6.02-3.24-10.95.94-13.6,3.18-.13.11-.27.23-.42.36-1.15-4.85-2.3-14.4-3.2-21.78-3.23-26.59-4.85-37.4-12.84-38.05-4.52-.36-7.28,1.81-9.05,4.48-1.18-5.33-2.42-11.93-3.38-17.08-1.29-6.87-2.5-13.36-3.69-18.38-1.44-6.05-2.93-12.3-8.68-12.3-3.01,0-5.01,1.14-6.34,1.89-1.32.75-2.45,1.39-6.4,1.01-4.24-2.93-13.68-22.83-18.79-33.61-10.38-21.89-13.07-26.66-18.08-27.38-2.07-.3-4.08.27-5.65,1.6-2.83,2.39-3.56,6.45-3.68,12.85-.36-.84-.71-1.66-1.03-2.43-7.05-16.57-9.12-20.56-13.27-21.71-5.53-1.53-9.84,3.02-13.3,6.69-.21.22-.43.46-.67.7-3.01-5.62-7.96-16.36-12.13-25.42-16.69-36.26-20.25-42.33-25.36-43.32-7.36-1.43-10.37,5.35-11.78,8.29h0c-3.5-6.9-9.23-22.22-13.64-34-12.56-33.57-16.98-43.71-22.09-46.28-4.83-2.43-8.37-1.89-10.82-.62-.59-4.36-1.12-10.27-1.53-14.76-.56-6.24-1.15-12.7-1.9-17.62-.77-5-1.93-12.56-8.32-12.56-4.39,0-7.34,3.3-9.71,5.96-.37.41-.86.96-1.36,1.49.95-5.58,4.1-15.49,6.16-21.99,5.97-18.79,7.87-25.99,4.93-30.25,1.12-1.76,2.86-4.1,5.15-6.89,1.93-2.36,1.55-5.81-.92-7.64-.09-.07-.18-.13-.27-.2-2.24-1.67-5.45-1.33-7.21.81-3.97,4.84-6.74,8.86-8.06,11.59-.58,1.19-2.33,4.82.16,7.91.37.45.79.85,1.27,1.17-.63,4.43-3.61,13.79-5.68,20.32-6.88,21.66-9.88,32.24-2.92,36.17,7.08,4.01,12.59-.59,15.83-4.02.7,4.83,1.31,11.58,1.77,16.67,1.83,20.23,2.44,27.04,8.76,27.92,4.72.66,7.39-2.57,8.53-3.95.08-.09.17-.2.26-.31.1.04.23.09.36.15,3.38,3.77,11.65,25.86,17.15,40.58,14.06,37.57,16.81,42.84,22.68,43.35,6.86.6,9.82-5.04,11.43-8.38,4.22,7.08,11.7,23.33,16.96,34.77,3.76,8.17,7.32,15.89,10.2,21.68,4.29,8.59,6.55,12.71,11.28,12.34,3.86-.29,6.67-3.27,9.65-6.41.53-.56,1.23-1.3,1.91-1.97,1.81,3.49,4.36,9.48,6.21,13.82,6.98,16.42,9.43,21.65,14.4,22.34,1.82.26,3.67-.28,5.06-1.46,3.15-2.68,3.09-7.43,2.98-16.05,0-.6-.02-1.25-.02-1.95,2.05,4.08,4.31,8.83,6.22,12.87,12.78,26.95,19.2,38.86,27.07,39.76,5.81.66,9.2-.14,11.8-1.31,1.33,4.98,3,13.92,4.2,20.37,4.77,25.49,6.25,31.12,11.1,32.89,1.96.71,4.03.63,5.82-.23,2.75-1.33,3.94-3.9,4.79-6.45,1.38,6.6,2.62,16.81,3.46,23.78,2.84,23.37,3.95,29.07,8.37,31.45,6.02,3.25,10.96-.94,13.6-3.18.3-.25.66-.56,1.01-.84,1.09,2.6,2.41,7.42,3.35,10.85,3.31,12.08,6.16,22.51,14.3,22.51s9.66-8.16,10.68-13.03c.28-1.33.7-3.34,1.15-4.57,1.41,1.2,2.97,5,3.79,7,.89,2.17,1.74,4.23,2.89,5.87.37,1.19.3,4.79.25,7.19-.13,6.79-.27,13.81,3.76,18.21,5.49,5.99,13.7,2.79,19.69.45,2.21-.86,4.93-1.92,6.32-2.01.73.49,2.03,2.44,2.82,3.63,2.28,3.45,5.41,8.16,11.27,8.16,7.29,0,9.33-7.26,10.67-12.07.34-1.22.85-3.05,1.33-4.17,1.06.4,2.61,1.21,3.73,1.8,4.65,2.43,11.02,5.76,17.48,2.63,7.21-3.49,6.56-10.48,5.82-14.61.03,0,.06.02.08.03,6.16,1.9,16.47,5.09,23.94-2.15,2.86-2.77,3.45-5.71,3.44-7.69-.02-5.25-4.1-9.52-7.74-13.01,4.89.21,11.49.82,16.49,1.29,21.93,2.05,32.94,3.08,34.55-4.69.74-3.6-.63-6.4-2.32-8.47,3.82-.26,8.78-.39,12.58-.48,18.97-.49,26.76-.91,28.92-6.51,2.33-6.03-2.89-9.79-5.4-11.59-.11-.08-.24-.17-.36-.26,3.76-1.92,10.79-4.61,15.4-6.38,15.52-5.95,22.6-8.66,22.6-14.56,0-4.71-3.96-8.05-7.74-10.97.31-.13.61-.25.9-.37,10.41-4.27,26.14-10.73,22.87-22.13Z"/>
  </g>
  <path class="cls-1" d="M1610.51,685.42s-28.76,45.17-27.91,66.66c.47,12,7.36,14.66,12.28,13.84.27-.04.53-.09.79-.12,2.64-10.51,16.81-23.41,16.81-23.41-.22-.07,10.64.91,16.24,2.76,7.63-8.58,17.57-20.17,17.16-22.07-.62-2.87-35.37-37.66-35.37-37.66Z"/>
  <path d="M1600.9,832.78l-2.26-1.36c-2.67-1.66-2.98-3.96-4.13-12.53-.29-2.15-.72-5.36-1.18-8.03-2.44,1.85-5.42,4.31-7.54,6.07-8.09,6.69-10.54,8.71-13.97,8.03l-2.52-.5-1.25-2.32c-1.65-3.13-1.71-3.26,13.54-38.67,6.92-16.06,17.16-39.85,18.81-46.15-.39-1.35-.32-2.93.91-4.57,1.43-1.91,4.37-3,7.19-1.38,1.3.74,2.13,1.64,2.55,2.8,3.43,3.72,14.56,14.76,24.71,24.61l2.73,2.65-1.58,3.46c-.07.16-7.38,16.14-14.74,31.97-15.87,34.1-15.98,34.13-18.86,35.1l-2.41.8ZM1596.17,797.65c1.17,0,2.27.35,3.35,1.07,2.42,1.61,3.5,4.57,4.59,11.22,6.03-12.68,14.77-31.58,21.4-46.06-2.58-2.52-6.65-6.51-10.67-10.49-2.43-2.41-4.55-4.53-6.34-6.33-.85,2.22-1.87,4.75-3.03,7.62-3.83,9.49-8.99,21.47-13.98,33.05-2.27,5.28-4.77,11.07-6.98,16.3,5.14-4.1,8.65-6.39,11.65-6.39Z"/>
  <path d="M1380.47,685.18c-1.08,0-1.08-3.24-2.16-4.32-1.08,1.08-2.16,2.16-3.24,3.24-4.32-4.32-6.48-10.79-14.03-8.63,0-3.24-2.16-5.4-4.32-7.55,0,1.08-1.08,2.16-1.08,3.24,0-1.08,1.08-2.16,1.08-3.24h-4.32c1.51-6.03-3.82-9.95-5.7-14.7-12.26,15.98-23.15,37.33-28.2,62.58-9.01,45.05,14.08,83.34,20.07,99.1,5.99,15.77,9.78,73.2,9.78,85.03s-12.81,76.86-8.45,93.47c4.1,15.6,14.08,13.51,20.27,14.08,6.19.56,15.77.56,29.28-28.15,13.51-28.72,6.76-59.13,6.76-78.27s-13.51-76.02-14.08-91.78c-.56-15.77-5.07-74.89,10.7-100.23,2.63-4.22,5.6-8.14,8.8-11.81-5.84-6.44-12.3-12.85-21.16-12.04Z"/>
  <path d="M1652.42,632.45c-13.92-15.49-67.9-47.58-99.67-57.44-40.4-12.53-96.29,3.94-96.29,3.94-.17.05-.35.12-.52.18.25,1.36.02,3.74-1,7.83h-4.32c-3.24,3.24-4.32,7.55-3.24,11.87.98.98,4.59.2,4.47,4.85.89-4.01,5.46-.42,7.4.55,4.32,2.16-4.32,10.79,0,12.95,4.32,2.16,9.71,2.16,15.11,4.32,3.24,3.24,2.16,7.55,0,10.79h4.32c1.08,1.08,2.16,4.32,3.24,5.4,3.24,1.08,8.63-1.08,10.79,1.08,1.29.64,1.04,2.83.86,5.17,19.56-1.81,39.69-1.41,47.35-.23,14.64,2.25,56.31,30.41,59.69,41.67,3.38,11.26-2.82,27.59-2.25,50.68.56,23.09,23.09,38.85,27.59,42.8,4.5,3.94,30.41,6.76,42.23-6.19,11.83-12.95,15.77-22.52,18.02-61.94,2.25-39.42-25.9-69.5-33.79-78.27ZM1669.35,722.03l-5.12,6.4,4.18,8.28c.92,1.75.25,3.92-1.5,4.84-1.41.75-3.16.2-3.91-1.21l-3.21-6.37-3.54,4.42c-1.17,1.52-3.97,2.51-5.47,1.34l-.02.03c-1.5-1.18-1.12-4.1.04-5.62l5.56-6.95-4.81-9.54c-.89-1.68-.52-4.08,1.16-4.97l.28.32c1.48-.78,3.31-.21,4.09,1.27l3.72,7.38,3.1-3.87c1.17-1.52,3.85-2.34,5.35-1.16l.03-.03c1.5,1.18,1.24,3.93.07,5.45Z"/>
  <g id="arm_R" data-name="arm R">
    <path d="M1448.06,415.57c-.31.36-.54.74-.73,1.12.25-.39.49-.77.73-1.12Z"/>
    <path d="M1549.83,694.32c-2.22-2.04-5.36-2.53-10.28-2.07-.65.06-1.05-.7-.63-1.2,4.95-5.92,6.76-9.17,4.63-12.63-1.27-2.06-4.13-3.52-7.48-2.03-1.34.09-5.69-.91-12.59-3.98.75-13.87-.15-16.14-.6-17.25-1.43-3.57-4.29-5.36-24.28-6.4-.75-.04-1.18-.51-1.33-.71-.2-.27-.41-.7-.27-1.25.91-3.72.94-6.79.08-9.36-1.26-3.78-5.19-6.24-14.6-8.43.39-.47.71-.95.95-1.45,1.11-2.32.82-4.99-.77-6.98-1.99-2.49-5.55-3.45-16.05-5.76-.65-.14-1.36-.3-2.09-.46-.85-.19-1.16-1.24-.55-1.87.28-.29.55-.57.8-.84,5.96-6.39,6.02-8.27,6.06-9.51.07-2.03-.96-3.92-2.7-4.95-.68-.4-2.27-1.11-4.28-.56-.54.15-1.11.14-1.66.04-2.11-.35-5.52-1.27-8.81-2.26.08-.1.16-.21.24-.31,2.98-3.93,5.61-8.41,6.95-11.04,1.18-2.31,3.38-6.61-.3-9.61-1.39-1.13-3.28-1.8-7.15-1.95-1.19-.15-3.25.27-12.09-3.09,4.07-2.46,10.95-5.96,13.07-8.65,3.37-4.29-3.62-6.6-6.97-6.19-5.43.66-10.64,4.56-14.54,7.38-2.69,1.95-4.36,5.1-4.12,8.41.26,3.63,2.54,6.72,5.92,8.06,5.24,2.06,9.31,3.5,12.51,4.46.84.25,1.21,1.24.72,1.97-1.56,2.39-3.29,4.76-4.62,6.21-.44.47-3.38,2.09-3.96,2.37-2.13,1.04-2.75,3.29-2.75,3.29-.5.89.41,3.03.41,3.03,1.27,1.48,3.36,2.99,14.53,6.29.88.26,1.89.53,2.81.77.67.17.87,1.03.34,1.48-1.35,1.15-2.66,1.98-4.26,2.82-3.05,1.6-3.91,4.26-3.66,6.3.64,5.17,5.67,6.28,17.81,8.95.48.11,1.7.19,2.23.3-.39.09-1.44.19-1.69.21-3.35.05-5.29,2.55-5.48,5.01-.04.51-.22,4.98,5.15,5.87.44.07,1.08.17,1.87.29,11.66,1.76,16.99,3.2,19.43,4.15.69.27,1.11.97.99,1.71-.06.38-.15.83-.27,1.35-1.15,4.68.53,9.67,4.6,12.79,2.06,1.58,4.61,2.39,7.2,2.53,6.89.36,10.97.81,13.35,1.17.74.11,1.29.75,1.3,1.5.03,2.35-.04,5.98-.36,11.25-.2,3.4,1.69,6.59,4.78,8.02,3.96,1.84,7.24,3.12,9.97,3.99.79.25,1.06,1.23.51,1.85-2.88,3.26-6.01,6.54-7.61,7.73-2.94,2.21-3.01,5.21-2.18,7.1,1.93,4.38,5.82,3.65,12.89,2.33.63-.12,1.38-.26,2.21-.41-9.45,5.95-23.82,13.2-28.15,13.58-2.25-.34-4.4.32-5.92,1.84-3.14,3.13-2.2,7.87-1.21,12.88.07.36.15.78.24,1.22.15.78-.38,1.52-1.16,1.63-6.06.85-14.34,2.08-14.8,2.15l-4.21.62c-.7.1-1.17.76-1.05,1.46l.74,4.19c.01.08.04.2-.12.34-.15.13-.26.09-.34.07-22.31-7.44-30.95-9.49-34.72-9.99-1.19-.16-2.31-.69-3.17-1.53-5.08-4.89-15.07-18.29-20.25-25.24-7.32-9.82-9.27-12.44-11.34-13.11-.37-.12-.71-.29-1.03-.51-2.12-1.43-6.28-4.52-9.76-7.09-12.41-9.21-16.79-12.26-19.52-13.14-.74-.24-1.46-.52-2.12-.92-6.66-4.02-25.56-19.24-27.69-24.29l-2.23-12.37c-.06-1.1-1.59-5.3-2.01-6.33-6.03-14.62-8.47-22.37-10.52-28.92-7.62-24.26-5.35-29.51-5.03-30.09,1.52-1.27,2.49-1.64,6.25,2.18l.39.39c1.51,1.51,3.7,2.03,5.72,1.35,3.76-1.27,4.37-5.02,5.46-11.82.73-4.54,1.54-10.6,2.39-17.02,1.12-8.38,2.79-20.97,4.23-28.16,0,0,0,0,0,0,3.11,3.54,6.63,7.69,11.33,8.21,5.64.62,8.45-3.58,27.32-40.89,4.42-8.74,9.94-19.65,13.86-26.62,0,0,0,0,0,0,.79,4.84,1.54,9.4,5.97,10.51,4.55,1.14,6.82-2.52,11.79-10.53,3.14-5.07,7.04-11.7,11.17-18.73,4.44-7.55,10.04-17.06,13.68-22.75.18-.38.42-.76.73-1.12.36-.54.7-1.06,1-1.5.15.06.31.14.47.21-1.08-1.08-3.23-2.15-4.31-3.23,0-1.08,1.08-3.24,1.08-4.32-1.08,0-3.24-1.08-4.32-1.08,1.08,0,3.24,1.08,4.32,1.08.8-1.34,1.34-2.81,1.79-4.3-.25-.04-.48-.07-.67-.07h-.03c-3.54.04-5.38,2.4-11.14,11.68-3.42,5.51-7.73,12.84-11.9,19.93-2.73,4.64-5.93,10.08-8.75,14.75-.49.8-1.69.69-2.01-.2-.92-2.57-2.29-4.78-4.55-6.07-1.39-.8-3.02-.98-4.58-.51-4.12,1.24-7.16,6.21-23.23,37.99-5.7,11.28-13.89,27.48-17.97,33.65-.92-.92-1.93-2.07-2.66-2.91-3.42-3.89-7.28-8.3-12.58-6.79-4.99,1.43-6.1,5.57-10.73,40.34-.71,5.33-1.52,11.43-2.23,15.99-6.05-2.86-10.97-.66-14.36,2.21-6.08,5.15-5.68,17.1,1.34,39.94,2.14,6.97,5.86,17.48,12.34,33.22l2.41,13.67c.08,2.48,1.21,7.54,17.49,21.09,8.98,7.47,15.38,11.9,19.11,13.22.51.18,1.01.38,1.48.65,3.06,1.8,10.78,7.52,15.6,11.1,6.29,4.67,9.55,7.05,11.55,8.26.7.42,1.31.96,1.83,1.6,1.59,2,4.18,5.47,6.54,8.63,19.27,25.84,24.72,31.45,30.19,30.97.67.02,5.94.49,33.18,9.58,1.17.39,2.37.58,3.56.58,2.62,0,5.18-.93,7.24-2.72,1.28-1.11,2.27-2.45,2.93-3.93.22-.5.71-.84,1.25-.92,4.83-.71,11.82-1.72,14.58-2.06,1.88-.24,3.52-1.2,4.63-2.73,2.31-3.2,1.48-7.39.52-12.24-.05-.27-.11-.58-.18-.9-.15-.78.31-1.56,1.08-1.77,10.86-3.02,29.06-13.76,34.85-18.05,5.17-3.83,7.41-6.63,7.71-9.67.21-2.13-.56-4.18-2.12-5.61Z"/>
  </g>
  <g id="face">
    <path d="M1829.01,248.19l-.19-.55c2.24,1.16,4.88,1.37,7.9-.47,1.71-1.05,2.84-2.77,3.34-5.12,2.09-9.8-6.68-42.25-17.03-57.33-7.37-10.74-21.13-24.93-30.88-34.89,3.67.95,6.58,1.01,8.89-1.04,1.45-1.29,2.15-3.18,1.93-5.19-.63-5.53-11.24-15.72-17.8-19.45-2.35-1.86-16.27-14.42-20.34-18.55.02-5.57.7-11.89,1.41-18.54,1.37-12.76,2.92-27.22.17-40.75-.44-2.15-2.09-3.84-4.2-4.33-3.89-.89-6.27,2.06-9.86,6.52-2.4,2.98-5.51,7.07-8.8,11.4-5.57,7.33-14.51,19.1-18.33,22.74-65.91-19.39-117.62-17.67-149.53-12.77-24.73,3.8-41.57,9.96-49.71,13.45-1.49-4.41-3.36-10.44-5.18-16.33-9.32-30.11-10.62-32.52-14.42-33.81-1.76-.6-3.7-.29-5.21.8-2.57,1.86-3.43,4.34-9.9,33.65-2.15,9.75-5.16,23.4-7.14,30.25-5.96-1.65-14.84-.75-27.78,7.13-7.55,4.6-15.82,11.22-22.69,18.16-11.7,11.83-10.97,15.67-10.62,17.52.58,3.04,2.33,5.5,5.06,7.11,2.4,1.42,5.5,2.05,8.89,2.16-12.5,14.01-15.76,31.39-15.35,40.88.29,6.82,2.17,10.77,5.76,12.08,2.25.82,4.74.55,8.29-1.24-5.04,13.65-9.01,29.72-10.99,38.36-1.75,7.65-10.26,46.29-6.28,56.22,1.07,2.67,3.24,4.36,5.81,4.53,2.72.18,4.84-.95,9.15-6.24-1.14,10.33-2.03,21.75-2.5,29.38-2.93,46.63.92,52.03,2.18,53.8,1.46,2.05,3.72,3.11,6.07,2.85,2.32-.26,4.57-1.22,6.68-2.52-6.65,33.85-4.63,65.1,2.68,73.28,2.58,2.89,5.44,2.93,6.92,2.7,2.96-.46,5.51-2.85,8.63-7.77,1.82,10.77,5.84,29.58,7.11,30.62,3.51,3.19,6.4,1.78,8.02.23,1.91-1.83,1.06-7.36.53-9.61-1.85-7.99-3.93-16.22-5.33-24.92,1.33-16.27-.09-18.4-.94-19.68l-1.74-2.6-3.1.19c-3.28.21-4.19,2.02-6.87,7.39-1.24,2.49-4.29,8.58-6.74,12.56-2.92-10.5-4.68-39.91,4.82-74.79,1.25-4.58-1.87-6.63-2.51-7-3.95-2.26-6.85.72-9.65,3.59-1.28,1.32-3.97,4.07-6.38,5.88-.77-6.38-1.07-20.69.46-44.52,1.69-26.27,4.32-44.73,5.49-47.43,2.42-5.09-1.09-7.47-1.82-7.9-4.31-2.52-7.28,1.52-8.4,3.04-.77,1.05-1.82,2.55-3.03,4.26-1.33,1.88-3.48,4.94-5.61,7.82.67-8.84,2.85-23.4,7-41.46,6.11-26.6,13.57-47.62,19-53.55,3.8-4.14,1.09-7.43.5-8.05-.8-.85-3.75-3.36-8.03-.01-.49.38-1.18.95-2.02,1.63-6.2,5.05-10,7.79-12.33,9.22-.26-3.79.21-10.34,2.83-17.67,3.17-8.85,10.2-20.9,25.73-28.1l4.61-2.14-1.86-4.73c-.9-2.3-3.6-4.17-6.81-3.12-11.15,3.65-19.7,4.29-22.62,3.43,4.28-6.75,23.9-25.59,39.2-30.05,4.49-1.31,7.81-1.11,9.85.58,1.49,1.23,3.6,1.42,5.41.75,3.98-1.47,5.03-4.08,12.99-40.18,1.1-4.99,2.38-10.81,3.57-15.92,1.73,5.27,3.6,11.3,5.1,16.16,3.09,9.98,5.76,18.6,7.51,22.65l2.34,5.37,5.17-2.77c.18-.1,18.78-9.9,52.42-14.99,31.06-4.7,81.67-6.23,146.39,13.18,5.17,1.55,8.29-1.5,27.82-27.21,1.59-2.1,3.32-4.37,4.96-6.49.28,8.53-.67,17.35-1.59,25.97-.83,7.76-1.62,15.1-1.45,21.81.06,2.58.07,2.97,12.74,14.55,11.26,10.29,12.47,10.95,12.87,11.17,1,.54,2.03,1.23,3.06,2.01-3.56-.89-6.42-.9-8.7,1.07-1.75,1.5-2.51,3.84-2.06,6.24.44,2.28,1.34,3.26,11.02,13.13,9.53,9.73,23.94,24.43,31.16,34.94,7.18,10.45,12.76,29.29,14.74,40.52-1.01-1.41-2.13-2.75-3.46-3.84-2.06-1.69-5.88-4.83-9.94-2.89-2.22,1.06-3.53,3.29-3.5,5.97.02,1.77.6,3.32,1.02,4.46.08.22.17.44.23.64.95,2.92,1.99,5.83,2.99,8.64.49,1.37.98,2.74,1.45,4.11l1.17,3.34c4.27,12.19,8.7,24.79,10.26,37.47.45,3.61.52,7.38.38,10.65-.53-.76-1.06-1.51-1.6-2.26-1.63-2.29-3.32-4.59-5.02-6.84-.35-.46-.75-1.07-1.19-1.72-1.32-1.99-2.83-4.25-4.94-5.84-3.92-2.96-6.97-1.6-8.1-.88-4.06,2.59-2.94,7.82-2.4,10.33l.06.27c2.77,13.43,4.9,24.64,5.06,36.46.11,8.16-.93,18.85-2.2,27.18-1.16-4.47-3.18-8.44-8.1-7.82-5.28.66-5.73,6.14-6.36,13.73-.45,5.44-.83,12.9-1.23,20.81-.57,11.21-1.48,29.28-2.94,40.44-.98-1.56-2.21-2.85-3.91-3.6-1.74-.77-3.69-.8-5.48-.08-5.01,2.01-5.06,7.68-5.22,28.77-.08,9.79-.16,20.89-.96,30.2-.04.42-.07.84-.11,1.24-1.25-.85-2.73-1.2-4.26-1.01-4.61.58-5.56,3.59-11.7,23.17-3.03,9.66-6.81,21.69-10.71,31.51-.63,1.59-1.23,3.03-1.8,4.34.29-3.67-.24-5.89-2.89-7.38-2.05-1.15-4.59-.89-6.45.67-1.73,1.44-2.69,3.68-5.77,11.21-3.55,8.68-10.84,26.53-17.03,30.61-1.03.3-6.88,2.83-8.67,4.07-2.18,1.51-6.22,6.41-.88,8.91.59.28,1.24.39,1.89.31,3.34-.44,11.04-3.03,11.43-3.15l.54-.17.49-.27c6.49-3.61,11.82-12.62,16.82-23.57.25.26.53.51.83.74,1.83,1.39,4.23,1.63,6.43.65,9.42-4.21,16.75-25.56,26.07-55.25.22-.69.44-1.4.66-2.1.49.52,1.1.96,1.85,1.32,2.08.99,4.46.68,6.36-.83,7.7-6.12,8.43-25.8,8.66-55.13.02-2.74.04-5.71.09-8.53.63.62,1.35,1.12,2.21,1.49,1.65.7,3.47.7,5.14-.02,6.09-2.63,7.79-12.39,10.1-58.01.12-2.38.25-4.88.38-7.37,1.26,1.2,2.85,1.96,4.89,2.05,1.7.07,3.34-.58,4.62-1.82,5.86-5.7,8.12-38.31,8-47.43-.11-8.37-1.1-16.3-2.59-24.71,1.42,2,2.82,4.04,4.19,6.07.07.1.16.25.28.44,1.78,2.86,3.99,6.41,7.79,6.56,1.93.08,3.78-.82,4.94-2.39,4.02-5.44,4.01-19.65,3.06-27.32-1.71-13.82-6.33-26.98-10.79-39.71Z"/>
  </g>
  <g id="mouse">
    <path d="M1719.36,299.86c-2.92-.11-3.84-1.4-3.84-1.4-2.31-2.17-2.62-5.58-1.19-7.26,8.76-10.37,12.03-35.92,9.51-45.37-.7-2.63,1.03-6.89,5.03-7.65,4.47-.85,4.11,1.38,5.78,2.04,3.57,1.41,11.79,13.22,18.18,22.01,4.56,6.28,10.28,13.95,13.02,19.34,1.28,2.52.11,7.14-2.86,7.76-3.68.76-4.56.21-5.22.04-2.29-.58-4.11-4.33-4.1-4.29-2.8-4.25-7.49-12.06-14.73-21.75-2.15-2.88-2.69-1.98-3.4,1.45-2.5,11.97-7.13,24.91-9.58,31.35-.79,2.07-4.19,3.83-6.59,3.74Z"/>
  </g>
  <g id="Eye_R" data-name="Eye R">
    <path d="M1689.72,251.93c-19.54.09-26.86-7.52-27.4-27.4-.48-17.56,14.12-27.14,27.4-27.4,15.1-.29,27.4,12.29,27.4,27.4s-12.29,27.4-27.4,27.4ZM1689.72,212.04c-7.37,0-13.27,6.7-13.27,14.07s2.18,10.71,13.27,11.79c9.72.95,13.4-6,13.4-13.37s-6.04-12.5-13.41-12.5Z"/>
    <circle cx="1694.47" cy="225.02" r="7.11"/>
  </g>
  <g id="Eye_L" data-name="Eye L">
    <path id="Eye_L_1" data-name="Eye L 1" d="M1756.05,237.79c-16.28,2.03-27.44-11.71-26.77-26.07.87-18.72,13.98-26.61,28.74-26.61s24.49,6.19,24.8,26.61c.21,14.37-5.37,24.64-26.77,26.07ZM1757.32,198.38c-6.26-.14-13.87,4.21-13.87,12.04s4.22,15.2,14.85,14.57c5.91-.35,11.75-6.18,11.75-14.01s-6.55-12.32-12.74-12.6Z"/>
    <circle id="Eye_L-2" data-name="Eye L" cx="1757.74" cy="212.04" r="7.04"/>
  </g>
  <path class="cls-1" d="M316.36,1079.35s1.27,34.21-9.29,42.23c-10.56,8.02-16.05,11.95-29.98,11.46-13.94-.48-33.79-7.24-41.39-19.06-7.6-11.83-19-20.27-22.38-37.16-3.38-16.89-3.38-74.33,0-86.15,3.38-11.83,20.27-29.98,31.25-31.67s34.21-4.22,45.61,4.65c11.4,8.87,38.85,99.67,26.18,115.72Z"/>
  <path d="M450.24,925.14c-22.81-27.93-53.63-11.35-68.13-14.06-14.5-2.72-20.55,1.87-37.45.18s-28.72,8.87-39.7,13.88c-10.98,5.01-10.14,13.15-13.51,13.99-3.38.84-8.87-4.65-18.16,0-9.29,4.65-3.8,8.87-4.65,14.36-.84,5.49-12.67,8.87-13.51,13.09-.84,4.22,8.02,8.87,7.6,10.98s-5.49,5.07-5.07,9.65c.42,4.58,6.76,7.67,7.6,11.05.84,3.38-5.07,16.89,0,21.12,5.07,4.22,14.36,1.27,14.78,5.91.42,4.65-5.91,12.25-5.91,15.2s9.29,8.87,11.81,9.71c2.52.84.44,6.33.02,15.85-.42,9.52,8.02,14.98,14.36,12.02,6.33-2.96,12.25,12.25,19,12.25s1.27-10.56,6.33-9.29c5.07,1.27,3.38,4.65,10.14,4.22,6.76-.42,11.83.42,11.83.42,3.38,9.29,7.18,13.09,14.36,12.67,7.18-.42,11.4-8.45,14.19-8.45s-1.1,5.07,3.54,5.49c4.65.42,10.14,2.53,16.47,0,6.33-2.53,10.98-11.83,14.78-11.83s5.49,4.65,10.56,4.65,13.94-12.25,16.66-11.4c2.72.84,3.62,6.33,10.37,6.33s17.32-10.14,24.49-16.47c7.18-6.33,18.16-32.94,18.16-32.94,14.36-42.65-18.16-80.66-40.97-108.59ZM477.58,1046.19s-.07.06-.1.09c-2.22,2.04-5.52,2.45-8.18,1.02-1.77-.95-3.45-2.07-4.94-3.39-3.86-3.4-6.03-7.7-6.27-12.43-.36-7.18-1.82-10.42-2.55-11.36-.08.03-.18.07-.29.12-2.02.93-5.34,1.63-9.7-.35-7.93-3.59-17.22-15.65-21.94-28.04-.07-.2-.27-.3-.48-.25-3.51.81-8.4.37-14.43-4.07-8.67-6.39-8.42-22.98-8.19-37.62.06-3.94.14-9.03-.14-11.88-.02-.18-.15-.32-.32-.36-.41-.09-.84-.18-1.27-.28-6.5-1.41-6.54-10.67-.05-12.12h.03c.06-.02.12-.02.18,0,.86.2,1.69.38,2.35.53,1.61.35,3.27.71,4.76,1.15,6.66,2,6.54,9.96,6.34,23.14-.13,8.15-.39,25.12,3.36,27.88,2.25,1.66,4.29,2.43,5.06,1.91,2.25-1.51,5.1-1.87,7.62-.95,2.53.91,4.43,2.93,5.19,5.52,3.86,13.04,13.5,23.57,17.03,24.74.1.03.2.02.29-.02,3.72-1.51,7.44-1.32,10.56.57,5.07,3.07,7.91,10.18,8.46,21.14.05.96.33,2.42,2.26,4.12,1.09.96,2.46,1.78,3.96,2.46,3.44,1.56,4.19,6.17,1.42,8.73Z"/>
  <path class="cls-1" d="M709.33,1134.25s37.79,8.02,45.4,16.89c7.6,8.87,13.51,26.18,5.91,39.7-7.6,13.51-35.1,27.97-45.21,33.2s-30.38,16.21-40.1,20.85c-9.71,4.65-26.61,12.25-37.59,6.76-10.98-5.49-29.47-18.47-33.53-30.78-4.06-12.3-15.46-33.42-9.55-38.91,5.91-5.49,45.62-57.44,114.66-47.72Z"/>
  <g>
    <path d="M724.49,1117.22c.02-8.45-7.34-4.5-6.78-9.01s6.19-2.25,6.76-13.51c.56-11.26-10.14-13.51-12.39-15.2-2.25-1.69,5.07-2.82,6.19-11.26,1.13-8.45-14.08-27.59-14.64-30.97-.56-3.38,9.01,0,10.14-14.08,1.13-14.08-14.64-17.46-14.08-23.09.56-5.63.56-5.07,0-12.95-.56-7.88-12.39-25.34-15.2-29.28s3.94-5.07,6.76-14.08c2.82-9.01-15.77-26.47-19.15-29.84-3.38-3.38,1.69-11.26,0-19.15-1.69-7.88-8.45-10.7-11.26-13.94-2.82-3.24.56-11.4-2.25-14.21-2.82-2.82-5.63.56-7.88-3.38-2.25-3.94.56-11.83-3.94-18.02-4.5-6.19-14.64-5.63-16.33-6.76-1.69-1.13,2.25-6.76-2.82-12.95-5.07-6.19-8.45.56-11.82,0-3.38-.56-.56-6.76-2.82-9.01-2.25-2.25-4.5-1.13-6.76-5.63-2.25-4.5,0-9.01-3.38-14.64-3.38-5.63-10.14-4.5-11.83-5.63-1.69-1.13-1.13-10.7-3.94-15.77-2.82-5.07-16.33-8.45-16.33-8.45-163.86-50.12-188.64,102.48-188.64,110.37s20.83,16.89,23.44,18.02,1.33,12.95-3.17,11.83c-4.5-1.13-13.51,12.39-13.51,18.02,0,2.72,2.37,4.25,5.45,5.31.44-2.19,1.99-4.17,4.71-4.78h.03c.06-.02.12-.02.18,0,.86.2,1.69.38,2.35.53,1.61.35,3.27.71,4.76,1.15,6.66,2,6.54,9.96,6.34,23.14-.13,8.15-.39,25.12,3.36,27.88,2.25,1.66,4.29,2.43,5.06,1.91,2.25-1.51,5.1-1.87,7.62-.95,2.53.91,4.43,2.93,5.19,5.52,3.86,13.04,13.5,23.57,17.03,24.74.1.03.2.02.29-.02,3.72-1.51,7.44-1.32,10.56.57,5.07,3.07,7.91,10.18,8.46,21.14.05.96.33,2.42,2.26,4.12,1.09.96,2.46,1.78,3.96,2.46,2.83,1.28,3.83,4.61,2.57,7.18,3.79,1.02,7.51,1.38,10.07,1.18,7.32-.56,7.32,6.76,5.63,14.08-1.69,7.32,16.89,21.96,24.78,23.65,7.88,1.69,15.77,5.63,18.58,16.89,2.82,11.26-1.69,21.4,6.19,48.99,7.88,27.59,22.52,27.59,26.47,28.15,3.94.56.56-2.82,3.38,9.01s14.08,33.22,22.52,31.53,4.5-9.57,11.26-14.08c6.76-4.5,2.25-5.07,5.63-7.88,3.38-2.82,5.07,1.13,11.83,0,6.76-1.13-1.69-5.07,2.25-5.07h11.26c7.32,0,1.13-4.5,8.74-6.19,7.61-1.69,10.97,6.76,19.98,0,9.01-6.76,3.94-10.7,7.88-13.51,3.94-2.82,11.26-2.82,16.89-6.19,5.63-3.38.56-3.94,3.94-6.19,3.38-2.25,12.95-.56,18.58-2.82,4.88-1.95,5.11-6.86,5.08-8.14,0-.22.02-.44.08-.65.41-1.55,1.95-7.89.47-10.35-1.69-2.82,3.94-11.26,3.96-19.71Z"/>
    <path d="M730.42,1117.23c.01-5.3-2.12-8.23-4.32-9.88,0,0,0,0,0,0,2.14-2.34,3.97-5.84,4.29-12.36.48-9.58-4.98-14.75-9.49-17.56,0,0,0,0,0,0,1.45-2.04,2.77-4.78,3.25-8.42.96-7.2-4.54-16.66-11.27-27.37-.49-.78-1.03-1.63-1.53-2.45,0,0,0,0,0,0,3.44-2,7.58-6.1,8.33-15.54.94-11.69-6.8-18.04-11.42-21.83-.85-.7-1.95-1.6-2.56-2.21,0,0,0,0,0,0,.47-4.7.46-5.22-.03-11.98l-.06-.91c-.63-8.89-10.88-24.51-15.02-30.5,0,0,0,0,0,0,1.89-2.12,4.65-5.3,6.32-10.67,2.57-8.22-3.54-19.02-19.81-35.02l-.26-.25c.03-.89.35-2.55.57-3.72.69-3.62,1.54-8.13.49-13.01-1.66-7.74-6.83-11.86-10.26-14.58-.75-.6-1.53-1.22-2.03-1.7,0,0,0,0,0,0-.11-.77-.03-2.39.02-3.4.18-3.64.41-8.16-2.86-11.43-2.52-2.52-5.27-2.94-7.07-3,0,0,0,0,0,0-.09-.84-.12-1.99-.15-2.85-.12-4.1-.28-9.72-4-14.84-4.1-5.64-10.82-7.31-15.32-8.1,0,0,0,0,0,0,.1-3.12-.44-7.49-4.03-11.87-4.5-5.5-9.23-5.27-12.49-4.16,0,0,0,0,0,0-.27-1.78-.94-3.68-2.55-5.29s-3.27-2.35-4.35-2.82c-.25-.11-.62-.27-.7-.33,0,0-.22-.2-.59-.93-.43-.87-.51-1.95-.61-3.8-.15-2.9-.36-6.86-2.99-11.24-3.4-5.67-8.91-7.07-12.29-7.63,0,0,0,0,0,0-.06-.46-.13-.93-.18-1.35-.5-3.79-1.12-8.52-3.19-12.25-3.72-6.7-15.99-10.29-19.93-11.28-56.83-17.35-103.63-12.84-139.11,13.41-46.42,34.35-57.06,94.75-57.06,102.67,0,7.5,8.33,15.05,24.78,22.48,0,0,0,0,0,0-.03.47-.1.98-.19,1.44-1.67.21-3.66.94-5.86,2.65-5.42,4.23-11.97,14.68-11.97,21.29,0,1.68.35,3.13.94,4.38,0,0,0,0,0,0,5.05-1.65,12.02-4.72,11.06-5.19,0,0,0,0,0,0,.79-3.17,4.96-9.58,7.36-11.23,0,0,0,0,0,0,3.4.27,7.51-1.47,9.51-7.38,1.62-4.79,1.99-13.33-3.9-15.87-12.52-5.4-19.08-10.64-19.85-12.72,0,0,0,0,0,0,.36-8.12,11.46-63.61,53.35-93.78,32.2-23.19,75.13-26.81,127.61-10.76l.29.08c5.44,1.37,11.56,4.1,12.59,5.57,0,0,0,0,0,0,.98,1.76,1.45,5.38,1.8,8.03.57,4.35,1.02,7.78,4.04,9.79,1.6,1.07,3.33,1.32,5,1.57,2.88.42,4.21.82,5.03,2.18,1.11,1.85,1.2,3.49,1.32,5.76.13,2.39.28,5.36,1.84,8.48,2.18,4.35,4.81,5.8,7.12,6.82,0,.24,0,.48,0,.68-.04,6.1,2.24,9.58,6.79,10.34,3.27.55,5.82-.93,7.51-1.92.17-.1.37-.22.57-.33.04.05.08.09.12.15,1.64,2.01,1.45,3.64,1.2,5.7-.24,1.95-.73,5.99,2.92,8.43,2.73,1.82,6.03,1.3,11.39,2.93.76.23,1.49.56,2.12,1.04,2.84,2.17,2.94,5.72,3.05,9.54.09,3.13.18,6.36,1.85,9.27,2.5,4.38,6.2,5.01,8.31,5.09,0,0,0,0,0,0,0,.65-.05,1.39-.08,1.97-.18,3.58-.41,8.04,2.57,11.47,1.15,1.33,2.55,2.44,3.9,3.51,2.71,2.16,5.27,4.19,6.04,7.78.54,2.54-.01,5.48-.55,8.32-.82,4.36-1.85,9.78,2.16,13.78l.87.87c18.02,17.72,16.86,22.8,16.8,23.01-.96,3.06-2.51,4.8-4.01,6.48-1.84,2.06-6.15,6.89-1.92,12.82,6.54,9.15,13.79,21.8,14.11,26.25l.06.91q.44,6.14.01,10.38l-.07.65c-.54,5.35,3.61,8.76,6.95,11.49,4.7,3.86,7.53,6.58,7.12,11.71-.44,5.56-2.07,6.17-4.12,6.95-5.74,2.17-6.4,5.86-5.95,8.58.37,2.2,1.73,4.44,5.06,9.73,2.74,4.36,10.03,15.95,9.56,19.48-.37,2.74-1.75,3.94-3.22,5.21-1.33,1.16-3.57,3.09-3.45,6.4.04,1.18.46,3.42,2.8,5.18.93.7,1.95,1.17,3.14,1.72,4.94,2.3,7.1,4.06,6.88,8.44-.21,4.26-1.04,4.91-2.19,5.81-1.4,1.09-4.01,3.12-4.53,7.27-.39,3.11.42,7.22,6.5,9.16.07.02.14.04.21.07.01.14.02.3.02.5,0,3.33-1.26,7.01-2.37,10.26-1.48,4.34-2.88,8.45-.98,12.09,0,0,0,0,0,0,.1.87-.1,3.24-.89,6.22-.2.75-.29,1.52-.27,2.28.02.89-.2,2.05-1.35,2.51-1.84.73-5.14.87-8.05.98-4.38.17-8.52.34-11.62,2.4-1.76,1.17-3.67,3.12-3.88,6.14,0,0,0,0,0,0-2.1,1.21-4.83,1.91-7.48,2.59-3.34.85-6.8,1.74-9.63,3.77-3.74,2.67-4.13,6.27-4.33,8.21-.18,1.67-.31,2.87-3.66,5.39-2.68,2.01-3.32,1.75-6.38.5-2.72-1.11-6.44-2.63-11.33-1.54-5.1,1.13-7.26,3.67-8.29,6.05,0,0,0,0,0,0h-10.43c-4,0-5.71,2.25-6.38,3.59-.22.44-.39.89-.5,1.34-.2-.06-.41-.12-.62-.18-2.15-.63-6.17-1.81-10.38,1.69-2.68,2.23-3.37,4.51-3.57,6.35,0,0,0,0,0,0-.28.24-.76.62-1.55,1.15-4.77,3.18-6.16,7.52-7.09,10.39-.78,2.43-.82,2.55-1.87,2.77-3.85-.87-13.04-15.61-15.76-27.05-1.14-4.77-1.12-6.53-1.11-7.1.03-2.15-.7-3.86-2.17-5.09-.81-.68-2.09-1.41-3.88-1.41-.36,0-.75.03-1.15.1h0c-.28-.04-.61-.08-.97-.12-4.28-.5-14.3-1.66-20.62-23.79-4.72-16.51-4.79-26.36-4.85-34.28-.04-5.16-.07-9.62-1.3-14.52-2.86-11.43-10.63-18.59-23.1-21.26-5.88-1.26-19.42-12.57-20.17-16.78,0,0,0,0,0,0,1.81-8.02,1.16-13.7-1.99-17.36-1.64-1.91-4.7-4.11-9.94-3.7-1.29.1-3,0-4.87-.31,0,0,0,0,0,0-2.48,3.6-2.6,5.53-6.25,8.55,0,0-3.28,1.2-3.28,1.2,5.82,2.1,11.82,2.67,15.38,2.38h0c.15.86.24,2.87-.67,6.83-.75,3.23.11,6.81,2.54,10.63,5.26,8.27,18.77,18.44,26.77,20.15,8.1,1.74,12.31,5.48,14.07,12.53.88,3.52.91,7.14.94,11.73.06,8.19.14,19.4,5.3,37.45,7.68,26.88,22.04,31.05,28.79,32.08,0,0,0,0,0,0,.22,1.32.53,2.91.99,4.83,2,8.4,13.16,36.19,27.32,36.19.71,0,1.42-.07,2.14-.21,8.06-1.61,9.91-7.37,11.02-10.81.78-2.42,1.16-3.34,2.37-4.15,3.68-2.45,5.63-4.68,6.4-7.45,0,0,0,0,0,0,1.92.53,4.8,1.14,8.74.48,3.74-.62,6.16-2.3,7.21-4.99h0s5.33,0,5.33,0c5.32,0,8.55-2.06,9.84-6.29.06-.01.12-.03.19-.04,1.15-.26,2.09.06,4.27.95,3.71,1.52,9.93,4.05,17.99-1.99,7-5.25,7.95-9.87,8.36-13.77h0c1.19-.59,3.17-1.09,5.09-1.58,3.38-.86,7.21-1.84,10.82-4.01,2.18-1.31,4.82-3.29,5.53-6.51,0,0,0,0,0,0,1.25-.13,2.91-.2,4.16-.25,3.87-.15,8.26-.33,11.99-1.82,6.41-2.56,8.74-8.41,8.81-13.24,0,0,0,0,0,0,1.45-5.7,1.56-10.14.31-13.24,0,0,0,0,0,0,.21-.93.76-2.56,1.19-3.81,1.33-3.91,2.99-8.79,3.01-14.07ZM388.01,876.52h0s0,0,0,0ZM709.33,1035.68h0ZM699.38,1163.95h0,0ZM715.43,1139.97s0,0,0,0c0,0,0,0,0,0ZM725.91,1147.8s0,.01,0,.02c0,0,0-.01,0-.02Z"/>
  </g>
  <g id="Head">
    <path d="M762.26,352.72c-1.9,6.35-5.44,18.16-9.84,21.34-3.15,2.27-4.36,1.96-6.03,1.53-1.8-.47-5.56-1.44-8.85,1.85-1.43,1.43-2.44,3.47-3.84,6.29-2.48,5.01-6.23,12.58-12.37,15.04-4.18,1.67-5.68,1.29-7.14.93-3-.76-6.31-1.16-10.8,2.89-5.55,4.99-22.93,11.41-27.96,8.39-5.66-3.4-9.72-5.36-14.31-1.85-.09.07-.18.15-.31.23-.81.27-1.9.58-3.15.89.1,3.17,3.01,7.34,2.51,10.46,2.44-.61,4-1.1,4.05-1.12,1.01-.34,1.81-.77,2.42-1.16.64.31,1.66.85,3.23,1.79,11.83,7.09,34.9-4.37,40.73-9.63.27-.24.48-.41.63-.52.11.03.22.05.32.08,3.07.77,6.92,1.37,13.78-1.37,9.98-3.99,15.02-14.18,18.04-20.27.35-.71.77-1.56,1.15-2.27,2.87.69,7.64,1.3,14.21-3.43,7.38-5.32,11.13-17.85,13.87-27,.35-1.17.74-2.47,1.09-3.58-3.23-1.36-6.61-2.76-10-4.12-.41,1.23-.87,2.74-1.43,4.61Z"/>
    <g>
      <path d="M423.77,128.42c7.92-2.04,45.21,6.02,59.13,8.45,17.29,3.02,60.13,12.48,79.96,15.2,12.15,1.67,38.92,3.51,61.06,4.47,3.62-4.2,10.82-.5,12.56-1.86.34-.27-5.48.67-5.28,1.06.77,1.5,9.96-3.8,12.46.84,5.42.12,6.65.67,9.85.56,16.89-.56,74.86-7.51,82.78-9.57,4.66-1.21,11.78-5.42,14.57-7.14-.03-.2-.07-.4-.08-.61-.42-7.68-1.64-29.61-2.11-35.62-.56-7.32-3.57-45.46-4.35-52.83-1.21-11.37-13.14-11.53-18.63-10.05-5.55,1.49-17.73,8.41-24.69,12.48-7.4,4.33-18.64,12.67-26.52,18.3-3.79,2.71-7.23,5.68-9.77,8.03-1.85,1.71-4.86,1.02-5.74-1.34-5.35-14.28-24.48-19.52-27.99-18.52-3.94,1.13-5.63,8.45-8.45,7.88-2.82-.56-7.88-6.19-12.95-6.19s-4.5,7.32-7.88,7.32-9.01-4.5-12.95-3.94c-3.94.56-2.25,7.88-6.19,10.7-3.94,2.82-2.82,3.38-8.45,3.94-5.63.56-9.52.43-12.39.56-4.43.21-13.51,10.14-16.33,8.45-2.82-1.69-14.14-21.15-19.57-29.35-5.85-8.83-25.22-34.08-37.87-42.72-7-4.79-18.32-1.39-21.4,0-7.88,3.55-11.37,11.05-13.51,15.77-3.64,8.01-23.65,86.15-30.41,92.35-1.08.99-2.17,2.67-3.27,4.83,1.34-.55,2.8-1.04,4.39-1.45Z"/>
      <path d="M808.47,298.35c-.93,1.21-2.19,2.09-3.65,2.45-10.46,2.59-29.47,12.92-43.95,22.05-3.19,2.01-7.22.8-9.08-2.75l-.04-.08c-1.91-3.65-.79-8.36,2.49-10.44,11.14-7.05,32.77-19.9,47.81-23.59,1.97-.48,3.86.09,5.32,1.31-.16-2.48-.23-4.98-.14-7.4.44-10.97-9.72-33.23-14.23-42.52-.75-1.54-.29-3.34,1.02-4.45,1.37-1.15,2.95-3.99,4.2-10.48,1.48-7.71-11.71-29.46-24.53-48.33-9.82,11.97-65.82,26.42-75.7,26.94-3.54.19-12.73,1.06-24.17,2.19.74.46,1.64.73,2.77.73,7.6,0,13.94,7.18,17.74,9.29s8.02-2.11,10.56,0c2.53,2.11,2.53,5.91,5.91,6.76,3.38.84,6.76-1.27,10.14,0,1.34.5,1.95,3.35,2.46,6.78,3.09-1.46,6.7-2.28,10.87-2.28,17.35,0,30.97,12.57,30.97,29.92,0,8.91-1.95,17.35-6.18,23.44.02-.01.03-.03.05-.04l25.53-21.49c3.52-2.96,8.15-2.21,10.34,1.68,2.19,3.89,1.11,9.44-2.4,12.4l-25.53,21.49c-3.52,2.96-8.15,2.21-10.34-1.68-1.63-2.88-1.45-6.68.19-9.66-2.89,3.08-6.56,5.29-11.1,6.23-.47,2.01-.93,3.88-.78,5.42.42,4.22,2.53,10.56-1.27,16.89-3.8,6.33-5.07,7.18-2.11,13.51,2.96,6.33-3.38,14.36-6.33,22.38-2.96,8.02-4.22,12.25-13.51,15.63-9.29,3.38-5.07,3.8-12.25,8.02-7.18,4.22-18.67,4.65-18.84,11.4-.17,6.76-6.92,8.87-13.68,10.14-6.76,1.27-6.76-2.53-10.98,4.65-4.22,7.18-8.45,10.98-8.45,15.2,0,1.61.77,3.49,1.47,5.37,1.56-.39,2.77-.74,3.46-.97,3.38-1.13,1.69-3.94,10.14,1.13,8.45,5.07,28.72-3.94,34.35-9.01,5.63-5.07,5.07,1.69,16.33-2.82,11.26-4.5,15.2-19.71,18.02-22.52,2.82-2.82,5.63,3.38,14.22-2.82,7.04-5.08,10.76-21.11,13.12-28.28-5.1-2.1-10.38-4.22-15.42-6.09-3.77-1.4-5.85-5.95-4.61-10.12h0c1.25-4.23,5.39-6.53,9.21-5.12,12.97,4.79,22.62,8.63,29.84,11.75,1-.6,1.9-1.3,2.64-2.11,5.07-5.63,6.19-16.33,8.45-21.4,2.25-5.07,3.94-1.13,8.46-3.94,2.54-1.58,2.04-7.44,1.22-14.77Z"/>
      <path d="M604.39,302.66c-16.43-5.56-28.73-20.93-28.95-38.47-.17-13.73,4.1-25.66,12.02-33.58,4.6-4.6,10.3-7.7,16.76-9.23.51-2.93.59-5.18.59-6.41,0-.77.23-2.8.64-5.47-.12,0-.24.01-.35.02-16.32.82-67.01-4.5-85.59-9.57-18.58-5.07-59.13-15.2-75.45-20.27-16.33-5.07-34.35-14.08-35.48-15.77-.14-.21-.43-.83-.77-1.75-1.55,4.48-3,8.17-4.3,10.2-5.07,7.88-22.52,60.81-19.15,66.45,3.38,5.63,7.32,2.25,7.88,8.45.56,6.19-9.01,33.22,0,40.54s11.26-2.82,11.82,2.82c.56,5.63-8.45,27.59,0,39.42,8.45,11.83,13.51,1.69,15.2,6.76,1.69,5.07-1.69,17.46,7.32,25.34,9.01,7.88,14.08-1.13,17.46,3.38s5.07,15.77,9.01,23.09c3.94,7.32,14.08,16.89,29.28,21.4,15.2,4.5,34.35-4.5,45.61-4.5s16.33,10.14,30.97,12.39c13.83,2.13,19.12-7.79,28.67-1.22-.23-4.38,2.86-10.78,6.24-17.11,3.38-6.33-1.69-19,.84-21.96,2.53-2.96,4.65-4.22,5.91-7.6,1.27-3.38,0-12.25.84-16.47.84-4.22,7.18-3.8,9.29-7.6,2.11-3.8-6.33-32.52-6.33-42.65,0-.2,0-.38,0-.57ZM486.35,297.33l-.3-.04c-.3-5.14,4.95-8.79,9.62-8.51,16.63,1.02,35.21,4.83,57.12,13.44,4.39,1.72,6.91,6.99,5.61,11.67l-.04.16c-1.27,4.59-5.74,6.94-10.03,5.25-20.31-7.99-39.49-12.19-54.5-13.1-4.36-.26-7.2-4.07-7.48-8.87ZM553.72,345.13c-19.73,3.34-36.75,9.12-48.93,15.51-3.54,1.85-7.59.22-10.11-3.42l-.25.11c-2.7-3.9-.35-9.24,3.45-11.23,13.5-7.07,29.87-12.87,51.14-16.48,4.26-.72,8.76,2.21,9.99,6.51l.04.15c1.21,4.2-1.16,8.16-5.33,8.87ZM561.72,282.82l-.11.11c-3.02,3.22-8.58,3.84-12.48,1.36-18.44-11.72-30.32-17.55-45.78-22.33-4.49-1.39-6.85-5.51-5.38-9.32l.06-.14c1.57-4.08,6.9-6.21,11.71-4.72,17.12,5.3,30.47,11.81,50.36,24.45,3.98,2.53,4.71,7.3,1.62,10.59Z"/>
    </g>
    <path d="M737.79,292.21c-20,0-36.27-16.27-36.27-36.27,0-22.37,11.49-36.27,29.99-36.27,20.42,0,35.83,14.95,35.83,34.77,0,22.94-11.6,37.76-29.54,37.76ZM731.5,229.39c-18.3,0-20.27,18.57-20.27,26.55,0,14.64,11.91,26.55,26.55,26.55,18.4,0,19.83-21.47,19.83-28.05,0-14.29-11.23-25.06-26.11-25.06Z"/>
  </g>
  <path class="cls-1" d="M746.27,139.23c1.02-.84,5.03-1.89,6.35-1.8,15.63,1.13,23.95,23.36,22.52,33.79-1.69,12.39-66.45,29.28-77.14,29.84-10.7.56-73.01,7.44-92.91,8.45-16.32.82-67.01-4.5-85.59-9.57-18.58-5.07-59.13-15.2-75.45-20.27-16.33-5.07-34.35-14.08-35.48-15.77s-11.35-28.62,15.2-35.48c7.92-2.04,45.21,6.02,59.13,8.45,17.29,3.02,60.13,12.48,79.96,15.2,19,2.61,73.77,5.63,90.66,5.07,16.89-.56,74.15-8.36,82.07-10.42,4.09-1.06,8.35-5.56,10.69-7.49Z"/>
  <g id="Eye_R-2" data-name="Eye R">
    <path d="M617.19,305.26c-22.65,0-42.02-18.85-42.3-41.16-.17-13.89,4.1-25.95,12.02-33.97,6.9-6.98,16.25-10.57,26.97-10.45,22.15.29,43.08,21.84,43.08,44.36s-17.84,41.22-39.77,41.22ZM613.27,229.5c-7.96,0-14.51,2.55-19.49,7.58-6.06,6.12-9.31,15.68-9.17,26.9.21,17.05,15.14,31.46,32.59,31.46s30.06-13.79,30.06-31.4-16.59-34.31-33.5-34.53c-.16,0-.33,0-.49,0Z"/>
    <path d="M617.15,284.71c-6.41,0-12.19-2.36-15.86-6.46-2.94-3.29-4.3-7.55-3.85-12.01,1.27-12.49,10.55-21.21,22.57-21.21,9.94,0,16.12,7.83,16.12,20.43,0,10.97-8.16,19.25-18.98,19.25ZM620.01,254.85c-5.37,0-11.98,3.25-12.91,12.39-.17,1.72.28,3.17,1.4,4.42,1.8,2.02,5.03,3.22,8.65,3.22,5.45,0,9.26-3.88,9.26-9.42,0-7.04-2.16-10.61-6.41-10.61Z"/>
    <path d="M631.27,265.46c0,7.94-5.65,14.34-14.12,14.34s-15.68-5.15-14.88-13.06c1.13-11.11,9.26-16.8,17.74-16.8s11.26,7.58,11.26,15.52Z"/>
  </g>
  <g id="Eye_L-3" data-name="Eye L">
    <path d="M737.79,292.1c-20,0-36.27-16.27-36.27-36.27,0-22.37,11.49-36.27,29.99-36.27,20.42,0,35.83,14.95,35.83,34.77,0,22.94-11.6,37.76-29.54,37.76ZM731.5,229.28c-18.3,0-20.27,18.57-20.27,26.55,0,14.64,11.91,26.55,26.55,26.55,18.4,0,19.83-21.47,19.83-28.05,0-14.29-11.23-25.06-26.11-25.06Z"/>
    <path d="M737.2,265.66c-2.99,0-7.34-.37-10.53-3.61-2.39-2.43-3.57-5.96-3.51-10.5.13-8.74,5.38-13.96,14.03-13.96s13.68,5.04,14.03,13.84h0c.19,4.71-.87,8.19-3.24,10.66-3.02,3.14-7.15,3.57-10.79,3.57ZM737.2,247.3c-3.34,0-4.27.94-4.32,4.39-.04,2.57.54,3.35.71,3.53.26.27,1.08.71,3.61.71,2.91,0,3.62-.41,3.79-.58.24-.25.63-1.28.54-3.54h0c-.15-3.83-1.27-4.52-4.32-4.52Z"/>
    <path d="M746.37,251.62c.33,8.28-4.11,9.18-9.18,9.18s-9.29-1.43-9.18-9.18c.1-6.99,4.11-9.18,9.18-9.18s8.89,2.16,9.18,9.18Z"/>
  </g>
  <path d="M672.01,326.77l-.08-.12c-1.33-2.11-.8-4.86,1.18-6.38,4.44-3.42,8.94-7.81,12.43-11.22,5.83-5.7,8.01-7.83,11.06-7.83s5.82,1.87,10.49,4.96c3.61,2.4,8.32,5.52,14.46,8.68,2.28,1.17,3.24,3.94,2.16,6.27l-.06.14c-1.14,2.46-4.12,3.48-6.53,2.24-6.59-3.39-11.57-6.69-15.39-9.22-.44-.29-.89-.59-1.33-.88-1.87-1.23-4.33-.99-5.94.56-.71.68-1.43,1.39-2.11,2.05-3.68,3.6-8.41,8.22-13.33,12-2.24,1.72-5.48,1.17-6.99-1.22Z"/>
  <path class="cls-3" d="M756.89,290.25h0c-2.19-3.89-1.11-9.44,2.4-12.4l25.53-21.49c3.52-2.96,8.15-2.21,10.34,1.68h0c2.19,3.89,1.11,9.44-2.4,12.4l-25.53,21.49c-3.52,2.96-8.15,2.21-10.34-1.68Z"/>
  <path class="cls-3" d="M751.79,320.53l-.04-.08c-1.91-3.65-.79-8.36,2.49-10.44,11.14-7.05,32.77-19.9,47.81-23.59,4.36-1.07,8.37,2.99,8.03,8h0c-.23,3.34-2.37,6.09-5.26,6.81-10.46,2.59-29.47,12.92-43.95,22.05-3.19,2.01-7.22.8-9.08-2.75Z"/>
  <path class="cls-3" d="M753.27,344.06c-3.77-1.4-5.85-5.95-4.61-10.12h0c1.25-4.23,5.39-6.53,9.21-5.12,22.05,8.14,34.54,13.57,41.73,17.31,5.25,2.73,5.6,10.85.62,14.15h0c-1.9,1.26-4.21,1.49-6.28.62-7.38-3.08-25.19-11.07-40.67-16.83Z"/>
  <path class="cls-3" d="M549.13,284.29c-18.44-11.72-30.32-17.55-45.78-22.33-4.49-1.39-6.85-5.51-5.38-9.32l.06-.14c1.57-4.08,6.9-6.21,11.71-4.72,17.12,5.3,30.47,11.81,50.36,24.45,3.98,2.53,4.71,7.3,1.62,10.59l-.11.11c-3.02,3.22-8.58,3.84-12.48,1.36Z"/>
  <path class="cls-3" d="M548.33,319.3c-20.31-7.99-39.49-12.19-54.5-13.1-4.36-.26-7.2-4.07-7.48-8.87l-.3-.04c-.3-5.14,4.95-8.79,9.62-8.51,16.63,1.02,35.21,4.83,57.12,13.44,4.39,1.72,6.91,6.99,5.61,11.67l-.04.16c-1.27,4.59-5.74,6.94-10.03,5.25Z"/>
  <path class="cls-3" d="M553.72,345.13c-19.73,3.34-36.75,9.12-48.93,15.51-3.54,1.85-7.59.22-10.11-3.42l-.25.11c-2.7-3.9-.35-9.24,3.45-11.23,13.5-7.07,29.87-12.87,51.14-16.48,4.26-.72,8.76,2.21,9.99,6.51l.04.15c1.21,4.2-1.16,8.16-5.33,8.87Z"/>
  <path d="M715.68,614.93c4.17-5.07,3.72-19.71,0-23.65-3.72-3.94-3.04-20.27,0-24.78,3.04-4.5-2.48-21.4-4.71-25.26-2.23-3.86-.58-14.16-.02-21.48s-11.82-19.71-13.28-23.09c-1.46-3.38.9-15.2,0-24.21-.9-9.01-6.42-12.95-8.68-16.33-2.25-3.38,2.82-6.76,3.94-18.02.95-9.54-24.98-27.95-32.96-33.37-2.29,6.22-4.05,20.02,5.37,47.45,2.86,8.34,12.95,24.78,11.26,28.15-1.69,3.38-3.38,3.94-3.38,8.45s9.85,20.96,14.08,25.34c7.88,8.16,16.3,10.01,17.43,15.08,1.13,5.07-6.17.12-6.73,7.44-.56,7.32,8.1,33.22,7.43,38.85-.67,5.63-7.43-3.94-11.37,0-3.94,3.94,5.07,35.47,7.88,42.8,2.82,7.32,6.19,18.33.56,18.18-5.63-.16-8.45-14.23-14.08-11.98-5.63,2.25,2.82,24.21,5.63,30.41,2.82,6.19,6.19,16.05,3.38,16.05s-14.05-4.82-15.83,8.16c-1.35,9.85,9.63,20.83,10.76,25.9,1.13,5.07-1.97,27.87-1.97,38.01s-9.29-1.22-13.8,2.72c-4.5,3.94,2.82,38.1-.56,41.48-3.38,3.38-15.28,1.13-15.49,7.88-.21,6.76,7.32,19.71,5.63,22.52-1.69,2.82-16.33,1.69-16.05,11.26.07,2.25-5.91-5.91-14.34,0-7.22,5.06-58.86-48.43-65.05-62.5-6.19-14.08,3-18.37,0-24.21-4.14-8.05-2.33-13.34-2.14-18.02.22-5.63-5.74-6.19-6.87-9.01-1.13-2.82,3.94,1.13,6.19-9.01s-5.95-14.64-6.36-21.4c-.4-6.76,8.08-3.82,9.17-10.7,1.69-10.7-5.99-15.52-6.56-20.02s4.3-1.09,3.18-7.29c-1.11-6.1-4.97-3.95-5.81-8.16-.71-3.55,5.53.28,6.09-9.57.26-4.53-5.45-13.51-6.25-16.89-.79-3.38,5.96-1.97,6.53-8.45.31-3.55-2.82-7.88-3.38-11.83s5.66-3.58,6.19-7.32c1.69-11.83-7.88-23.65-6.19-26.47,1.69-2.82,6.76-2.82,9.01-6.19,2.25-3.38-3.93-19.23-2.82-24.78,1.41-7.04,4.93-3.4,5.49-10.16.56-6.76-4.93-21.65-3.24-25.03,2.32-4.64,6.48,2.25,11.54-2.25,5.07-4.5,1.03-35.65-5.91-46.46-5.07-7.88,6.76-13.06,9.86-19.2,3.1-6.14-2.77-7.69-2.89-14.61-.12-7.42,2.63-12.33,7.15-15.42-20.75-2.91-39.61-5.5-44.32-5.96-11.62-1.13-81.86,15.2-87.49,22.52-5.63,7.32-10.14,36.04-33.79,45.05-23.65,9.01-16.33,38.29-8.01,46.74,8.32,8.45-36.48,53.49-46.61,73.2-10.14,19.71-9.57,65.88-4.03,77.17,0,0,0,0,0,.01.65-.88,1.32-1.75,2.06-2.57,20.83-23.37,70.11-14.08,73.77-12.11,3.66,1.97,8.73,7.32,12.11,10.14,3.38,2.82,10.47,11.46,15.77,21.12,3.94,7.18,5.77,20.24,5.91,30.13.14,10-2.67,19.71-5.63,26.18-3.26,7.14-9.37,15.81-14.92,21.19-6.9,6.68-19.3,11.42-30.69,13.3-11.12,1.83-27.17-2.53-35.47-7.74-5.85-3.67-15.2-12.95-19.43-19.71-.42-.67-13.62,1.38-14.11.39-.28-.57-1.14-.41-1.18.23-.94,14.4,10.61,22.31,9.66,23.09-2.82,2.31-9.57,27.54-2.82,29.79,6.76,2.25,14.64,23.65,7.88,34.35-6.76,10.7,24.16,26.52,34.17,28.72,10,2.2,19.89,15.2,20.45,31.67.56,16.47,25.9,17.32,40.45,16.19,14.55-1.13,36.69-19.15,32.75-7.32-3.94,11.83,34.91,15.77,49.2,9.44,14.28-6.33,54.41-3.81,65.11-.43,10.7,3.38,42.82-13.99,52.08-21.47,9.26-7.47,3.67-15.14,3.67-19.64s5.07,2.82,11.26-10.14c6.19-12.95-1.69-39.42-2.82-43.36-1.13-3.94,7.32-5.07,10.42-11.83,3.1-6.76.27-18.58,5.34-24.78,5.07-6.19,10.14-18.58,11.82-33.17,1.69-14.59,0-33.28,4.5-42.85,4.5-9.57-3.38-23.65,2.25-30.97,5.63-7.32,4.5-14.08.56-24.06-3.94-9.98-1.13-16.49,3.04-21.55ZM499.81,569.94c-4.6,1.53-8.41-.16-11.5-2.89-.03-.03-.08,0-.08.04.78,5.83-.03,11.55-6.14,14-8.32,3.33-14.05-2.88-17.84-6.98-.61-.66-1.41-1.53-2.18-2.28-.03-.03-.08-.01-.08.03-.22,1.71-.36,3.76-.46,5.25-.5,7.31-1.19,17.32-9.6,17.32-1.08,0-2.16-.15-3.23-.41-.04-.01-.08.04-.05.08,4.96,6.85,7.21,11.63,5.4,15.71-.77,1.74-2.22,3.07-4.08,3.75-.57.21-1.21.38-1.98.47-.03,0-.05.04-.04.07.24.59.39,1.14.48,1.65.33,1.84-.06,3.67-1.11,5.14-1.97,2.76-4.94,3.81-7.45,4.37-.04,0-.05.06-.01.08,2.32,1.37,5.33,2.86,7.14,3.75.03.01.05.03.08.04,2.9,1.43,2.56,5.65-.52,6.63-.02,0-.03.01-.05.02-4.45,1.41-9.3.72-13.23-1.8-3.84-2.47-6.62-5.25-6.99-8.92-.72-7.2,5.43-9.15,8.67-9.83.04,0,.05-.05.02-.07-1.93-1.69-5.06-4.14-10.09-7.55-2.53-1.72-3.31-4.98-1.84-7.64,1.52-2.76,5.07-3.69,7.91-2.33,4.31,2.06,7.51,3.38,9.86,4.22.04.02.08-.03.05-.07-2.18-3.12-5.05-6.76-6.97-9.19-6.78-8.61-9.07-11.51-7.57-15.39.74-1.91,2.4-3.26,4.45-3.6,3.65-.61,6.94,1.67,11.49,4.82,2.15,1.49,5.41,3.74,7.76,4.74.03.01.06,0,.06-.03.35-1.91.54-4.79.68-6.73.45-6.46.83-12.04,4.41-15.11,1.57-1.35,3.57-2,5.65-1.82,4.95.41,8.36,4.1,11.36,7.35,3.07,3.32,4.42,4.46,5.46,4.38.02,0,.04-.02.05-.04.35-2.11-1.21-7.62-1.98-10.37-1.79-6.34-3.64-12.89,1.96-15.69,5.93-2.97,9.9,3.07,12.8,7.48,1.31,1.98,4.31,6.55,5.88,7.11.02,0,.03,0,.05,0,1.5-1.29,2.77-6.67,3.35-13.24.29-3.31,3.37-5.65,6.64-5.08l.11.02c2.53.43,4.34,2.72,4.15,5.28-.74,9.75-3.29,20.79-10.84,23.31Z"/>
  <g id="arm_R-2" data-name="arm R">
    <path d="M544.27,428.4c-12.95-36.18-69.82-51.1-74.89-52.22-5.07-1.13-33.22,21.4-35.48,20.83-2.25-.56-3.94-11.26-10.7-11.83-6.76-.56-19.15,31.53-24.78,31.81-5.63.28-9.01-1.41-14.34,0-5.33,1.41-13.82,31.25-19.45,31.82-5.63.56-14.08-4.5-20.27-5.63-5.19-.94-12.74,14.3-15.06,19.28-.28.6-1.09.64-1.47.1-1.31-1.86-4.55-4.49-11.62-1.36-20.52,9.08-19.15,58.56-23.65,63.63-4.5,5.07-30.41,50.68-29.84,64.76.56,14.08,14.64,12.95,12.39,20.27-2.25,7.32-3.38,21.96,0,28.15,3.38,6.19,11.26,7.88,17.46,16.33,6.19,8.45,2.82,24.21,7.32,31.53,4.5,7.32,15.77,3.38,20.83,7.88,5.07,4.5-2.82,5.07,0,19.71,2.82,14.64,16.33,20.27,24.78,20.83,8.45.56,22.52-3.38,27.59-7.88,5.07-4.5,1.13-11.83,5.44-12.39,4.32-.56,8.07-1.13,10.75-2.96,2.68-1.83-.99-8.31,2.39-11.12,3.38-2.82,10.14-1.13,15.2-3.94,5.07-2.82,1.13-15.77,3.94-19.15,2.82-3.38,16.33-1.69,23.09-5.07,6.76-3.38,3.38-16.33,3.38-20.27s14.64-9.57,15.2-12.39c.19-.93-1.96-2.23-4.93-3.75-.04-.02-.09-.04-.13-.07-.26.17-.55.32-.88.42-.02,0-.03.01-.05.02-4.45,1.41-9.3.72-13.23-1.8-3.84-2.47-6.62-5.25-6.99-8.92-.72-7.2,5.43-9.15,8.67-9.83.04,0,.05-.05.02-.07-1.93-1.69-5.06-4.14-10.09-7.55-2.53-1.72-3.31-4.98-1.84-7.64,1.52-2.76,5.07-3.69,7.91-2.33,4.31,2.06,7.51,3.38,9.86,4.22.04.02.08-.03.05-.07-2.18-3.12-5.05-6.76-6.97-9.19-6.78-8.61-9.07-11.51-7.57-15.39.74-1.91,2.4-3.26,4.45-3.6,3.65-.61,6.94,1.67,11.49,4.82,2.15,1.49,5.41,3.74,7.76,4.74.03.01.06,0,.06-.03.35-1.91.54-4.79.68-6.73.45-6.46.83-12.04,4.41-15.11,1.57-1.35,3.57-2,5.65-1.82,4.95.41,8.36,4.1,11.36,7.35,3.07,3.32,4.42,4.46,5.46,4.38.02,0,.04-.02.05-.04.35-2.11-1.21-7.62-1.98-10.37-1.79-6.34-3.64-12.89,1.96-15.69,5.93-2.97,9.9,3.07,12.8,7.48,1.31,1.98,4.31,6.55,5.88,7.11.02,0,.03,0,.05,0,1.5-1.29,2.77-6.67,3.35-13.24.26-2.98,2.79-5.16,5.68-5.16,0-.03,0-.06,0-.09.1-3.63,0-6.2,0-6.2,33.22-24.78,51.8-70.39,38.85-106.57Z"/>
    <path d="M510.89,537.58c34.94-27.49,51.45-74.7,38.46-110.99-14.67-40.98-78.16-55.53-78.8-55.67-4.58-1.02-10.59,2.45-27.54,14.13-2.4,1.65-5.15,3.55-7.26,4.93-1.95-3.85-5.39-9.6-12.09-10.16-6.69-.57-11.27,6.78-18.83,19.81-2.38,4.11-5.88,10.14-7.71,12.02-1.41,0-2.71-.14-4.07-.29-2.9-.31-6.18-.66-10.34.43-4.83,1.28-7.71,7.2-12.79,18.43-1.9,4.21-4.98,11-6.78,13.22-2.24-.21-5.71-1.54-8.58-2.63-3.06-1.17-6.23-2.38-9.23-2.93-4.14-.75-9.91.69-18.5,17.36-2.97-1.17-7.16-1.46-12.81,1.04-16.95,7.5-20.9,34.89-23.52,53.01-.69,4.75-1.54,10.64-2.24,12.27-5.17,6.38-31.58,52.3-30.95,68.25.42,10.45,6.78,14.93,10.58,17.61.62.43,1.4.98,1.88,1.39-2.04,7.13-3.93,23.52.58,31.79,2.26,4.14,5.75,6.62,9.13,9.03,2.99,2.12,6.08,4.32,8.71,7.91,2.46,3.35,2.93,9.24,3.39,14.94.49,6.06.95,11.78,3.69,16.23,3.94,6.4,10.82,7.16,15.85,7.72,2.07.23,4.37.48,5.54,1.07-1.15,2.92-3.02,7.8-1.26,16.99,3.11,16.16,17.58,24.39,29.72,25.2.62.04,1.28.06,1.96.06,9.25,0,23.35-3.76,29.57-9.3,4.18-3.71,4.59-8.48,4.81-11.38,4.22-.62,7.78-1.45,10.85-3.54,3.83-2.61,3.5-7.02,3.3-9.65-.04-.56-.11-1.4-.09-1.96.86-.28,2.59-.46,3.8-.58,2.98-.31,6.7-.69,10.16-2.61,5.71-3.17,5.64-10.21,5.58-15.87-.01-1.33-.03-3.2.09-4.33,1.53-.4,4.53-.67,6.64-.87,4.84-.45,10.33-.95,14.51-3.04,8.77-4.39,7.38-16.08,6.63-22.36-.06-.53-.13-1.1-.18-1.59,1.32-1.13,4.27-2.89,5.97-3.91,5.01-3,8.33-4.98,9.04-8.57.66-3.29-1.02-5.48-4.05-7.49-3.99,1.8-13.06,4.77-13.96,4.83.81.4,3.24,1.61,3.66,1.81-.08.05-.16.1-.24.14-5.81,3.48-11.31,6.76-11.31,12.02,0,1.12.16,2.47.34,4.02.83,6.92.58,10.77-.74,11.43-2.37,1.18-6.78,1.59-10.68,1.95-6.04.56-11.26,1.04-14.14,4.49-2.48,2.97-2.43,7.14-2.39,11.56.02,1.88.05,5.27-.41,6.51-1.49.69-3.51.9-5.64,1.11-3.3.34-7.04.72-10.02,3.21-3.93,3.27-3.57,8.03-3.35,10.88.01.18.03.39.04.6-1.71.65-4.17,1.01-7.07,1.39-6.46.84-6.93,7.11-7.11,9.48-.18,2.35-.35,3.45-1.22,4.23-3.63,3.22-15.98,7.04-23.65,6.53-5.84-.39-17.5-4.33-19.84-16.47-1.19-6.2-.13-8.9.73-11.08.97-2.45,2.76-7.02-2.44-11.65-3.47-3.09-7.99-3.59-11.98-4.03-4.53-.5-6.78-.93-7.84-2.65-1.38-2.24-1.76-6.92-2.12-11.44-.55-6.86-1.18-14.64-5.44-20.46-3.66-4.99-7.82-7.95-11.16-10.32-2.71-1.92-4.84-3.44-5.91-5.4-2.29-4.2-1.71-17.07.42-23.98,2.16-7.01-3.24-10.82-6.14-12.86-3.24-2.28-5.8-4.09-6.01-9.22-.46-11.59,24.03-55.94,28.49-60.95,2.36-2.66,3.12-7.31,4.6-17.59,2.14-14.81,5.71-39.6,17.2-44.69.48-.21,2.32-.98,3.68-.98.58,0,1.07.14,1.34.52,1.29,1.83,3.47,2.84,5.69,2.65,2.2-.2,4.15-1.57,5.09-3.58,4.53-9.73,8.34-14.78,10.04-16.07,1.89.46,4.21,1.35,6.47,2.21,4.84,1.85,9.85,3.76,14.47,3.3,5.74-.57,8.94-7.09,14.57-19.52,1.96-4.32,4.85-10.72,6.45-12.62,1.9-.38,3.53-.2,5.69.03,1.93.21,4.12.44,6.8.31,5.33-.26,8.78-5.82,15.47-17.36,2.64-4.56,6.9-11.89,9.28-14.15,1.16.89,2.43,3.47,3.17,4.98,1.35,2.74,2.75,5.58,5.98,6.39,3.28.82,5.56-.76,16.53-8.32,5.77-3.98,16.33-11.25,19.79-12.32,15.75,3.69,59.96,19.8,70.27,48.61,11.73,32.77-4.18,75.95-37,100.43l-2.28,1.7.12,2.84c.07,1.77.08,3.55.04,5.32,3.69.28,7.27.96,10.8,1.65.04-1.64.05-3.19.02-4.59Z"/>
  </g>
  <path id="tail-2" data-name="tail" d="M371.07,764.34c-2.35-.51-4.53-1.62-6.31-3.24-8.95-8.12-37.67-33.28-48.54-31.86-12.95,1.69,0,8.08-4.5,10.51-4.5,2.44-9.57-9.39-15.77-8.26-6.19,1.13-2.82,5.63-7.32,5.63s-11.83-7.44-18.02-7.94c-6.19-.51-.56,2.42-5.07,5.18-4.5,2.76-12.39-14.13-19.15-14.13s-6.19,14.18-10.7,14.13c-4.5-.05-10.14-14.69-14.08-14.13-3.94.56-5.63,5.63-10.14,6.19-4.5.56-7.32-11.26-12.95-11.26s-6.19,11.26-11.83,8.45c-5.63-2.82-7.32-51.8-20.83-51.8s-5.07,3.94-11.83,3.94-9.01-45.61-16.33-51.24c-7.32-5.63-8.45-.56-14.64-4.5-6.19-3.94,2.82-15.2-5.07-23.09-7.88-7.88-16.89-2.25-20.27-4.5s-1.69-22.52-9.01-25.34c-7.32-2.82-16.89,7.88-22.52,6.19-5.63-1.69-4.5-15.2-12.95-15.2s-11.26,8.45-15.77,12.39c-4.5,3.94-3.38-9.01-14.08.56-10.7,9.57-9.01,20.83-12.95,23.09-3.71,2.12-15.42,6.52-6.88,36.55.94,3.31.57,6.84-.98,9.92-2.49,4.96-4.88,14.51,1.4,29.05,1.57,3.64,1.44,7.77-.24,11.35-1.23,2.62-1.84,6.76.04,13.17,1,3.4.51,7.02-1.15,10.16-2.83,5.37-4.24,15.29,11.79,27.33,2.43,1.82,4.12,4.44,4.9,7.37,1.49,5.57,4.94,14.8,12.15,19.74,2.18,1.49,3.79,3.68,4.73,6.15,2.52,6.61,7.93,18.74,14.78,22.36,9.57,5.07,8.45,14.64,22.52,18.58,14.08,3.94,2.82,19.71,21.96,26.47,19.15,6.76,22.52,1.13,28.15,5.07,5.63,3.94.56,14.64,11.83,18.02,11.26,3.38,23.09-6.76,30.41-5.63,7.32,1.13-2.82,9.57,14.08,12.39,16.89,2.82,19.15-1.13,24.21,0,5.07,1.13,9.01,2.82,15.2,3.38,6.19.56,9.01-1.69,14.08,0,5.07,1.69,1.13,6.19,13.51,3.94,12.39-2.25,31.53-11.83,34.35-8.45,2.82,3.38-10.14,13.51-3.94,18.58,6.19,5.07,21.4-6.76,30.41-6.76s9.57,1.13,19.15-2.82c9.57-3.94,27.59-20.83,30.97-19.15,3.38,1.69.56,6.19,6.76,6.76,6.19.56,10.14,6.76,16.89,6.19,6.76-.56-3.94-15.77,9.57-16.33,13.51-.56,40.54-12.39,46.17-30.97,5.63-18.58-16.74-36.04-31.74-42.23-11.37-4.7-27.4-8.42-34.48-9.95Z"/>
  <path d="M634.63,728.83h0c-1.06-1.51-1.03-3.52.07-5.01,3.33-4.5,9.44-14.38,14.92-23.86,1.18-2.04,3.77-2.74,5.82-1.58l.06.04c2.07,1.17,2.79,3.8,1.6,5.86-4.29,7.43-10.87,18.49-15.56,24.69-1.75,2.31-5.25,2.24-6.92-.14Z"/>
  <path d="M654.8,730.61h0c-1.41-.07-2.63-.94-3.22-2.23-2.24-4.91-10.94-14.3-19.86-22.18-1.51-1.33-1.69-3.62-.39-5.17l.1-.11c1.34-1.59,3.72-1.77,5.27-.4,6.47,5.68,17.82,16.42,21.67,24.87,1.14,2.52-.81,5.35-3.57,5.21Z"/>
  <path d="M838.21,654.91s0,0,0-.01c-.23-.69-.43-1.26-.57-1.68-.39-1.18.39-3.41,1.57-6.06.08-4.25-.53-8.34-1.57-10.67-1.69-3.78-17.46,2.66-28.51-6.35-11.05-9.01-12.04-25.9-12.04-38.85,0-8.98,1.36-16.61,7.06-24.76-5.37-.36-10.53,3.5-13.82-2.26-4.5-7.88-24.91,1.84-26.47,0-1.9-2.25,2.82-26.47,0-31.53-2.82-5.07-10.28-4.65-10.14-6.33.46-5.55-1.08-16.52-2.93-21.26-3.41-8.73-12.42-9.22-14.67-10.35s.45-17.13-1.48-22.88c-3.03-9.01-9.64-5.07-10.53-6.19-.89-1.13,2.57-13.93-1.64-20.69-3.03-4.86-13.3-8.45-17.17-7.46-1.76.45,6.81-5.66,2.82-19.4-3.24-11.14-24.78-20.01-24.78-20.01-50.26,3.28,6.24,31.85,1.13,59.13-1.69,9.01,22,65.38,25.41,79.46,3.42,14.08,7.24,57.37-2.89,65.82-10.14,8.45,8.67,33.94-1.13,70.95-3.48,13.15-7.88,21.96-3.94,32.66,3.94,10.7,15.41,15.27,20.55,15.2,8.09-.11,10.11-5.32,16.05-3.03,6.76,2.6,12.11,3.72,19.99-1.97,5.88-4.24,7.65-9.64,8.03-11.47.13-.61.62-1.07,1.23-1.19,1.92-.38,5.91-1.21,8.24-2.04,2.25-.81,5.46-4.81,7.09-7,.5-.67,1.48-.72,2.04-.1,1.47,1.65,4.63,4.15,9.98,3.51,9.31-1.11,9.43-4.43,10.91-6.22.45-.54,1.2-.7,1.88-.52,13.47,3.58,23.72-5.66,29.73-13.31,5.07-6.45,2.6-16.67.91-22.02-.35-.25-.48-.6-.35-1.07Z"/>
  <path class="cls-2" d="M850.03,549.05s-20.91-6.75-35.51,6.2c-14.6,12.95-17.42,23.08-17.42,36.03s.98,29.84,12.04,38.85c11.05,9.01,26.82,2.57,28.51,6.35,1.69,3.78,2.25,12.23.56,18.43-1.69,6.19,41.11-7.88,44.48-21.4,3.38-13.51-.56-51.24-7.32-59.69-6.76-8.45-10.7-18.58-25.34-24.78Z"/>
  <path class="cls-1" d="M406.63,165.41s-12.99,9.33-18.9,16.93c-5.91,7.6-15.2,22.81-19,32.1-3.8,9.29-9.03,23.94-13.09,31.25-4.22,7.6-7.26,8.32-15.2,9.5-9.92,1.48-12.7.97-20.27-1.9-6.12-2.32-11.83-5.91-11.83-9.29s13.94-9.29,18.58-13.09c4.65-3.8,10.08-14.24,15.2-24.07,5.07-9.71,15.87-24.2,20.69-28.72,6.36-5.97,12.78-13.65,21.65-17.03,8.87-3.38,22.17,4.32,22.17,4.32Z"/>
  <path class="cls-1" d="M409.69,163.33s-16.89-3.8-30.83-3.38c-13.94.42-36.32,10.98-41.81,16.05s-16.89,17.74-20.69,22.38-15.63,15.2-28.3,17.74c-12.67,2.53-24.39-4.92-29.74-9.47-4.25-3.62-12.53-14.39-11.22-20.93.84-4.22,4.65-8.45,9.71-6.33,5.07,2.11,12.67,5.49,20.27-.42,7.6-5.91,14.78-18.73,22.38-26.18,8.54-8.37,33.12-25.78,49.83-33.13,10.14-4.46,27.45-7.84,39.28-3.61,11.83,4.22,30.8,13.84,27.01,15.73-4.69,2.34-16.48,20.47-5.9,31.57Z"/>
  <g>
    <path d="M2621.53,863.26s-37.73-72.08-163.3-22.52c0,0,5.49,42.58-11.26,65.04-11.1,14.88-32.94,34.63-46.17,41.95-18.52,10.25-36.2,15.85-54.56,25.61-17.47,9.29-28.78,18.88-43.42,32.39s-20.83,23.09-24.78,32.1c-3.94,9.01-6.56,24.01-6.55,33.72.01,7.96,3.45,21.26,7.39,30.83,3.94,9.57,10.69,21.4,14.67,26.8,5.13,6.94,12.87,19.04,25.66,24.52,13.3,5.7,23.86,5.28,37.66,3.52,9.56-1.22,18.58-6.76,23.65-12.95,5.07-6.19,11.23-16.15,16.33-24.78,3.87-6.55,8.95-13.22,14.64-16.33,9.55-5.21,19-6.48,27.03-8.45,12.62-3.1,35.61-5.03,55.75-7.88,14.3-2.02,35.69-7.88,46.74-12.95,8.16-3.74,29.43-14.54,42.54-23.11-1.27-.31-2.42-1.08-3.16-2.24-5.23-8.23-10.05-15.46-13.46-19.65-5.64-6.94-13.42-17.32-21.66-28.31-8.22-10.97-16.73-22.3-24.78-32.52-2.68-3.4-5.84-7.31-9.18-11.45-17.91-22.16-42.44-52.5-48.66-72.73-1.07-3.49-2.04-6.81-2.9-9.97-.72-2.63.31-5.43,2.57-6.95,2.68-1.81,5.49,1.08,5.99,2.13.96,2.03,2.9,5.91,4.66,11.62,5.61,18.24,29.38,47.65,46.74,69.12,3.37,4.16,6.55,8.1,9.27,11.55,8.13,10.32,16.67,21.71,24.93,32.73,8.17,10.9,15.89,21.19,21.4,27.97,3.71,4.57,8.65,11.95,14.07,20.47.66,1.04.91,2.19.83,3.31,17-13.72,49.74-46.09,52.72-53.05,3.38-7.88,9.01-51.24,10.14-65.88,1.13-14.64-19.71-51.24-31.53-63.63Z"/>
    <path d="M2625.92,860.05c-2.12-3.67-12.72-20.25-36.65-31.51-23.89-11.24-66.36-19.12-133.02,7.18l-3.9,1.54.53,4.16c.05.4,5,40.71-10.24,61.12-10.55,14.14-31.74,33.42-44.46,40.46-9.5,5.26-19.03,9.37-28.24,13.35-8.52,3.68-17.33,7.48-26.24,12.22-18.77,9.98-30.79,20.49-44.55,33.19-13.2,12.19-21,22.32-26.06,33.9-4.56,10.43-7.01,26.27-7,35.89.01,9.19,3.93,23.49,7.8,32.88,4.14,10.05,11.18,22.34,15.32,27.95.51.69,1.05,1.43,1.61,2.22,5.34,7.38,13.4,18.54,26.26,24.05,9.08,3.89,17.1,5.13,24.92,5.13,5.18,0,10.28-.54,15.54-1.21,10.31-1.31,20.71-7.02,27.14-14.89,4.31-5.26,9.64-13.35,16.8-25.45,4.27-7.22,8.62-12.18,12.58-14.34,6.9-3.77,13.8-5.28,20.47-6.74,1.81-.4,3.57-.78,5.26-1.2,7.98-1.96,20.58-3.47,33.91-5.07,7.05-.85,14.34-1.72,21.3-2.71,15.18-2.15,36.82-8.15,48.23-13.39,8.89-4.08,30.95-15.32,44.1-24.06,12.81-8.52,56.21-49.72,60.53-59.8,3.89-9.08,9.55-54.54,10.56-67.59,1.32-17.2-20.61-54.39-32.53-67.26ZM2647.69,926.47c-1.22,15.9-6.82,57.4-9.71,64.17-2.44,5.48-33.7,34.48-50.76,48.48,3.75,5.54-5.63,10.94-8.98,5.99-12.7,8.13-31.53,20.2-39.47,23.83-10.45,4.79-31.17,10.52-45.24,12.51-6.85.97-14.08,1.84-21.08,2.68-13.67,1.64-26.59,3.19-35.2,5.31-1.61.4-3.28.76-5,1.14-7.06,1.55-15.07,3.31-23.32,7.81-5.75,3.14-11.37,9.3-16.7,18.32-6.78,11.46-11.97,19.34-15.86,24.11-3.84,4.69-11.56,9.92-20.16,11.02-14.38,1.83-23.27,1.84-34.85-3.13-10.11-4.33-16.85-13.65-21.76-20.45-.59-.82-1.15-1.59-1.68-2.31-3.78-5.12-10.32-16.64-14.03-25.64-3.97-9.65-6.97-22.02-6.98-28.78-.01-9.68,2.72-23.83,6.09-31.55,3.12-7.14,8.36-16.32,23.49-30.29,13.18-12.16,24.66-22.22,42.29-31.59,8.52-4.53,17.13-8.25,25.45-11.84,9.45-4.08,19.23-8.3,29.19-13.81,14.03-7.76,36.41-28.06,47.89-43.44,5.67-7.6,8.99-17.14,10.89-26.68-.81-2.67-1.56-5.25-2.24-7.72-.59-2.14-.27-4.46,1-6.27,1.06-1.51,2.2-2,3.27-1.98.58-9.29.18-17.38-.2-22.06,47.94-18.21,89.37-20.4,119.99-6.3,23.5,10.82,32.67,27.62,32.75,27.77l.35.67.52.55c12.37,12.95,30.96,47.73,30.06,59.49Z"/>
  </g>
  <g id="tail-3" data-name="tail">
    <g>
      <path d="M2483.43,750.46l-.59.14-.54.27c-.09.05-1.27.63-3.31,1.63,6.36-.8,11.81-2.02,16.84-4.53-3.87.61-7.99,1.42-12.39,2.49Z"/>
      <path d="M2549.85,766.31c-4.45-9.28-14.13-18.7-34.95-19.59-5.11,5.52-10.36,9.19-15.92,11.69,16.35-2.35,33.31-1.17,40.37,11.1,7.15,12.44,1.49,30.34-1.17,33.25-7.15,5.41-52.33,31.38-62.43,35.87-2.49,1.11-5.23,2.95-9.01,5.49-13.8,9.28-39.49,26.56-94.42,35.79-59.21,9.95-89.9,3.37-114.56-1.92-4.32-.93-8.41-1.8-12.5-2.57-29.59-5.53-71.86-30.21-84.5-39.58-12.12-8.98-40.32-36.64-47.65-45.18-9.7-11.3-35.22-50.81-39.24-70.92-3.15-15.73-4.03-37.93-3.04-49.47.62-7.2,3.24-17.39,8.75-24.4,4.25-5.42,12.39-8.33,23.09-8.33.99,0,1.99.03,3.02.07,13.64.66,26.28,12.85,28.92,16.08,9.61,11.75,22.53,29.09,25.59,34.36,2.78,4.76,12.28,19.07,20.66,31.7,1.92,2.9,3.78,5.7,5.47,8.25,9.19,13.88,28.85,34.25,35.13,40.02,7.87,7.23,20.32,14.81,34.17,20.8,5.35,2.32,40.72,12.76,60.38,13.95,18.17,1.1,44.77,1.1,59.3,0,27.48-2.09,88.88-31.06,106.86-39.8-.68.1-1.36.19-2.05.28-3.91.48-7.75.73-11.54.73-4.07,0-8.09-.31-12.1-.88-25.49,11.6-63.28,27.49-81.99,28.91-14.12,1.07-40.06,1.07-57.83,0-18.06-1.09-52.44-11.22-56.75-13.08-12.78-5.53-24.14-12.4-31.15-18.84-7.16-6.58-25.44-25.96-33.43-38.03-1.69-2.56-3.56-5.36-5.48-8.27-7.89-11.89-17.71-26.69-20.33-31.17-3.73-6.4-17.34-24.47-26.56-35.75-4.32-5.29-19.34-19.19-36.75-20.03-16.01-.78-28.16,3.5-35.12,12.37-8.78,11.18-10.65,25.9-11.02,30.15-1.08,12.55-.17,35.62,3.21,52.51,4.43,22.17,31.09,63.55,41.63,75.84,7.53,8.77,36.34,37.13,49.42,46.82,11.52,8.53,55.78,35.32,88.94,41.51,3.95.74,7.97,1.6,12.22,2.51,15.91,3.41,34.24,7.34,60.59,7.34,15.98,0,34.91-1.45,58.03-5.33,57.23-9.61,85.21-28.43,98.66-37.47,3.21-2.16,5.74-3.86,7.37-4.59,9.86-4.38,56.78-31.14,64.73-37.26,6.55-5.04,12.86-28.5,4.99-44.92Z"/>
    </g>
    <path d="M2509.35,752.06c-8.83,7.17-18.24,9.8-29.07,11.14-3.91.48-7.75.73-11.54.73-.37,0-.75-.02-1.12-.02-24.95,11.66-70.79,31.81-92.72,33.48-13.74,1.05-39.98,1.13-58.56,0-18.58-1.13-53.47-11.31-58.56-13.51-12.78-5.53-24.92-12.7-32.66-19.82-6.69-6.15-25.71-26.07-34.28-39.02-8.99-13.58-22.65-34-25.97-39.7-3.37-5.77-16.48-23.31-26.08-35.05-3.31-4.05-17.05-17.29-32.84-18.05-13.09-.63-24.42,2.43-30.62,10.31-6.19,7.88-9.19,19.15-9.88,27.28-.95,11.15-.31,33.83,3.12,50.99,4.22,21.12,30.2,61.45,40.44,73.38,7.56,8.81,36.2,36.86,48.53,46,12.35,9.15,55.27,34.67,86.72,40.54,27.87,5.21,58.56,16.33,128.95,4.5,70.39-11.83,94.6-37.16,104.74-41.67,10.14-4.5,56.31-30.97,63.63-36.6,6.46-4.97,20.37-56.43-32.22-54.89Z"/>
  </g>
  <g>
    <g>
      <path d="M2825.37,670.96c-3.59-6.97.11-27.56,1.79-35.58,1.69-8.02,17.21-59.44,23.54-80.98,2.41-8.18,5.4-18.79,8.54-29.23-7.82,4.56-11.2,10.84-15.3,13.18-5.91,3.38-9.29,1.69-14.36,0-5.07-1.69-9.29-13.51-13.51-23.65-4.22-10.14-11.83-28.72-20.27-46.46-8.45-17.74-12.67-27.87-27.03-51.52-14.36-23.65-37.13-39.46-54.06-42.23-36.91-6.04-39.96,51.07-40.54,63.35-.99,20.96,2.53,54.06,6.76,78.55,4.22,24.49,9.29,58.28,14.36,77.71,5.07,19.43,14.36,59.97,27.87,73.48,13.51,13.51,39.7,18.58,58.28,19.43,16.21.74,33.7-1.74,52.34-6.31-3.77-3.32-6.91-6.8-8.42-9.74ZM2777.8,677.02c-.14,3.28-3.17,5.65-6.39,5.01-.06-.01-.11-.02-.17-.03-2.58-.52-4.39-2.85-4.27-5.47,1.24-28.62,1.49-55.68.21-75.31-3.91-60.16-22.64-126.26-29.69-151.14-.52-1.83-.98-3.45-1.37-4.85-1.2-4.27-2.85-8.97-4.84-13.93-.89-2.21-.22-4.74,1.66-6.2.03-.02.06-.05.09-.07,2.8-2.2,6.91-1.07,8.24,2.24,2.15,5.35,3.94,10.44,5.24,15.06.39,1.39.85,3.01,1.36,4.82,7.14,25.19,26.1,92.09,30.08,153.39,1.33,20.44,1.09,47.8-.15,76.51Z"/>
      <path d="M2956.29,550.18c-1.77-2.74-3.79-5.22-5.95-7.46-7.68,21.47-19.66,54.37-22.35,63.63-2.05,7.06-8.76,27.25-15.04,45.35,11.2-5.68,24.69-13.68,33.2-21.28,8.8-7.86,17.32-16.26,21.96-38.01,3.13-14.64-2.53-27.87-11.83-42.23Z"/>
    </g>
    <g>
      <path d="M2932.62,468.27c3.7,1.54,6.51,2.88,8.63,4.01l.91-5.58c-2.45-1.24-5.31-2.53-8.59-3.87l-.95,5.44Z"/>
      <path d="M2925.94,465.63l.94-5.4c-1.58-.59-3.22-1.18-4.94-1.78-1.2-.42-2.44-.7-3.71-.87l-.9,5.31c.97.12,1.92.33,2.83.65h0c2.08.73,4,1.42,5.78,2.09Z"/>
      <path d="M2960.58,495.05c-1.79-6.02-4.49-15.12-8.35-21.09-.7-1.08-1.89-2.22-3.55-3.43l-1.02,6.29s.03.05.05.07c3.44,5.32,6.01,13.97,7.71,19.69.49,1.64.91,3.06,1.28,4.19,1.29,3.87.19,13.7-2.56,22.87-1.06,3.54-5.92,17.06-11.07,31.37-7.25,20.16-15.46,43-17.66,50.58-3.93,13.55-23.65,71.25-26.82,77.19-3.17,5.94-4.91,7.56-10.95,10.2-5.3,2.31-23.26-.48-33.74-3.1-7.94-1.98-22.59-13.29-26.13-20.16-2.66-5.16-.56-21.43,2.04-33.79,1.25-5.96,10.67-37.61,17.55-60.73,2.31-7.75,4.4-14.79,5.95-20.05.88-2.99,1.84-6.3,2.85-9.81,5.83-20.18,14.65-50.68,19.84-56.77l1.1-1.29c5.63-6.62,10.09-11.85,18.68-17.01-.63-.71-.96-1.68-.79-2.69l.58-3.42c-11.08,6.1-16.28,12.22-22.58,19.62l-1.09,1.29c-5.5,6.45-12.73,30.43-20.92,58.77-1.01,3.5-1.97,6.81-2.84,9.79-1.55,5.25-3.64,12.29-5.94,20.03-7.29,24.49-16.36,54.98-17.66,61.15-1.81,8.62-5.6,29.52-1.55,37.37,4.29,8.32,20.07,20.53,29.62,22.92.21.05,16.62,4.11,28.42,4.11,3.52,0,6.64-.36,8.79-1.3,7.15-3.13,9.81-5.6,13.55-12.6,3.6-6.74,23.64-65.85,27.24-78.22,2.16-7.42,10.34-30.18,17.56-50.26,5.39-15.01,10.05-27.97,11.16-31.64,2.64-8.82,4.45-20.31,2.51-26.12-.35-1.06-.76-2.44-1.23-4.02Z"/>
      <path d="M2905.48,465.29c1.84-.82,3.56-1.43,5.18-1.85l.96-5.69c-2.62.44-5.38,1.3-8.34,2.61-.19.08-.37.17-.56.25l-1.1,6.49c1.22-.6,2.48-1.2,3.85-1.81Z"/>
    </g>
  </g>
  <path d="M2975.44,435.59c-.99-5.49-14.01-15.45-20.27-18.86-7.74-4.22-27.87-9.05-38.3-8.78-12.11.31-20.21,3.38-24.58,5.63-3.57,1.84-6.12,4.31-8.27,6.65-.79.86-1.31,1.93-1.51,3.09-1.19,6.69-6.46,25.37-3.85,34.98,1.45,5.34,5.83,8.98,9.64,12.08,3.8,3.1,18.16,10.42,26.75,11.97s15.2,2.96,26.04,2.25c10.84-.7,18.59-2.38,20.98-3.8,4.5-2.67,10-11.4,11.26-19.29,1.26-7.81,3.1-20.41,2.11-25.9ZM2969.4,444.04c-.3.1-.58.17-.88.27l-5.02,30.84c-.32,1.85-2.14,3.1-4.06,2.79-1.92-.31-3.21-2.07-2.89-3.92l4.49-27.6c-3,.73-5.9,1.28-8.73,1.7l-4.86,29.89c-.32,1.85-2.14,3.1-4.06,2.79-1.92-.31-3.21-2.07-2.89-3.92l4.54-27.95c-2.15.15-4.26.24-6.3.24-.94,0-1.86-.03-2.78-.06l-4.92,28.13c-.32,1.85-2.14,3.1-4.06,2.79-1.92-.31-3.21-2.07-2.89-3.92l4.81-27.51c-3.14-.36-6.11-.88-8.92-1.51l-4.43,26.25c-.3,1.76-1.97,2.95-3.73,2.65-1.76-.3-2.95-1.97-2.65-3.73l4.53-26.81c-2.85-.86-5.5-1.8-7.95-2.76l-4.39,26c-.3,1.76-1.97,2.95-3.73,2.65h0c-1.76-.3-2.95-1.97-2.65-3.73l4.65-27.52s0,0,0,0c-1.77-.8-3.41-1.59-4.91-2.3-.78-.37-1.52-.73-2.23-1.06-1.74-.82-2.52-2.86-1.78-4.64l.14-.33c.79-1.89,3-2.74,4.85-1.87.72.34,1.48.7,2.27,1.08,13.36,6.37,35.42,16.91,69.06,5.91,1.85-.6,3.85.36,4.51,2.19l.12.34c.69,1.91-.34,4.02-2.27,4.65Z"/>
  <path d="M2986.42,453.61c-5.07-5.07-7.6-6.19-11.54-5.63-2.01.29-4.61-.52-6.86-.56l-1.75,10.77c2.46,2.38,5.52,3.87,5.52,3.87,0,0,3.7.35,5.63,7.04,1.58,5.49.72,10.35,0,11.54-2.09,3.48-7.59,7.34-11.81,10.16-4.22,2.82-9.75,4.98-13.62,5.51-5.05.69-14.79.92-11.41.66.41-.03-10.86.05-15.8-.68-4.79-.71-12.39-2.41-15.77-3.54-3.38-1.13-9.85-4.22-12.67-5.63-2.82-1.41-7.63-4.4-9.71-7.04-1.58-2.01-3.38-8.02-7.81-8.34-2.86-.2-5.86,1.7-6.23,7.18-.32,4.75,2.08,7.64,4.33,9.89,2.25,2.25,4.79,4.5,8.45,6.76,3.66,2.25,6.08,3.57,10.42,5.91,5.63,3.04,10.85,4.61,16.33,5.91,5.86,1.39,11.83,2.53,15.77,2.82,3.94.28,7.78,1.11,16.05,0,8.9-1.2,17.98-3.48,23.05-5.74,5.07-2.25,14.68-8.62,17.77-12,3.1-3.38,9.01-6.76,9.01-18.02s-2.25-15.77-7.32-20.83Z"/>
  <g>
    <path d="M2913.67,629.96s-11.76-6.09-16.61-10.73c-4.86-4.65-5.91-6.53-8.16-9.63-2.25-3.1-5.67-9.09-8.21-15.5-1.49-3.76-3.59-12.25-3.43-17.72.17-5.81.65-11.17,5.43-19.9,3.64-6.63,7.26-12.18,9.19-15.06.67-1.01,5.54-6.47,6.44-7.29,3.44-3.12,9.36-7.56,16.75-8.9,9.29-1.69,19.22,1.44,22.32,3.13s10.66,6.61,14.28,10.67,10.42,12.39,12.11,24.49c1.69,12.11,4.5,26.18,1.13,34.91-3.38,8.73-7.32,13.8-12.67,19.71-5.35,5.91-8.76,8.59-14.11,11.12s-16.26,3.91-24.46.7Z"/>
    <path d="M2924.71,637.24c-4.41,0-8.95-.67-13-2.25l-.52-.24c-1.27-.66-12.6-6.59-17.86-11.63-4.47-4.28-6.11-6.59-7.84-9.03-.3-.42-.61-.86-.95-1.33-2.27-3.12-5.96-9.37-8.86-16.69-1.65-4.16-4-13.35-3.8-19.87.19-6.49.79-12.65,6.1-22.33,2.76-5.04,5.94-10.25,9.43-15.47.99-1.49,6.22-7.31,7.31-8.29,4.21-3.81,11-8.68,19.4-10.21,10.82-1.97,22.1,1.64,25.87,3.7,3.3,1.8,11.49,7.06,15.73,11.82,7.56,8.49,12.07,17.68,13.42,27.34.22,1.6.47,3.24.71,4.89,1.74,11.71,3.54,23.82.1,32.71-3.53,9.12-7.7,14.75-13.7,21.38-5.79,6.4-9.78,9.52-15.81,12.38-3.91,1.85-9.7,3.1-15.73,3.1ZM2915.89,625.03c6.77,2.53,15.89,1.26,19.93-.65,4.69-2.22,7.59-4.53,12.42-9.86,5.4-5.97,8.68-10.39,11.64-18.04,2.41-6.23.75-17.39-.71-27.23-.25-1.69-.5-3.36-.73-4.99-1.06-7.61-4.59-14.69-10.79-21.65-3.05-3.42-9.97-7.96-12.84-9.52-2.1-1.15-10.81-4-18.77-2.56-5.9,1.07-10.92,4.72-14.09,7.59-.77.73-4.91,5.37-5.62,6.35-3.27,4.9-6.28,9.83-8.9,14.59-4.17,7.61-4.61,12.04-4.77,17.46-.13,4.48,1.72,12.22,3.05,15.57,2.35,5.94,5.57,11.58,7.55,14.32.37.5.7.97,1.02,1.43,1.61,2.27,2.78,3.91,6.5,7.48,3.42,3.27,11.81,7.98,15.1,9.7Z"/>
  </g>
  <g id="body-2" data-name="body">
    <g>
      <g>
        <path d="M2453.23,752.16c.76-.23,1.57-.32,2.41-.17,2.79.49,5.58.81,8.38.98,0-.1,0-.21,0-.31,0-6.04-.03-12.58-.06-19.48-.16-35.55-.35-79.78,3.55-112.93-2.7-13.64-.37-20.92,2.8-26.58,3.36-30.54,9.68-77.69,23.15-119.55,14.89-46.28,41.65-93.94,63.62-113.32,11.94-10.53,31.87-28.13,63.12-30.72,5.74.71,61.45,8.38,81.57,38.93,10.63,16.14,23.45,38.86,31.74,58.41,3.16-2.14,6.09-4.49,8.58-7.29-8.6-19.54-20.97-41.36-31.31-57.06-23.93-36.34-87.22-43.5-89.91-43.79l-.49-.05-.5.04c-35.15,2.72-56.93,21.94-69.94,33.43-23.63,20.86-51.08,69.43-66.75,118.11-16.47,51.16-22.42,109.6-25.29,137.68-.44,4.33-.79,7.74-1.09,10.31-4,33.82-3.8,78.51-3.64,114.42.03,6.69.06,13.04.06,18.93Z"/>
        <path d="M2770.58,681.05c-1.73,37.08-5.05,76.24-8.84,104.93-.27,2.05-.54,4.2-.83,6.45-3.19,25.15-8.02,63.16-26.92,89.49-27.14,37.8-38.75,43.4-48.99,48.34-1.34.65-2.67,1.29-4,1.98-27.7,14.27-40.52,16.24-60.48,15.45-19.87-.79-57.14-14.16-75.31-23.1-12.39-6.1-38.17-18.79-52.25-42.3-23.35-39-28.11-84.42-28.83-118.53-3.47-.19-6.91-.57-10.35-1.18-.16-.03-.31-.09-.47-.13.63,35.56,5.41,83.65,30.39,125.39,15.71,26.24,43.42,39.88,56.74,46.44,19.5,9.59,58.02,23.34,79.64,24.2,2.53.1,4.95.16,7.32.16,17.85,0,32.32-3.3,58.53-16.8,1.25-.65,2.49-1.24,3.75-1.85,11.4-5.5,24.32-11.73,53.06-51.77,20.5-28.55,25.53-68.19,28.86-94.42.28-2.23.55-4.36.82-6.39,3.77-28.57,7.13-67.22,8.9-104.27-3.59-.56-7.16-1.28-10.76-2.07Z"/>
      </g>
      <path d="M2464.03,752.66c0,.1,0,.21,0,.31,4.85.29,9.77.12,14.89-.52,12.33-1.52,21.24-4.55,30.28-15.53,3.82-4.64,9.92-14.96,7.82-31.94-1.45-11.68-17.34-34.67-25.1-43.21-.79-.86-1.73-1.84-2.78-2.93-5.93-6.15-14.9-15.44-18.64-27.22-1.35-4.23-2.32-7.99-2.98-11.37-3.9,33.14-3.7,77.37-3.55,112.93.03,6.9.06,13.44.06,19.48Z"/>
      <path d="M2766.97,676.52c1.24-28.62,1.49-55.68.21-75.31-3.91-60.16-22.64-126.26-29.69-151.14-.52-1.83-.98-3.45-1.37-4.85-1.2-4.27-2.85-8.97-4.84-13.93-.83-2.07-.28-4.41,1.34-5.91-8.29-19.07-20.58-40.77-30.85-56.35-20.12-30.56-75.83-38.22-81.57-38.93-31.25,2.59-51.18,20.19-63.12,30.72-21.97,19.39-48.72,67.05-63.62,113.32-13.47,41.86-19.79,89.01-23.15,119.55.05-.08.09-.17.14-.25,3.95-6.94,19.8-20.92,25.91-24.85,1.14-.74,2.77-1.68,4.76-2.8,2.63-1.46,5.95-.47,7.33,2.2.02.04.04.08.06.12,1.32,2.55.37,5.68-2.13,7.09-1.74.98-3.17,1.81-4.19,2.47-5.91,3.8-19.82,16.63-22.37,21.11-1.9,3.33-5.43,9.54.94,29.58,2.98,9.37,10.89,17.57,16.13,23,1.13,1.17,2.15,2.23,3,3.16,6.45,7.1,25.82,32.98,27.83,49.14,2.6,21-5.27,34.16-10.2,40.13-11.25,13.65-23.04,17.62-37.29,19.38-3.91.48-7.75.73-11.54.73-1.53,0-3.05-.06-4.57-.14.71,34.11,5.48,79.53,28.83,118.53,14.07,23.51,39.86,36.2,52.25,42.3,18.17,8.94,55.44,22.31,75.31,23.1,19.97.79,32.78-1.18,60.48-15.45,1.34-.69,2.66-1.33,4-1.98,10.24-4.94,21.84-10.54,48.99-48.34,18.91-26.33,23.73-64.34,26.92-89.49.28-2.25.56-4.4.83-6.45,3.76-28.5,7.07-67.33,8.8-104.19-2.2-.76-3.68-2.89-3.58-5.27Z"/>
    </g>
  </g>
  <g>
    <path d="M2889.1,1165.64c-1.72-20.07-14.99-36.53-26.82-42.44-11.83-5.91-27.03-4.22-35.47-7.6-8.45-3.38-9.29-10.98-14.36-18.58-5.07-7.6-21.12-53.21-32.94-79.4-11.83-26.18-43.08-95.44-54.06-114.03-10.98-18.58-38.85-70.11-48.14-84.46-9.29-14.36-45.61-65.88-63.35-80.24-16.43-13.3-54.58-13.49-95.7,4.01-.27.35-.54.69-.79,1-9.26,11.24-18.9,15.91-29.96,18.19-20.13,19.9-22.05,44.88-22.2,51.27-.02.97-.11,1.93-.24,2.89-.5,3.6-1.28,14.62,3.24,35.65,2.04.28,2.31.31,3.94.53-1.06,2.03-1.96,4.24-2.61,6.71-.05.05.53.46.47.5,1.22,4.9,2.7,10.25,4.49,16.08,7.07,22.96,40.27,61.29,56.93,82.43,16.44,20.86,35.41,47.25,46.39,60.76,3.97,4.89,9.62,13.48,15.68,23.09.6.95,1.78,1.38,2.84,1.01.46-.16.92-.33,1.39-.49-.12.04-.24.09-.36.13-1.45.52-2.05,2.25-1.23,3.55,9.96,15.96,20.5,33.6,26.19,41.53,12.03,16.74,36.32,51.52,46.46,65.88,10.14,14.36,43.92,56.59,59.97,72.64,16.05,16.05,32.1,20.27,51.52,21.96,19.43,1.69,41.81-.63,54.9-5.91,11.57-4.66,34.76-17.67,46.46-41.39,7.39-14.99,8.55-21.8,7.39-35.26ZM2614.45,1035.01c-.26.15-.53.31-.79.46.27-.15.53-.3.79-.46ZM2618.9,1032.17c-.24.17-.49.34-.74.51.25-.17.49-.34.74-.51ZM2617.45,1033.15c-.25.17-.5.33-.76.49.26-.16.51-.33.76-.49ZM2615.97,1034.1c-.26.16-.52.32-.78.48.26-.16.52-.32.78-.48ZM2599.54,1041.88c-.3.11-.59.22-.89.33.3-.11.59-.22.89-.33ZM2612.89,1035.89c-.27.15-.54.29-.81.44.27-.14.54-.29.81-.44ZM2611.3,1036.74c-.28.14-.55.29-.83.43.28-.14.55-.28.83-.43ZM2609.68,1037.55c-.28.14-.56.28-.85.41.28-.14.57-.27.85-.41ZM2608.04,1038.34c-.29.13-.57.27-.86.4.29-.13.58-.26.86-.4ZM2606.37,1039.1c-.29.13-.58.26-.87.38.29-.13.58-.25.87-.38ZM2604.69,1039.83c-.29.12-.59.25-.88.37.3-.12.59-.25.88-.37ZM2602.98,1040.54c-.29.12-.59.24-.88.35.29-.12.59-.23.88-.35ZM2601.26,1041.22c-.29.11-.59.23-.88.34.3-.11.59-.23.88-.34ZM2622.28,1029.57c.22-.19.44-.38.66-.57-.22.19-.44.38-.66.57ZM2619.58,1031.68c.24-.18.48-.35.71-.53-.24.18-.47.36-.71.53ZM2620.95,1030.65c.23-.18.46-.37.69-.55-.23.19-.46.37-.69.55ZM2623.56,1028.46c.21-.19.42-.39.63-.59-.21.2-.42.4-.63.59ZM2624.78,1027.31c.21-.2.4-.41.61-.62-.2.21-.4.41-.61.62ZM2634.2,1008.14c.06-.6.1-1.21.12-1.83-.02.62-.07,1.23-.12,1.83ZM2625.94,1026.11c.2-.21.39-.43.58-.64-.19.22-.38.43-.58.64ZM2627.04,1024.87c.19-.22.36-.44.54-.67-.18.22-.36.45-.54.67ZM2628.07,1023.59c.17-.23.34-.46.51-.69-.17.23-.33.46-.51.69ZM2629.04,1022.27c.16-.24.32-.48.47-.72-.16.24-.31.48-.47.72ZM2629.94,1020.9c.15-.25.29-.5.44-.75-.14.25-.29.5-.44.75ZM2630.76,1019.48c.14-.26.27-.52.4-.78-.13.26-.26.52-.4.78ZM2631.5,1018.01c.13-.27.24-.54.36-.81-.12.27-.23.54-.36.81ZM2632.17,1016.5c.11-.28.21-.56.32-.85-.1.28-.2.57-.32.85ZM2632.75,1014.93c.1-.29.19-.6.28-.9-.09.3-.18.6-.28.9ZM2633.25,1013.31c.09-.31.16-.63.23-.95-.08.32-.15.64-.23.95ZM2633.66,1011.64c.07-.34.13-.68.19-1.02-.06.34-.12.69-.19,1.02ZM2633.98,1009.92c.06-.39.1-.78.15-1.17-.05.39-.09.79-.15,1.17Z"/>
    <path d="M2894.73,1165.67c-1.88-21.89-16.4-40.12-29.78-46.81-7.7-3.85-16.24-4.79-23.77-5.62-4.75-.52-9.23-1.01-12.11-2.17-3.8-1.52-5.27-4.19-7.76-9.18-1.12-2.25-2.39-4.8-4.11-7.38-2.39-3.59-8.66-19.6-14.72-35.08-5.74-14.65-12.24-31.26-17.79-43.55l-.34-.76c-12.86-28.47-42.96-95.13-53.99-113.79-4.45-7.53-11.73-20.57-19.43-34.37-11.43-20.47-23.24-41.64-28.83-50.28-8.78-13.57-45.72-66.32-64.48-81.5-18.27-14.8-56.53-14.07-95.12.78-1.73,3.37-3.59,6-5.16,7.9-11.25,13.65-23.04,17.62-37.29,19.38-.09.01-.18.02-.27.03-17.74,20.61-19.46,44.5-19.6,50.45-.02.74-.08,1.49-.19,2.28h0c-.73,5.25-1.4,19.14,5.1,45.26.02-.05.04-.11.06-.16.68-.68,2.23-.5,3.55-.55,1.03-.04,1.9-.76,2.19-1.75.7-2.3,1.58-4.39,2.61-6.3.28-.51.37-1.1.24-1.67-4.24-19.88-3.52-30.11-3.07-33.34.16-1.18.26-2.36.29-3.51.16-7.02,2.86-42.99,40.08-61.25,44.93-22.04,84.94-21.17,99.78-9.16,16.39,13.27,51.15,61.87,62.21,78.98,5.4,8.35,17.66,30.3,28.47,49.68,7.74,13.86,15.04,26.95,19.56,34.6,10.73,18.15,41.76,86.87,53.44,112.74l.34.76c5.43,12.03,11.89,28.51,17.58,43.04,7.91,20.2,12.9,32.79,15.79,37.13,1.35,2.02,2.41,4.15,3.43,6.21,2.63,5.28,5.62,11.27,13.41,14.39,4.24,1.7,9.44,2.27,14.94,2.87,6.96.77,14.15,1.56,20.13,4.54,10.43,5.21,22.33,20.33,23.85,38.08,1.05,12.22.28,17.95-6.85,32.42-12.4,25.15-38.52,36.71-43.63,38.77-12.13,4.89-33.68,7.17-52.42,5.54-18.78-1.63-33.39-5.62-48.18-20.4-15.7-15.7-49.45-57.87-59.38-71.93-3.14-4.45-7.65-10.87-12.73-18.11-11.33-16.15-25.44-36.24-33.76-47.81-3.97-5.52-10.53-16.18-17.48-27.46-2.82-4.58-5.67-9.21-8.45-13.67-.6-.97-1.8-1.37-2.88-.98-1.9.68-3.81,1.33-5.71,1.94-1.5.48-2.13,2.25-1.3,3.58,3.05,4.88,6.17,9.94,9.15,14.79,7.05,11.45,13.72,22.27,17.91,28.1,8.28,11.52,22.37,31.59,33.68,47.71,5.09,7.24,9.6,13.67,12.74,18.13,10.37,14.69,44.21,56.99,60.56,73.34,17.04,17.04,34.26,21.73,54.87,23.52,4.41.38,8.92.57,13.44.57,16.58,0,33.14-2.49,43.95-6.85,8.08-3.26,35.5-16.05,49.28-44.01,7.58-15.37,9.21-23.21,7.93-38.11Z"/>
  </g>
  <g id="arm_R-3" data-name="arm R">
    <path d="M2631.54,420.75c-19.76-44.91-91.39-45.99-94.43-46.02h-.89s-.84.27-.84.27c-1.56.51-38.58,12.75-70.19,30.25-9.38,5.19-62.55,45.25-80.11,63.48-14.45,15-42.84,52.11-53.21,70.97-12.8,23.29-10.28,53.79,7.7,93.24,17.99,39.47,38.16,73.62,42.58,80.6,12.43,19.66,40.01,38.86,50.7,43.22,5.31,2.17,15.24,4.77,20.42,5.97.12,1.29,18.17,3.33,18.05,1.99-2.62-.73-7.19-.97-7.42-6.55,0-.04,0,.04,0,0,.12-5.51,6.46-5.24,8.48-5.67-4.45-1.09-30.97-3.91-35.45-5.73-8.46-3.45-34.19-20.88-45.65-38.99-4.33-6.85-24.14-40.4-41.88-79.31-16.47-36.14-19.11-63.47-8.06-83.57,9.83-17.87,37.81-54.44,51.53-68.68,17.4-18.07,69.9-57.29,77.56-61.53,28.09-15.55,61.67-27.19,67.46-29.15,7.92.26,67.88,3.42,83.78,39.55,16.33,37.11-8.62,89.58-14.84,95.93l-1.42.42c-7.65,2.27-23.56,7-36.45,11.85-13.68,5.15-46.15,20.76-63.54,30.02.53.94,1.03,1.9,1.53,2.85.6.46,1.12,1.05,1.49,1.76.02.04.04.08.06.12.36.7.54,1.45.57,2.19.46.87.93,1.73,1.42,2.57,16.76-8.95,48.8-24.35,62.27-29.42,12.53-4.71,28.78-9.55,35.72-11.61l2.22-.66c1.39-.42,5.62-1.69,13.51-18.77,11.79-25.55,19.91-63.03,7.33-91.61Z"/>
    <path d="M2627.1,422.77c-18.58-42.23-89.53-42.8-89.53-42.8,0,0-37.73,12.39-69.26,29.84-8.39,4.64-61.39,44.39-78.83,62.5-14.64,15.2-42.5,51.87-52.37,69.82-11.68,21.26-9.57,50.12,7.88,88.41,17.46,38.29,37.3,72.15,42.23,79.96,12.11,19.15,38.85,37.31,48.17,41.11,4.77,1.94,9.45,3.48,14.15,4.61.55-2.82,3.25-4.73,6.08-4.24,7.61,1.33,15.19,1.46,23.28.47,12.33-1.52,21.24-4.55,30.28-15.53,3.82-4.64,9.92-14.96,7.82-31.94-1.45-11.68-17.34-34.67-25.1-43.21-.79-.86-1.73-1.84-2.78-2.93-5.93-6.15-14.9-15.44-18.64-27.22-6.87-21.57-4.08-31.11-.04-38.2,3.95-6.94,19.8-20.92,25.91-24.85,1.14-.74,2.77-1.68,4.76-2.8,2.61-1.46,5.91-.48,7.31,2.16,16.99-9.05,49.16-24.56,62.92-29.74,14.22-5.35,32.66-10.7,38.29-12.39,5.63-1.69,36.04-60.81,17.46-103.05Z"/>
  </g>
  <path class="cls-3" d="M2756.96,263.08h.04c-1.53-3.53.22-9.47,3.83-10.84l50.07-18.57c3.61-1.37,9.45,3.89,10.25,6.02l-.1-.23c1.53,3.52-2.12,8.33-5.73,9.7l-48.55,17.32c-3.61,1.37-8.28.11-9.81-3.4Z"/>
  <path class="cls-3" d="M2753.46,297.55l-.03-.15c-1.06-4.71,1.11-9.62,4.83-10.92,32.44-11.33,39.92-10.37,63.76-7.31.06,0,.13.02.19.02,3.81.49,6.59,4.79,6.22,9.63v.16c-.38,4.86-3.8,8.41-7.63,7.92-.07,0-.13-.02-.2-.03-22.87-2.93-28.81-3.69-58.62,6.76-3.67,1.29-7.48-1.43-8.52-6.09Z"/>
  <path class="cls-3" d="M2807.51,335.93l-49.73-5.77c-4.23-.49-7.3-4.59-6.84-9.15l.03-.25c.46-4.56,4.26-7.86,8.49-7.37l49.73,5.77c4.23.49,7.3,4.59,6.84,9.15l-.03.25c-.46,4.56-4.26,7.86-8.49,7.37Z"/>
  <path d="M2653.63,239.91c0,6.92-5.47,12.67-12.39,12.67s-14.06-6.76-14.64-13.66c-.84-9.99,4.34-15.34,11.26-15.34s15.77,9.41,15.77,16.33Z"/>
  <path d="M2761.82,252.3l50.07-18.57c.51-.19,1.07-.24,1.65-.2,0-.33,0-.65,0-.94,0-20.34-6.76-47.72-10.98-60.81-4.85-15.04-25.34-59.13-27.87-65.04-1.47-3.44-15.23-38.26-23.79-67.43-3.33-11.36-8.46-22.9-9.29-24.92-5.63-13.66-15.63-16.61-21.12-12.95-2.37,1.58-7.6,6.62-9.29,8.59-1.69,1.97-20.55,21.82-20.55,21.82,0,0-8.45,10.56-9.57,11.83-1.13,1.27-16.47,17.17-20.55,19.29-4.08,2.11-26.89,1.55-26.89,1.55l-54.76,1.27-65.74-.28c-2.53-.28-10.98-12.25-12.95-14.64-1.97-2.39-10.95-13.12-14.5-17.03-9.57-10.56-16.99-11.28-21.4-11.54-4.22-.25-11.4,3.38-12.98,14.8-1.42,10.33-3.28,18.4-3.49,26.59-.2,7.65-6.48,32.1-7.6,48.14-1.21,17.3-8.28,63.76-11.83,88.12-4.36,29.98,3.23,66,5.35,78.41,4.08,23.93,18.55,49.06,30.27,67.71,10.7,17.03,38.01,43.78,45.53,47.5,11.56,5.72,40.48,14.72,63.28,21.48,22.81,6.76,61.66,4.22,89.53,5.07,27.87.84,75.74-13.09,90.38-23.65,6.9-4.98,23.51-23.23,32.1-37.16,4.76-7.73,8.48-16.29,11.46-24.66l-38.5-4.47c-4.23-.49-7.3-4.59-6.84-9.15l.03-.25c.46-4.56,4.26-7.86,8.49-7.37l41.94,4.86c2.3-8.34,3.97-15.65,5.39-20.62.21-.73.41-1.5.6-2.29-13.49-1.18-22.24.17-45.41,8.29-3.67,1.29-7.48-1.43-8.52-6.09l-.03-.15c-1.06-4.71,1.11-9.62,4.83-10.92,26.59-9.29,36.42-10.31,52.23-8.7,1.16-9.1,1.95-18.93,2.44-27.34l-45.15,16.11c-3.61,1.37-8.28.11-9.81-3.4h.04c-1.53-3.53.22-9.47,3.83-10.84ZM2537.9,234.92l.79-1.38c2.07-3.61,6.73-4.9,10.4-2.88l47.21,25.99c3.67,2.02,4.97,6.59,2.9,10.21l-.79,1.38c-2.07,3.61-6.73,4.9-10.4,2.88l-47.21-25.99c-3.67-2.02-4.97-6.59-2.9-10.21ZM2522.57,290.01l.17-1.59c.46-4.17,4.19-7.26,8.33-6.89l53.19,4.71c4.14.37,7.12,4.04,6.66,8.22l-.18,1.59c-.46,4.17-4.19,7.26-8.33,6.89l-53.19-4.71c-4.14-.37-7.12-4.04-6.66-8.22ZM2600.3,324.33c-10.27,1.89-17.39,3.64-23.1,5.8l-10.73,5.48c-4.58,3.05-8.95,6.9-14.88,12.13-1.61,1.42-3.33,2.94-5.2,4.56-3.06,2.66-7.48,2.02-9.83-1.42h0s0,0,0,0c0,0,0-.01-.01-.02l-.03-.05c-2.31-3.4-1.74-8.25,1.27-10.87,1.84-1.6,3.54-3.1,5.13-4.5,17.42-15.35,23.47-20.69,55.09-26.55,3.84-.71,7.46,2.2,8.05,6.5,0,0,0,0,0,0h0s0,.02,0,.02v.05c.58,4.22-2,8.17-5.76,8.86ZM2639.83,261.31c-12.95-.84-25.17-11.44-24.78-23.79.28-8.87,12.39-22.1,24.35-22.38,13.45-.32,23.94,10.03,24.35,22.38.28,8.31-11.57,24.6-23.93,23.79ZM2738,302.97c.1,1.83-3.14,4.3-4.97,4.24-8.87-.28-15.58-3.24-20.69-5.63-2-.94-3.77-2.17-5.21-2.53-.18-.04-.21-.05-.17-.03-1.45-.18-4.65,3-6.3,4.11-6.44,4.33-14.94,9.57-23.79,9.57-.44,0-2.24-.11-2.67-.14-1.98-.14-4.17-1.3-4.81-4.02l-.03.12c-.43-4.84,3.69-6.45,5.14-6.36,6.97.41,15.62-5.4,21.56-9.39,4.24-2.85,6.55-4.35,8.63-4.66,3.17-.47,6.38,1.02,10.45,2.92,4.82,2.25,10.68,4.98,18.21,5.24,1.63.06,5.41,2.77,4.65,6.53l.02.04ZM2757.24,240.19c-10.19,1.77-22.89-9.01-22.52-22.81.28-10.7,10.49-17.46,20.83-17.46s19.71,10.61,19.71,19.71-6.76,18.59-18.02,20.55Z"/>
  <path d="M2764.84,219.5c0,6.92-5.11,12.53-11.4,12.53s-11.97-6.59-11.97-13.51,5.63-12.95,13.51-12.39c6.28.45,9.86,6.45,9.86,13.37Z"/>
</svg>