<?xml version="1.0" encoding="UTF-8"?>
<svg id="Layer_2" data-name="Layer 2" xmlns="http://www.w3.org/2000/svg" viewBox="0 0 821.21 996.15">
  <defs>
    <style>
      .cls-1 {
        fill: #fff;
      }

      .cls-2 {
        fill: #070909;
      }
    </style>
  </defs>
  <path id="_หัว" data-name="หัว" class="cls-2" d="M819.78,563.57c-.51,22.77-17.02,16.93-16.87,17.89.96,17.63-3.99,35.93-17.99,47.76-8.36,7.06-18.87,7.31-28.34-.22-4.78,18.53-23.57,83.24-52.5,65.1-9.56,14.29-38.4,75.89-61.66,46.26-9.5,12.36-19.31,23.33-32.75,29.95-7.56,3.72-27.21,16.77-33.46,10.53-2.23-2.23-2.32-5.82-3.8-10.1-17.15,15.66-56.55,41.18-78.2,22.93-4.96-4.18-5.89-10.51-6.12-16.12.39-1.88-.62-1.89-2.19-1.73-15.67,5.34-33.73,5.55-48-3.68-6.8-4.39-7.38-10.44-6.51-16.76-5.69-1.75-14.81-1.68-18.35-8.68-12.86,14.97-21.11,37.18-42.17,29.17-7.32-2.79-12.22-9.36-14.57-18.87-15.33,14.36-34.9,36.25-58.13,23.74-5.36-2.89-7.47-8.43-10.17-14.31-8.55,9.86-16.48,19.45-28.59,22.56-7.31,1.87-13.83-3.8-20.37-5.85-11.47-3.6-20.06-9.52-24.5-21.93-12.34,16.57-39.3,27.38-54.3,10.01-18.67-21.63-23.98-32.12-25.09-61.48.52-2.23.5-4.04-2.07-3.29-4.81,5.19-16.74,14.55-25.57,8.59-23.04-15.54-23.24-39.07-25.13-64.82-8.22,3.55-12.88,8.98-20.04,6.23-16.31-6.25-12.63-72.58-10.87-88.63-12.63,4.88-23.59-2.31-27.76-15.03-6.3-19.2-1.18-39.3,6.87-59.36-12.58.37-21.93-6.52-26.43-17.97-7.97-20.23-3.05-41.32,3.25-61.47,5.54-17.72,10.66-33.83,19.16-50.36,11.21-21.79,23.32-42.45,42.05-59.44.64-29.39,4.31-57.01,7.18-86.63,3.69-37.99,8.7-74.54,17.14-111.53,5.97-26.15,27.05-85.84,63.85-67.06,27.44,14,48.23,34.03,70.28,55.35,22.7,21.96,45.6,43.05,65.78,67.35,6.36-5.18,13.72-2.8,19.46.14,11.46-14.58,23.8-36.17,46.26-25.34,3.25-10.08,8.08-18.65,16.93-22.62,5.93-2.66,12.51.12,18.11,2.26,5.96-7.98,12.62-15.52,22.86-15.97,7.8-.35,15.1,5.06,22.58,6.05,3.68-4.3,7.87-10.92,12.91-12.23,24.93-6.48,53.39,30.08,63.55,51.3,7.08-5.44,10.67-12.79,15.87-19.43,25.78-32.89,35.8-48.5,71.1-71.48,10.4-6.77,21.24-11.43,33.42-13.57,12.34-2.17,24.2,4.49,27.98,16.52,8.64,27.46,10.04,55.13,13.94,83.7l9.79,71.68c1.85,13.56,3.43,25.87.84,40.2,21.18,11.53,43.4,35.33,60.63,51.25,21.2,19.59,37,41.94,47.73,69.03,3.23,8.15,5.53,16.17,1.12,24.64-3.75,7.2-11.23,11.1-22.59,13.62,27.64,27.76,36.8,51.88,45.87,87.91h0c-1.65,4.36,1.44,25.31-8.12,27.19,4.47,12.24,7.43,28.25,6.68,37.02"/>
  <path id="_หน้า" data-name="หน้า" class="cls-1" d="M474.09,273.72l1.59,3.48c5.65,14.49,12.38,29.04,22.58,41.79,3.41,4.26,9.71,7.46,14.44,9.82,7.95,3.97,14.87-2.03,20.37-8.9,5.16,17.06,12.41,33.65,26.21,43.48,7.35,5.24,16.14,5.3,20.86-2.54,3.91,6.52,5.66,14.08,12.03,18.87,8.04,6.05,25.63.6,34.27-5.04,7.69,8.79,17.22,80.87,42.26,59.48-13.04,60.52,9.39,106.43,27.59,95.25-3.83,17.02-3.05,33.92,3.33,49.46-10.03,18.59-11.06,22.62-8.84,41.82-28.89,15.83-25.95,34.52-27.22,35.59-12.34,10.37-29.83,11.97-40.65,34.04-16.48,5.13-30.79,13.73-42.08,25.92-12.05,3.11-22.24,12.17-19.77,24.65-6.16,7.94-19.09,17.47-8.2,28.46l-2.8,11.85c-13.24,7.09-36.13,19.6-48.86,8.45-6.59-5.78.9-18.35-4.65-21.22-1.84-.95-5.26-1.03-7.89.08-27.44,11.6-48.27-.4-47.63-5.36.5-3.94,9.58-11.91,3.4-14.49-5.53-2.31-11.65,1.45-16.71-.97-3.45-1.65-4.26-5.35-3.49-8.07s16.91-12.72,6.92-45.5c17.73-5.03,9.51-29.8,5.14-43.78,11.25-.85,17.88-9.16,16.6-20.42-2.75-24.23-9.75-47.59-20.22-69.1.73-5.63,49.77,16.29,17.94-95.37,47.48,17.22-18.3-78.09-16.08-82.93,27.35-4.71,22.61-58.66,16.93-78.85,8.26,1.43,14.74-2.8,17.19-10.56,2.25-7.11,2.33-14.34,3.3-21.14-.06-2.27,1.17-2.28,2.05,0,.17.48.15,1.24.09,1.74Z"/>
</svg>