<?xml version="1.0" encoding="UTF-8"?>
<svg id="Layer_3" data-name="Layer 3" xmlns="http://www.w3.org/2000/svg" viewBox="0 0 821.21 996.15">
  <defs>
    <style>
      .cls-1 {
        fill: #020303;
      }
    </style>
  </defs>
  <path id="_หัว" data-name="หัว" class="cls-1" d="M810.46,619.67l-.03.17c-3.47,22.86-12.02,42.77-20.12,63.86-17.9,46.58-46.63,84.83-81.59,119.72-18.87,18.83-40.64,29.54-65.73,38.76-63.52,23.33-123.86,27.52-191.47,20.76-31.62-3.16-63.03-3.8-94.09-12.1-34.99-9.35-79.67-13.02-108.84-29.65-23.83-13.59-40.77-33.18-60.19-52.29-34.17-33.64-64.89-71.16-79.71-117.24l-18.19-56.57c-16.14-50.18-13.66-51.75-14.28-107.65-.44-39.67-4.81-79.26,1.64-118.94l11.88-73.07,9.6-84.23c1.79-15.69,5.17-30.26,6.04-46.21,1.32-24.27,7.51-48.48,26.59-63.52,7.7-6.07,17.56-5.56,25.28.37,15.78,12.12,28.74,26.32,43.44,39.68,17.32,15.74,34.83,29.8,50.22,48.12,19.16-2.4,36.49-2.2,55.5-1.16,43.74,2.39,85.82-.95,129.26-4.01,20.38-1.43,39.31.55,59.29-4.61,7.26-1.88,16.39.61,22.91-3.08,11.63-6.59,17.66-18.1,25.3-28.3,14.65-19.56,27.18-38.63,40.73-59.19,9.3-14.12,21.1-29.84,38.09-34.85,19.8-5.83,44.99,6.16,51.99,24.84l24.49,65.32,21.23,54.09,32.35,75.41,24.84,56c13.79,31.1,26.94,60.42,33.56,94.07,4,20.32,8.81,39.48,9.57,60.68,1.26,35.44-.05,70.1-3.11,105.33-.49,5.69-4.05,25.45-6.47,29.47Z"/>
</svg>