<?xml version="1.0" encoding="UTF-8"?>
<svg id="Tusse" xmlns="http://www.w3.org/2000/svg" viewBox="0 0 746.36 996.15">
  <defs>
    <style>
      .cls-1 {
        fill: #020303;
      }
    </style>
  </defs>
  <path class="cls-1" d="M724.36,356.82c-.77-1.29-1.5-2.78.3-1.79,5.38,2.1,8.98,8.88,16.19,6.28,10.58-3.81,3.24-43.66.13-52.03-16.44-44.24-43.77-82.44-76.36-116.27,2.18-6.5-.64-10.76-4.85-15.24-12.71-13.51-26.14-24.51-42.12-34.02-17.21-29.5-22.52-46.17-42.5-76.34-1.93-2.91-48.36-75.8-51.48-53.29l-7.23,52.2c-2.18,15.72-4.27,30.58-5.34,45.92l-94.89-20.56c-27.38-5.93-54.16-5.79-82.21-5.35l-51.45.8c-8.16.13-12.9.48-19.04-5.82-18.6-19.06-38.52-36.16-58.93-53.43L173.4,1.47c-1.82-1.54-4.37-1.89-6.47-.97-1.9.83-2.47,3.59-2.22,6.58,2.79,32.46,2.74,64.57,1.89,97.25-18.5-4.29-35.28-6.24-52.42-1.39-14.19,4.02-57.55,14.71-53.07,32.5,2.85,11.31,12.81,18.27,22.86,23.41-20.17,11.79-37.6,24.86-48.02,44.98-11.04,21.34-17.99,43.84-23.87,66.99-1.19,4.7,1.63,9.82,4.28,11.73,10.88,7.85,22.78-11.08,29.23-11.76C24.88,322.87-.67,389.17.01,446.73c.04,3.48,2.36,6.76,4,8.35,6.67,6.47,17.61-.88,23.53-8.95,1.02-.75,1.77-.1,2.26,1.94-3.8,22.58-26.49,148.44,5.32,153.09,6.34.93,11.07-4,15.86-6.38,1.53-.62,2.28-.04,2.22,1.76-4.93,40.79-8.87,81.65-1.96,123.04.77,4.63,4.02,8.77,7.1,10.07,11.08,4.68,20.61-12.99,26.23-20.26l.44,41.1c.16,15.16,6.19,48.72,22.94,51.37,6.03.96,13.79-1.64,16.55-6.37,1.47-.59,2.14.01,2.06,1.75-3.16,19.29-11.12,108.83,15.22,112.89,14.17,2.19,18.94-12.37,25.75-22.66,8.86,23.6,18.58,46.62,35.35,65.23,6.22,6.91,17.5,11.04,24.51,4.86,8.21-7.24,9.96-18.23,11.75-27.7.34-1.99.94-1.99,1.82.02,6.02,10.52,33.93,64.01,52.22,49.91,6.88-5.31,6.85-14.6,9.12-23.46,8.53,11.24,29.84,48.63,47.64,37.91,6.85-4.13,5.68-12.01,8.45-20.77,15.35,11.32,11.92,24.33,27.7,22.45,14.94-1.78,28.17-8,41.01-14.25.53.02,1.05,0,1.53-.07-.32.67-.21,1.34.72,1.75-.2,2.31.04,6.2,1.39,8.14,1.5,2.16,5.17,2.54,8.25,1.82,24.24-5.61,42.77-20.05,61.43-34.69.78-.05,1.43-.77,1.95-2.14,1.2-.28,1.2.32,0,1.79-1.2.61-1.28,1.25-.16,1.92-.49,5.89-4.77,14.88,2.94,19.56,9.37,5.69,20.61-11.03,27.27-18.27,13.67-14.86,24.38-30.68,33.12-48.49,2.61,3.33,2.78,5.9,4.89,6.94,2.47,1.21,5.91.73,7.92-2.21,25.09-36.58,30.61-57.56,46.36-98.55,2.67,2.11,5.72,4.42,8.68,3.62,2.65-.72,6.88-3.21,8.04-6.81,12.9-39.96,15.56-65.8,15.49-108.42,2.18,1.92,4.39,3.46,7.12,3.04,2.35-.36,5.27-1.99,6.35-5.02,6.26-17.7,8.15-35.65,10.34-54.26,2.21-18.73,4.93-36.62,5.98-54.66,1.18-2.11,2.44-2.75,3.8-1.91,2.29.87,5.13,1.7,7.52.89,7.49-2.53,17.18-78.15,16.76-86.85l-2.09-43.04c4.57,7.38,11.53,25.2,21.15,24.55,2.53-.17,4.75-2.07,6.41-4.74,12.17-19.57.88-72.26-5.54-94.7-3.41-11.93-7.85-22.77-10.37-34.05ZM732.23,477.11l-24.55-39.15c-2.06-3.28-5.35-5.15-8.52-3.46-2.13,1.13-4,4.59-3.21,8.01,12.53,54.56,8.69,74.06-.14,125.04-1.67,2.11-2.6.54-3.71-1.52-1.47-3.88-2.39-8.02-5.84-9.52-2.71-1.18-5.2.56-6.47,1.78-1.59,1.52-1.69,5.01-1.72,7.78-.38,28.99-4.89,56.69-8.2,85.28-1.67,14.47-2.47,28.31-7.36,41.43-4.19-4.25-6.46-15.33-13.75-11.53-1.24.65-2.8,2.6-2.82,5.12l-.37,51.75c-.13,18.74-3.54,36.6-8.82,53.52-.57,3.36-1.83,5.18-3.77,5.48l-.64-6.5c-.33-3.31-2.47-5.41-5.27-5.27-1.62.09-4.63,1.19-5.33,3.88-5.21,20.03-12.12,38.71-19,58.29-5.8,16.48-13.51,31.2-21.38,45.86-2.98,1.45-2.75-.17-1.9-3.29.59-3.89.67-9.03-1.98-10.65-4.57-2.81-8.62,1.96-10.47,6.09-12.76,28.59-27.7,55.53-50.17,76.35-3.05,3.43-3.35-2.09-2.23-5.52-.35-6.38,4.37-17.3-2.92-19.36-2.66-.75-4.97.16-7.05,2.18-17.5,16.94-35.85,33.06-59.52,40.93-.76-5.77,11.99-15.45,4.15-19.86-5.63-3.17-15.5,4.17-22.46,8.51-12.02,7.5-24.76,13.64-38.8,15.89-3.6-12.95,12.64-21.09,10.41-28.58-.73-2.45-2.97-3.68-6.17-3.2-4.55.69-10.63,16.44-17.06,22.24-12.76-8.54-19.91-35.72-28.61-29.87-5.93,3.98,4.52,27.01-2.06,39.93-16.05.02-40.33-48.46-46.69-61.67-1.07-2.23-5.95-1.69-7.22-.67-4.82,3.85,5.94,33.5-3.61,48.72-18.99-7.92-35.78-46.85-44.56-65.26-1.63-3.41-4.57-4.11-7.86-3.68-7.16.92-1.44,28.53-13.11,45.37-2.67,3.85-9.18-.46-11.69-3.5-19.26-23.27-30.31-51.31-36.78-80.82-.76-3.45-3.61-5.73-6.42-5.66-9.22.22-5,32.15-21.12,41.3-3.75.87-7.53-7.41-8.22-11.32-5.85-33.18-4.6-66.23,1.99-99.23,1.88-9.41,7.15-30.85-1.45-32.08-11.39-1.62-13.22,36.03-28.17,34.14-2.57-.33-4.3-3.01-5.69-5.66-11.67-22.17-9.61-74.34-6.07-98.95.49-3.44-2.81-5.88-5.32-6.36-8.66-1.65-16.32,30.21-29.98,39.72-8.7-41.4-3.06-104.21,6.53-144.56.86-3.64-.2-7.46-3.03-8.49-9.3-3.42-14.54,18.47-29.61,24.13-5.8-8.36-6.77-18.19-6.89-28.31-.59-49.84,5.72-98.78,20.51-146.16,1.09-3.48-1.85-7.03-3.64-7.77-2.12-.88-5.87-.43-7.65,2.22l-18.76,27.79c-2.21,3.27-4.67,7.03-9.32,7.13-.25-49.36,20.79-109.82,38.72-155.24,3.95-10,19.54-33.11,12.39-38.41-8.72-6.47-28.23,15.31-38.62,21.03,3.55-18.99,10.29-36.31,17.4-53.97,7.64-18.97,20.91-33.55,38.06-44.18l21.17-13.12c2.76-1.71,3.59-5.22,2.49-7.88-2.68-6.49-30.63-4.23-29.01-21.79,5.02-8.56,19.27-9.78,27.8-13.45,20.91-8.98,44.08-11.24,64.98-2.72,2.2.9,3,5.73,5.95,3.8,1.31-.86,3.04-2.19,3.03-4.94l-.62-100.62,36.88,29.97c19.32,15.7,39.08,37.36,54.45,57.11l18.27-3.78c18.99-3.93,39.05.48,58.99-.45,51.57-2.42,119.05,14.52,169.88,27.16,2.55.63,3.92,4.99,6.61,3.52,2.59-1.41,2.52-4.16,2.58-7.43-2.01-13.74-1.42-27,1.01-40.5,3.39-18.85,3.48-36.92,8.38-57.13,36.38,42.22,57.14,80.17,77.28,131.02,27.79,22.56,26.38,20.6,27.79,22.56,10.05,13.91,24.2,26.55,35.07,39.73,26.25,31.81,68.41,90.01,63.34,131.98-9.23-3.73-19.79-20.39-26.1-14.72-1.39,1.25-3.17,4.35-2.2,7.11,7,19.92,13.5,39.23,19.3,59.58,4.47,15.67,13.82,62.89,6.29,77.35Z"/>
</svg>